/* XPM */
static char *coin1684417368[] = {
/* columns rows colors chars-per-pixel */
"64 64 226 2 ",
"   c #732B1D",
".  c #7E341B",
"X  c #77301F",
"o  c #6E2822",
"O  c #762F20",
"+  c #7A372B",
"@  c #7C3C34",
"#  c #773630",
"$  c #7E413C",
"%  c #8A3E17",
"&  c #843A1B",
"*  c #80361A",
"=  c #843D23",
"-  c #964816",
";  c #954716",
":  c #AE5B0E",
">  c #A15112",
",  c #AA5A12",
"<  c #B05C0D",
"1  c #BB650B",
"2  c #B46913",
"3  c #BA7717",
"4  c #AE6916",
"5  c #894327",
"6  c #934C28",
"7  c #864738",
"8  c #94553A",
"9  c #BE7C39",
"0  c #C36D0A",
"q  c #C7710C",
"w  c #CB740B",
"e  c #CD790C",
"r  c #CC7307",
"t  c #D47C09",
"y  c #D87F09",
"u  c #C67917",
"i  c #D27C12",
"p  c #C07931",
"a  c #824641",
"s  c #854A44",
"d  c #894F47",
"f  c #8C544D",
"g  c #8E5953",
"h  c #915C54",
"j  c #925E5A",
"k  c #94625C",
"l  c #9B6757",
"z  c #BB7E46",
"x  c #A66A48",
"c  c #9B6D6A",
"v  c #986863",
"b  c #9D716E",
"n  c #9F7471",
"m  c #A27673",
"M  c #A57C7A",
"N  c #AC7D66",
"B  c #BB8217",
"V  c #CD830E",
"C  c #DC8206",
"Z  c #DB8309",
"A  c #D4880D",
"S  c #DA940D",
"D  c #C98612",
"F  c #D58A18",
"G  c #CC9413",
"H  c #C99916",
"J  c #D6941E",
"K  c #D59715",
"L  c #E28605",
"P  c #E58905",
"I  c #EB8D03",
"U  c #E28E0A",
"Y  c #E59207",
"T  c #EE9304",
"R  c #E39409",
"E  c #E49A0B",
"W  c #E99B09",
"Q  c #ED9A07",
"!  c #F49401",
"~  c #F89700",
"^  c #F59C03",
"/  c #F19C0B",
"(  c #E49716",
")  c #CEA418",
"_  c #DCA412",
"`  c #D7A914",
"'  c #DBB414",
"]  c #DDB919",
"[  c #EDA30B",
"{  c #ECAC0D",
"}  c #E4A50E",
"|  c #F6A305",
" . c #F7A906",
".. c #F4A509",
"X. c #F5AC09",
"o. c #F8AC09",
"O. c #F8A605",
"+. c #EDB10E",
"@. c #F5B30C",
"#. c #F8B20A",
"$. c #F6BA0E",
"%. c #F8BB0D",
"&. c #E4AC11",
"*. c #E8AE11",
"=. c #E4A417",
"-. c #F7AA18",
";. c #E5B413",
":. c #EBB411",
">. c #E4BC15",
",. c #EBBA12",
"<. c #E9B71B",
"1. c #F3B611",
"2. c #F2BC11",
"3. c #F8B817",
"4. c #C58529",
"5. c #DA9424",
"6. c #CB8938",
"7. c #D19528",
"8. c #E69829",
"9. c #E39D33",
"0. c #DCB62C",
"q. c #F9B62A",
"w. c #F9BC38",
"e. c #E5B02F",
"r. c #DFC218",
"t. c #F9C00F",
"y. c #F8C60F",
"u. c #E4C516",
"i. c #ECC514",
"p. c #EDCB15",
"a. c #E5CC19",
"s. c #E9CA1B",
"d. c #F5C311",
"f. c #F9C511",
"g. c #F4CC14",
"h. c #F9CB12",
"j. c #F6CC1A",
"k. c #ECD217",
"l. c #ECD419",
"z. c #EEDA18",
"x. c #EFD817",
"c. c #F5D315",
"v. c #F9D414",
"b. c #F5DB16",
"n. c #F9DC15",
"m. c #F2DD1A",
"M. c #F9DB1B",
"N. c #F8D41D",
"B. c #F7E216",
"V. c #F8E417",
"C. c #FAE917",
"Z. c #F5E418",
"A. c #F9EA18",
"S. c #F9E318",
"D. c #EACC2A",
"F. c #FAC72A",
"G. c #EED426",
"H. c #F7D72B",
"J. c #FBC53C",
"K. c #FBD937",
"L. c #EACB36",
"P. c #F9E335",
"I. c #BA8358",
"U. c #A8817E",
"Y. c #A7807D",
"T. c #B7896C",
"R. c #C18848",
"E. c #CF9753",
"W. c #E8A749",
"Q. c #E9B54D",
"!. c #C9986A",
"~. c #CC9C70",
"^. c #E7B668",
"/. c #E5B16C",
"(. c #D2A576",
"). c #E8C943",
"_. c #F7C943",
"`. c #EDD349",
"'. c #F9D44A",
"]. c #FBCC56",
"[. c #EFD553",
"{. c #FDD55C",
"}. c #FCDA5D",
"|. c #F9D654",
" X c #E8CB58",
".X c #FCE449",
"XX c #FCE258",
"oX c #FDDD63",
"OX c #F2D460",
"+X c #FCD379",
"@X c #EEC96F",
"#X c #FDE165",
"$X c #FCE26A",
"%X c #FEE969",
"&X c #FDE975",
"*X c #AA8583",
"=X c #B49490",
"-X c #B89896",
";X c #B1908D",
":X c #BDA0A0",
">X c #C0A29F",
",X c #C4ACAB",
"<X c #CBB9B7",
"1X c #CCB7B6",
"2X c #FEED83",
"3X c #D2C0BE",
"4X c #CFC0BF",
"5X c #D4C3C2",
"6X c #DBCCCB",
"7X c #D7C9C8",
"8X c #DED4D3",
"9X c #DFD9D8",
"0X c #DED0CF",
"qX c #E1D7D6",
"wX c #E3DCDC",
"eX c #E4E0DF",
"rX c #EAE5E4",
"tX c #EDEDED",
"yX c #E6E2E2",
"uX c #F1EEEE",
"iX c #EFF0F0",
"pX c #F3F3F3",
"aX c #F7F7F8",
"sX c #F7F8F8",
"dX c #F9F9F9",
"fX c #F1F0EF",
/* pixels */
"dXtXdXtXsXtXsXfXaXfXpXpXfXpXiXaXfXaXtXsXtXsXtXsXtXdXtXqX=Xg # o o # h -X8XpXpXiXaXtXaXtXaXtXaXuXaXtXaXtXsXtXaXfXaXiXpXpXpXpXtXaX",
"dXtXaXtXpXiXpXfXpXpXpXpXpXpXfXpXfXpXtXaXtXaXuXsXfXtX=Xa o   . & & . o o a -XrXpXaXtXaXtXaXuXaXiXaXuXaXuXaXtXpXfXpXfXpXiXpXpXfXaX",
"rXsXtXdXtXaXtXaXiXpXpXpXpXiXpXiXaXtXaXtXsXtXdXtX6Xk o * , w L I P C w , . o j 6XpXaXtXaXtXaXtXdXtXdXtXaXtXaXtXaXpXpXpXpXpXfXaXtX",
"iXaXtXaXiXpXpXpXfXpXpXpXpXpXpXpXpXpXpXiXpXfXsX1Xa   , L ! ! ! I ! ! ~ ~ L ,   a <XaXiXaXiXpXiXpXtXaXuXpXtXaXfXpXfXpXpXpXpXpXpXtX",
"dXtXdXtXdXtXaXtXpXtXpXpXpXpXiXaXtXaXtXaXtXdX<X$ . q ! ! C u 9 I.z 9 u C ! ! q * = 5XdXtXaXtXaXtXdXtXdXtXdXtXaXtXaXiXpXpXpXpXiXaX",
"aXpXpXiXpXiXpXpXpXpXpXpXfXpXpXpXpXpXpXpXpX8Xs * t ! L p !.@XOX'._.L.Q.4.3 L ~ t * s 9XpXpXpXpXiXpXpXpXpXpXiXpXpXpXfXpXpXpXpXpXpX",
"rXdXtXdXtXdXtXaXtXaXfXpXpXpXpXtXaXtXdXtXuXv . t ! V R. XH.M.c.h.g.h.h.f.&.u t ! t * k uXuXaXtXaXrXdXtXdXtXdXtXaXtXpXfXpXpXpXpXtX",
"pXpXpXpXpXpXpXpXpXpXpXpXpXpXpXpXpXpXpXpX=X  q ! e 7.P.n.b.v.v.h.h.h.f.f.t.1.D w ~ q O =XpXpXpXpXpXpXpXpXpXpXpXpXpXpXpXpXpXpXpXpX",
"dXtXdXtXsXtXsXtXaXtXpXpXpXpXtXaXuXaXuX0X@ , ! t ) n.n.v.n.v.v.h.h.h.f.t.t.%.$.D t ! , @ 6XiXdXtXsXtXdXtXsXtXsXtXaXfXpXpXiXpXiXaX",
"fXpXpXpXfXpXpXpXpXpXpXpXpXpXpXpXpXpXuXc & I C H n.B.n.n.v.v.v.h.h.h.f.y.t.%.%.#.D C P ; c pXpXpXfXpXpXpXfXpXpXpXpXpXpXpXpXpXpXfX",
"rXdXtXdXtXsXiXaXfXaXiXpXpXfXpXfXaXuX5X= w I D m.B.n.n.n.v.v.h.v.h.h.f.f.t.%.%.#...u I q + 5XiXaXtXsXtXsXtXsXtXaXtXaXfXpXpXfXaXtX",
"dXiXpXuXaXfXpXfXpXpXpXfXpXpXpXpXpXuXc 6 ( i s.S.B.B.n.n.n.v.v.v.h.h.f.f.%.%.%.#.#.E w T - c pXiXaXfXpXuXaXfXpXpXpXpXpXpXpXpXpXpX",
"dXtXaXtXsXtXsXtXaXfXpXpXpXpXiXaXiX6X@ 6.U ) S.B.n.n.n.n.v.v.v.h.h.f.f.f.%.%.%.#.#.o.V P r = 6XiXsXtXaXtXsXtXsXfXaXfXpXpXpXpXiXaX",
"iXdXtXaXfXpXfXaXiXpXpXpXpXpXpXtXaXU.6 9.D z.S.B.B.n.n.n.v.n.v.v.h.h.f.f.f.%.%.@.X.o.W e Y ; *XaXtXaXuXpXtXaXfXpXtXpXpXpXpXfXpXiX",
"tXaXtXaXtXaXtXaXiXpXiXpXpXfXpXpXyXs z ( ) C.B.>.;.n.n.n.v.v.v.h.h.h.f.f.%.%.@.K S [  .V P 0 s tXuXsXtXsXtXaXtXaXfXpXpXpXpXpXpXtX",
"sXtXaXtXaXtXaXfXpXpXpXpXpXpXpXaX,X7 W.A k.C.p.,.:.i.n.n.v.v.v.v.h.h.f.f.f.%.&.2.+.E  .W t L = ,XdXtXsXtXaXtXaXiXpXpXpXfXpXpXpXsX",
"aXtXsXfXpXfXpXfXpXpXpXpXpXpXiXaXn x 9.K C.Z.p.g.$.>.n.n.v.v.v.h.h.h.f.t.t.@.;.$.@.E  .| e I - M sXiXaXiXpXfXpXfXpXpXpXpXpXpXfXaX",
"tXsXiXsXtXsXtXaXfXpXiXpXpXiXaXeXd !.J r.C.N.s.h.$.,.n.n.n.v.v.h.h.h.f.f.t.%.;.d.@.R E O.A C r d wXdXtXsXtXaXfXaXiXpXfXpXpXiXpXtX",
"tXpXfXpXfXpXpXpXfXpXiXpXpXpXpX3X7 /.A Z.G.[.H.h.$.p.n.v.v.v.v.p.d.h.f.f.t.%.*.1.X.| Y W ^ e L 5 3XsXfXpXfXaXfXpXfXpXpXpXpXfXpXiX",
"dXtXdXtXsXtXaXiXaXiXpXpXpXpXpX>Xh W.H C.H.$XM.h.+.p.n.n.n.>.K G G K ,.y.t.%.&.2.X.| T Y | e P ; >XiXsXtXsXtXsXtXaXtXpXpXpXaXfXsX",
"pXpXpXfXpXpXpXpXpXpXpXpXpXpXpXm T.9.' C.G.&X.XG.$.+.b.n.' ` i.f.$.} A ;.t.@.>.%.@.^ T R | C L : m iXpXpXpXpXpXpXpXfXpXpXpXpXpXpX",
"rXsXtXsXtXsXuXpXiXpXfXpXpXpXtXg (.J k.C.G.OX&X}.d...,.u.` h.N.F.F.%.| G :.;.g.d.{ ..Y E | P y r f pXtXdXtXsXiXpXtXaXfXpXpXtXaXtX",
"aXpXpXpXpXpXpXpXpXpXpXpXpXpXqXf /.G Z.Z.B.D.L.).J.o.W ` c.K.oXoXoX'.3.E G p.h.,.S S S | | T e C 7 qXaXpXpXpXpXpXpXpXpXpXpXpXpXpX",
"dXtXsXtXsXtXaXiXaXtXpXpXpXaX<Xj ^.K C.C.Z.V.Z.G.[.3.| g.H.#X$XoXoXoX].-.{ n.c.:.#. .| | ^ ! e P 5 <XdXtXsXtXaXuXaXiXpXpXpXpXtXaX",
"fXaXiXpXfXpXpXpXpXpXfXpXpXaX,Xl Q._ C.C.C.Z.V.B.L._.o.M.XX$X#X#XoX{.{.J.o.c.i.{ o.o. .| ^ ~ t L - ,XaXpXfXpXpXpXpXpXpXpXpXpXpXiX",
"rXdXtXdXiXsXiXpXfXaXpXpXpXpX-XN W.' C.V.C.V.V.B.n.`.H.P.$X$X$XoXoX{.{.].-.d.,.#.#.o. .| | ^ Z P > -XiXsXtXsXtXaXfXpXiXpXpXiXpXtX",
"aXiXaXiXpXfXpXfXpXpXpXfXpXaXY.T.9.u.C.C.V.V.V.B.V.D.H..X&XoX#X#XoX{.{.{.q.{ +.#.#. . .| ^ ^ C C : *XsXfXaXiXpXfXpXpXpXpXpXpXpXpX",
"dXtXaXtXsXiXaXfXpXpXpXpXiXpXc !.5.k.C.C.C.V.V.B.V.p.k..X.X#X$XoXoXoX{.].w.R +.#.#. . .| ^ ^ L C 1 b sXtXsXtXaXfXaXfXpXpXpXpXfXsX",
"tXaXtXaXtXaXfXpXpXpXpXpXpXiXc ~.5.l.C.C.V.Z.V.B.n.i.k.S.n.H.|.oXoX'.q.o.^ U { #.o.o. .| | ~ P y 0 v tXaXuXaXfXpXfXaXpXpXpXfXpXtX",
"tXsXtXaXtXaXiXaXiXpXiXpXpXtXv ~.7.z.C.C.C.V.V.B.B.p.x.b.c.v.j.K.F.%.o.[ ! R { %.#.X. .| ^ ~ I t 0 k rXsXtXsXtXaXtXpXtXpXpXpXaXtX",
"sXtXsXtXsXtXsXfXpXpXpXfXpXtXg !.J z.C.C.V.Z.V.V.B.p.k.' g.g.h.y.%.o.@.:.Y U { %.#. . .| ^ ^ I t r h fXfXaXtXaXiXaXfXpXpXpXpXpXaX",
"sXfXaXuXpXuXpXfXpXpXpXpXpXtXh ~.J Z.C.C.C.V.V.V.B.p.p.>.v.c.g.t.2.2.f.2.E S @.#.#. . .| ^ ^ T t r h uXiXaXtXpXiXpXpXpXpXpXpXfXpX",
"rXdXtXaXtXsXtXaXtXpXfXpXpXtXl !.J Z.A.C.A.V.V.B.B.c.a.] c.v.v.f.2.f.f.2.( ( 1.%.o.o. .| ^ ~ I t r h yXdXtXaXtXaXiXpXiXpXpXiXpXtX",
"iXpXfXaXfXpXfXpXpXpXpXpXpXrXj !.J z.C.V.V.V.V.B.n.n.u.s.i.c.h.f.2.d.f.*.=.=.%.#.#.o. .| ^ ^ I t r h rXaXiXaXfXpXfXpXpXpXpXpXpXfX",
"dXiXdXtXsXtXaXtXpXfXpXpXfXfXk !.J l.C.C.C.V.V.B.B.c.D.P.i.j.j.f.%.3.{ [ w.=.@.#.#.X. .| | ^ I t q k aXtXdXtXaXtXaXfXpXpXpXpXiXdX",
"aXpXpXfXpXpXpXpXpXpXpXpXpXpXv !.5.k.C.C.A.V.S.B.B.p.[.2X%XXXH.,.2.q.J.J._.( X.%.o.o. .| ^ ~ L Z 0 v pXiXpXiXpXpXpXfXpXpXpXpXpXpX",
"rXdXtXdXtXaXtXaXtXaXfXpXpXfXm I.5.a.C.C.C.V.V.B.B.p.`.&X%X'.H.,.1.1.q._.Q.( o.%.o.o. .| | ~ L C 1 n tXdXtXdXiXaXiXpXiXpXpXiXaXtX",
"pXpXpXpXpXpXpXpXpXpXpXpXpXpXU.x 5.u.C.V.A.V.V.B.B.c.] S.M.K.|.<.*.%.#...^ S @.#.#.X. .| ^ ^ C C : U.pXpXpXiXpXpXpXpXpXpXpXpXpXpX",
"dXtXdXtXaXtXaXtXaXtXpXpXfXaX;Xx 8.' C.C.V.V.S.B.S.n.>.' M.XX#XXXF.#.o.| S } $.#.#. . .| ^ ^ t L > =XdXtXdXtXdXiXaXuXpXpXpXpXtXsX",
"iXpXiXpXfXpXpXpXpXpXpXpXpXpX,X8 8.` C.C.C.V.S.B.S.n.p.:.n.'.#X#X'.%.o. .&.@.%.#.#. . .| | ~ t P - ,XaXpXiXpXiXpXpXpXpXpXpXpXpXfX",
"tXdXtXaXtXaXiXaXfXaXiXpXpXpX7X7 8.G C.C.Z.V.V.B.N.m.;.2.v.j.'._._.q. . .2.*.#.@.#.X. .| ^ ! w P 5 7XiXdXtXsXtXaXiXpXfXpXpXpXpXtX",
"aXiXaXfXpXfXpXfXpXpXpXpXpXpXqX7 F A m.C.C.Z.V.] e.] :.%.g.;.<.<.<.=.} X.h.*.S S W o. .| ^ ! i y 7 8XaXfXpXiXpXpXpXpXpXpXpXpXpXpX",
"dXtXaXtXsXtXaXiXaXtXpXpXpXpXyXg q A a.A.A.A.l.Q.H.i.%.@._ g.` &._ _ ,.;.g.1.[ ^ R  . .| / 8.t r f yXsXtXsXuXsXfXpXpXpXfXpXpXiXaX",
"tXaXiXpXiXaXfXpXfXpXpXpXpXpXpXb , P ] A.Z.A.G.L.S.c.f.*.>.v.g.g.h.f.y.;.i.1.o.^ Y .. .| -.F L < n sXfXpXiXaXfXpXpXpXpXpXpXfXaXtX",
"tXsXtXaXtXsXuXpXfXaXiXpXpXpXsX-X; I H A.C.Z.k.`.n.v.d.&.c.v.v.v.v.h.f.2.;.$.#.^ Y .. .O.w.u I ; -XdXiXaXtXaXuXpXfXpXiXpXpXpXpXtX",
"sXtXsXtXsXtXaXfXpXpXpXpXpXpXpX6X= L D z.C.Z.k.).H.v.d.&.c.v.v.h.h.f.h.2.&.%.X.^ E X. .-.Q.i L = 6XfXsXtXsXtXaXfXaXfXpXpXpXpXfXaX",
"sXuXsXuXaXtXpXfXaXtXpXfXfXpXpXrXd 0 C ] C.Z.B.s.0.h.f.&.g.v.h.v.h.h.f.2.,.%...E ..o. .w.W.y r d rXfXsXuXpXiXaXiXpXpXpXpXpXpXpXaX",
"rXsXtXsXtXaXiXaXtXpXpXpXpXpXpXpXU.- I H V.Z.B.B.p.i.f.} g.v.v.v.h.h.f.:.,.%.{ @.#.o. .@Xp I > M fXsXtXsXtXaXtXaXtXpXiXpXpXfXpXtX",
"iXaXfXaXfXaXiXpXfXpXfXpXpXpXpXpX1X= L V a.C.V.V.b.>.$._ c.v.v.h.h.h.f.2.&.%.[ X.#. .w.^.w P = 1XpXpXfXaXfXaXfXpXfXpXpXpXpXpXpXiX",
"dXtXsXtXdXtXaXiXaXfXpXpXpXpXiXaX9Xd 1 P ) V.V.V.n.` G ' v.n.v.h.h.h.f.f._ K *.%.X.X.+X6.P 0 s 9XdXtXsXtXsXtXaXiXaXfXpXpXiXpXfXaX",
"aXfXpXfXpXfXpXfXpXfXpXpXpXpXpXpXiX*X; T V l.Z.V.n.b.i.v.v.v.v.g.h.h.f.f.t.@.#.#.#.w.@Xu I ; *XpXpXpXpXfXpXfXpXfXpXpXpXpXpXpXpXpX",
"rXsXtXdXtXsXiXaXtXaXfXpXpXiXpXiXaX4X# w C H Z.V.n.B.n.n.v.v.v.v.h.f.f.y.y.$.%.%.3.+X6.L t + 5XdXtXdXtXdXtXsXiXaXiXpXfXpXpXpXpXtX",
"pXpXpXpXpXpXfXpXpXpXpXpXpXpXpXpXaXiXc ; T e r.C.B.n.n.n.v.v.v.h.h.h.f.f.%.%.%.%.]./.q T - c tXpXpXpXpXpXpXpXpXpXpXpXpXpXpXpXpXpX",
"dXtXsXtXsXtXaXiXaXiXpXiXpXpXiXaXiXdX1X+ q T B m.B.n.n.n.v.v.v.h.h.h.f.f.f.%.%.q.@Xu I q + <XdXtXaXtXsXtXaXtXaXfXaXiXpXfXpXpXiXaX",
"pXaXiXpXiXpXpXpXfXpXpXpXpXfXfXpXiXiXiXv % I C B n.B.n.n.n.v.v.v.h.h.f.f.%.%.q.].4.C I % c pXfXaXfXpXfXpXpXpXpXpXpXpXpXpXpXpXpXfX",
"rXdXtXsXiXaXtXaXiXaXpXpXpXfXaXiXaXtXdX5X@ , ! e H m.n.n.v.v.v.h.h.f.f.f.f.2.F.4.w ! , @ 5XdXtXdXtXaXtXdXtXaXtXpXfXpXiXpXpXpXpXtX",
"aXfXaXfXaXfXpXfXpXfXpXpXfXpXpXpXfXaXfXaX;XX q ! i B c.n.v.v.v.v.h.h.f.f.f.1.3 q ! w X ;XpXiXpXiXaXfXpXfXaXfXpXpXpXpXpXpXpXpXpXpX",
"dXtXsXtXaXtXaXiXaXpXpXpXpXpXfXaXtXaXtXsXeXk . Z ^ e 3 >.n.v.v.v.h.h.h.d._ 3 t ~ Z . k yXdXiXaXtXsXtXsXtXaXtXaXtXaXfXpXfXpXpXfXaX",
"tXsXtXpXiXpXfXaXiXpXpXpXpXpXpXpXpXfXaXuXsX7Xs & t ~ L 2 3 ` <.i.i.;.K 3 2 L ! t & a 6XsXiXdXtXaXfXaXtXpXtXaXfXaXiXpXpXpXpXpXpXiX",
"tXsXtXaXiXaXfXpXiXpXfXpXpXfXpXiXaXtXaXtXaXiX5X$ . q ! ~ y 3 2 2 4 2 0 Z ! ! w * $ 3XfXaXtXdXtXdXtXsXtXaXtXaXfXpXiXpXpXpXpXpXpXtX",
"sXtXsXtXsXiXpXfXaXfXpXpXpXpXiXpXfXaXtXaXtXsXfX3X7   , C ~ ~ ! I I ! ~ ~ L , X a <XpXsXtXpXtXsXtXsXtXsXuXsXtXpXfXaXfXpXpXpXpXpXaX",
"sXuXaXfXpXiXaXfXpXiXpXpXpXpXpXpXuXaXtXaXiXaXiXaX7Xj o . , r L I I L e , * o j 6XaXfXaXiXsXuXaXtXsXtXsXtXaXtXaXfXpXfXpXpXfXpXtXaX",
"rXsXtXsXtXaXiXaXiXpXiXpXpXiXpXfXsXtXaXtXsXtXaXtXdXeX-Xa o o * * & =   o a =XrXaXfXaXfXsXtXsXtXsXtXsXtXsXtXaXtXaXiXpXiXpXpXfXaXtX",
"tXaXfXpXfXpXfXpXpXpXpXpXpXpXpXpXpXtXaXuXaXtXaXiXaXiXdX8X=Xg # o o # g =XqXpXpXpXfXpXfXpXuXsXuXaXtXsXfXpXtXaXiXpXpXpXpXpXpXpXpXtX"
};
