/* XPM */
static char *stone_brick_floor_dark_color_castle_studio_ghibli_style_hand_drawn_oil_painting_watercolor_3339751931684529081[] = {
/* columns rows colors chars-per-pixel */
"64 64 255 2 ",
"   c #070505",
".  c #160A06",
"X  c #180F0B",
"o  c #141414",
"O  c #181718",
"+  c #1C1B1C",
"@  c #280E06",
"#  c #2A1308",
"$  c #34160C",
"%  c #381908",
"&  c #241E1A",
"*  c #24211E",
"=  c #392613",
"-  c #382616",
";  c #1E1F21",
":  c #201F21",
">  c #1F2022",
",  c #232324",
"<  c #292624",
"1  c #2C2926",
"2  c #262629",
"3  c #27282B",
"4  c #2B2A2C",
"5  c #312E2B",
"6  c #35312E",
"7  c #39342F",
"8  c #2D2E32",
"9  c #302F31",
"0  c #2F3034",
"q  c #323235",
"w  c #3A3632",
"e  c #3D3A35",
"r  c #343539",
"t  c #37383B",
"y  c #3A3A3D",
"u  c #431C08",
"i  c #501F09",
"p  c #482208",
"a  c #4C2509",
"s  c #542609",
"d  c #542A0A",
"f  c #5A2D0A",
"g  c #5D330C",
"h  c #472915",
"j  c #572D14",
"k  c #4B361B",
"l  c #5A3718",
"z  c #64340B",
"x  c #6B350B",
"c  c #66390D",
"v  c #6C3A0D",
"b  c #723D0C",
"n  c #79380C",
"m  c #653B13",
"M  c #673A16",
"N  c #723B12",
"B  c #773E15",
"V  c #4A3623",
"C  c #543A27",
"Z  c #413C36",
"A  c #433E39",
"S  c #57411E",
"D  c #78420D",
"F  c #7C440D",
"G  c #6D4215",
"H  c #6B451D",
"J  c #7B4312",
"K  c #784616",
"L  c #73441A",
"P  c #744A1B",
"I  c #7A4B1C",
"U  c #7E521C",
"Y  c #584529",
"T  c #46413C",
"R  c #484439",
"E  c #49443E",
"W  c #5A4835",
"Q  c #674827",
"!  c #744C22",
"~  c #794A25",
"^  c #6B552C",
"/  c #7C5324",
"(  c #7A542B",
")  c #674C37",
"_  c #6A5638",
"`  c #755737",
"'  c #7D6234",
"]  c #3B3C41",
"[  c #403F40",
"{  c #3F4147",
"}  c #4B4641",
"|  c #4E4943",
" . c #464748",
".. c #514C45",
"X. c #534E48",
"o. c #58544B",
"O. c #5D5A53",
"+. c #6E5844",
"@. c #655D52",
"#. c #74634E",
"$. c #686358",
"%. c #756A56",
"&. c #777263",
"*. c #863D0D",
"=. c #85470E",
"-. c #8B4C0F",
";. c #90450F",
":. c #834B13",
">. c #884915",
",. c #834C1C",
"<. c #934D12",
"1. c #8B5214",
"2. c #85541C",
"3. c #8D531D",
"4. c #935314",
"5. c #9C5514",
"6. c #9D5A16",
"7. c #92531B",
"8. c #955A18",
"9. c #9B5B1A",
"0. c #A05615",
"q. c #A15B17",
"w. c #A15D18",
"e. c #9A611D",
"r. c #A3621B",
"t. c #A8691F",
"y. c #B06D1E",
"u. c #844E23",
"i. c #845424",
"p. c #8B5423",
"a. c #855B24",
"s. c #8C5C23",
"d. c #895629",
"f. c #835B2C",
"g. c #8C5B2C",
"h. c #945D24",
"j. c #975C27",
"k. c #865D33",
"l. c #965E32",
"z. c #89622A",
"x. c #9C6324",
"c. c #986426",
"v. c #94632C",
"b. c #946A2C",
"n. c #9C6B2B",
"m. c #9B712E",
"M. c #896636",
"N. c #976737",
"B. c #936C33",
"V. c #9C6C33",
"C. c #88723D",
"Z. c #997539",
"A. c #A66927",
"S. c #A36C2C",
"D. c #B16F22",
"F. c #A8752B",
"G. c #AB732C",
"H. c #B5772A",
"J. c #A46D36",
"K. c #A37434",
"L. c #AC7B33",
"P. c #A77538",
"I. c #A47C3B",
"U. c #AB7B3B",
"Y. c #B47A35",
"T. c #C27D29",
"R. c #886948",
"E. c #906E4A",
"W. c #987847",
"Q. c #8B7556",
"!. c #977956",
"~. c #98785F",
"^. c #A67946",
"/. c #AD7A4B",
"(. c #9C813E",
"). c #BB812E",
"_. c #AA823A",
"`. c #AC833B",
"'. c #B48235",
"]. c #BB8434",
"[. c #B7873A",
"{. c #BC8B3C",
"}. c #BC933A",
"|. c #C58A37",
" X c #CC8E36",
".X c #C4933C",
"XX c #CA973B",
"oX c #CA943D",
"OX c #9B8249",
"+X c #9B8558",
"@X c #AC8A43",
"#X c #A88549",
"$X c #B78947",
"%X c #BB9248",
"&X c #AA8958",
"*X c #B98C55",
"=X c #AC925A",
"-X c #B79759",
";X c #BDA25A",
":X c #988868",
">X c #A98965",
",X c #AC9668",
"<X c #B89966",
"1X c #B38E71",
"2X c #B89A76",
"3X c #B6A472",
"4X c #C48C47",
"5X c #C79847",
"6X c #CA944E",
"7X c #C59A57",
"8X c #CCA34A",
"9X c #D5A649",
"0X c #D9B24B",
"qX c #C8A358",
"wX c #D4A856",
"eX c #D8B45B",
"rX c #E1B354",
"tX c #C89965",
"yX c #C89E77",
"uX c #C8A666",
"iX c #D3A766",
"pX c #D3AC64",
"aX c #D0AE6E",
"sX c #D5B264",
"dX c #DBB666",
"fX c #D5B26A",
"gX c #DDBB6C",
"hX c #C7A876",
"jX c #CBB276",
"kX c #D7B875",
"lX c #E2BC69",
"zX c #E2BB75",
"xX c #E2C05A",
"cX c #DEC266",
"vX c #DEC377",
"bX c #E4C56A",
"nX c #E5C777",
"mX c #EBD278",
"MX c #A29684",
"NX c #B4AD8A",
"BX c #C6A98F",
"VX c #CEB58A",
"CX c #D9C58A",
"ZX c #D1C497",
"AX c #E6C985",
"SX c #EAD487",
"DX c #E6C896",
"FX c #EAD994",
"GX c #F3E08E",
"HX c #F3E599",
"JX c #D5CDA7",
"KX c #E6DAA8",
"LX c #F2D7B3",
"PX c #F3E6A5",
"IX c #F5E5C1",
/* pixels */
"8 8 8 , + 8 8 8 8 ,   o ; ; , , , , 3 4 o 3 0 3 4 0 0 0 8 q O 3 0 0 8 0 0 0 0 0 + e e w w e 6 6 6 6 e w 7 7 R 5 , 4 8 3 0 o 2 8 ",
"2 , , * * , > ; + r 9 O w e e t e e O   O > > > > O O > , 2 O > 2 , 2 2 , , > 4 2 4 6 6 6 + , 0 4 3 o < r 0 q 4 4 q 4 3 2 O > , ",
"T T T | X...| E w X.| w X.o.o.o.o.O.| o 4 0 0 q [ o.MXZXFXHXHXHXIXPXPXKXNXO.5 o.X.X...X.X.6 q 0 r 0 ,  .] ] y y y y y t y ] ] r ",
"w A T T T T T E e T A e R } E } E E R O 4 X.NXHXmXaXqXvXkXfXqX7X7XuXfXjXVXnXSXPXJX&.|  ...6 8 8 0 4 2 ] 0 r r t y r t r 8 3 2 3 ",
"< + + * < < 1 1 & 5 w < 1 5 6 4 1 1 < MXFXaXtX7Xg.j u $ $ $ $ # # % u a N g.*XiXkXvXPXZX[ , 3 8 8 3 : 4 1 2 , + + , + , 3 4 1 , ",
"| T A A e e A T * 4 } A e w 6 7 T VXgX$X6Xj = C &X!.l.h {.~ j ( iX^.&XV.- @ @ % M @XpXkXGXBX, ; O o w E T R E * e Z e E T T } E ",
"T T E E E } T X.r 5 } A } } | NXkX*XJ.. ) VX/.) k.@ k.h ( # j ! ( a $Xs tX. uXd.&X- $ v.pXfXGXMXq + 6 E Z Z E 5 E E T T T T A T ",
"< < 1 5 6 w w T & * e w 6 %.SX%X/.. V @ Q @ g.#X/.Q % ZXDXCX# VXvXuX` . ! P E.E.W - ~.^ = Z.fXAXPX .* 1 < < 1 O 4 6 6 1 1 5 1 6 ",
"e , O > > , , , * , 3 8 NXtX4Xh hX&X~ $ k W.^.LXAXmX` wX8X5Xs K.5X9X*XP.bXmX;X$ ^.H _ . l # ~ %XuXGXNXT } } A e Z w 6 6 w w w + ",
"..e 0 t r r r 0 r r ] CX7X^.) BXl 2Xk.iXLXhXR.4X,.j +.&X^.V.3.p.v.V.M.l N G.wXb.GXR.M <X` l 1X# Z.pXAXJX} } } } | | E | } E | 7 ",
"A 5 , 8 8 3 3 8 3 8 SX*XQ >X) h @ - 7XlXwXI C >XQ E./.k./ ~ I ,.L ,.p.n./ B z.j '.bXmX  . ~.U.7XR.l pXvXKXw w w e Z w w e e A 5 ",
"t r 0 + O 2 3 8 r SX7Xh DX= *Xg.LXCX# h :X) ,X` !.E.j u M ` C M.s.L z B S.a.p.( 2.! G v.SXV . 1Xk +Xj pXgXKX3 4 o o 6 t 2 4 T y ",
"r r ] > 8 ] ] ] FX6Xj VXE.k.~.LXdXg.~.+.1XR.E.V ~.u.h M U.6X$XU.^.h.L x h.V.j A.H B.P l 8XbX,Xn.MX^ ~ $ pXlXKX .2 0 ]  .] 3 t r ",
"2 , 3 O , 8 3 CXtXl BX. wXR.E.4X- ~.hXR.) Q.` !.E.j E.M L bXaXK.V.x.P.d.3.K.l A.Q c.H ' V.c.%XX u.C 7X-X% fXsXNX2 r 8 q r , 4 3 ",
"O 4 3 3 3 3 ,XtXR.@ /.hXBXzX!.+.) R.>X%.` 2X) 2X` DXzXVXaXN.&XkXaXfXkXu.x G.( x.! S.l U.b.! = AXgX. X J.R.u dXnXO.r 8 r 4 + 2 2 ",
"2 r r r r X.jXtX# $XX *XdX$X#.+.+.V 1X~.Q 1X%./.2X*Xu u lXN./.N.*.n lXS.J.S.d.3.f.G.l #Xi.P M ( wXnX# . 1X#XM wXIX] 8 0 2 2 q 0 ",
"O 2 , 2 8 CXiXh DX!.Y ~.n.#.#.Q.C _ yX>X#.!.>X) ~.tXa u lXp.g.J.*.n gX9.S.=.Y.p.( G.g Z.n.j H H ~ L.. h @ 1X) J.6XKX8 ] ; ; 0 8 ",
"1 4 1 O Q.iX) pX4X/.DX=XW +.%.DX7XBXSX2XLXnX&XLXk.uXi u dXu.g.^.;.n zX,.x.c.A.I '.J.B ~ L.zXQ Q m - DX-Xl.@ R.% wXlX$.: o o , ; ",
"@.O.X...AXyXfXf rXFX0X& V W - v.C ' !.Q.tX#.wXtX% iXa u lXJ.#X/.;.*.dXAXiXP.j.c.P.1.l.! B.Y.5Xx L G S.5XC /.i @ N 7XHX9 r r ] ] ",
"Z A A NXiXQ $X9X^ eXY #.W * R W ) !._ Q.1X~.h X . iXs a dXp.N.$X<.=.lXL.,.*.0.U.G.7.L J.( DXv.j.,.h.n.5X6Xu ~.U.k.6X7XMX] ] ] ] ",
"A R A AXiXdXM lX;Xo OX+X%.+XOXQ.Q.^.@XK.I.K.P.V.s.S.d f x.8.8.A.<.<.5.>.=.A.7X! G.3.,.~ J.4XwXN.J.G.V.~ c.Y @ 7.tXB /.HX4 3 3 3 ",
"5 5 &.iXH ` H.wXcX= R _ ^ %.:X:XR.7X`           # % d x J J ;.<.<.0.0.0.0.0.5.8.yX3.p.,.K /.M z M ! i.K Y.5X@ /.l.M 4X*X&.; 8 q ",
"t r AXdX%Xh.|.AXeX+XOX7 Y V R =X,XhXM.        . $ u d v n B ;.;.<.6.0.q.0.0.0.0.5.<X<.3.7.4X4XA.r.7.7.S.V.4X7XU.R.^.j.^.DX4 | | ",
", 3 zX1XdX6Xi.8Xk ^ ' (.OXOXC.W _ &XuXaXaXAXfX@ % p g s DXkXkXaXwX/.*.q.0.0.0.0.<.A./.A.A.Y.P.l.g.N.l.l.,.G.{.*.x B n U.SX: 5 7 ",
"; $.gX( V.n.<XY I.@X^ Y k ^ OX' Y S R _ @.!.qX% p d c = dXc.N.g.$XN.G.!.0.0.0.5.5.5.H.*./.*XB l.7.<.7.w.J.d.*Xi /.4Xl.4X6XT + : ",
"r hXgX,.|.wXnX;XZ.Q S (.(.C.Y C.@XOX' Q M.SXsXp % f v p sXnXdX$XeX3.u..X,.0.0.0.5.5.A.u.,.|.J.A.l.d.p.u.7.S.4XfXx E.l./.l.MX0 ] ",
"2 CXkXA.D.9XbXQ / _._.' S (.(.^ S ^ OX-XQ ;XsXa p f D a wXW.`.I.h.N.wX4.7X5.q.6.5.0.j.P.S.A.l.u.A.J.J.Y.>.<.|.7Xn *.n *.N.DX4 4 ",
", AXtXH.D.XX|.x.}.z.^ Q _.^ k C.@XB.^ . %X%XnXa d c J d dXn.n.tX*X$XP.s.6X6.q.q.0.6.U.A.fXl.r.Y.Y.*.=.=.~ *.A.4X*.*.*.n /.AX: , ",
"y AX!.7X7XY.^ XX_.S a.[.(./ `._.H ' G 7 % U bXd m c :.g sX$XP.I :.k.5.VX1.q.w.q.9.6.yX0.Y.J.j.j.A.J.<.Y.*.u.l.j.x x x *.4XfX8 r ",
"[ AXN.4X4XlXnX.Xb.c.[.I.m.{.Z.^ %X= ^ = S S cXg g D 1.v sXeX8X8.v.*XiX>.q.q.w.6.0.*XA.Y.|.7XY.A.<./.0.B ^.n N N n x n ^.tX4X8 8 ",
"E zXJ.T.XXlXbX$Xn.'..Xb.`.}.@Xc.= _.Z.W.(.(.bXz v J 1.J Y.5X$X{.'.3.4.w.w.w.w.w.BX9.<.4X6XuXG.Y.j.p.k.0.B B n M j j x l.yX/.6 : ",
"@.AXJ.zXlXrX7X`.F..X$Xb.{.A.l @Xe.c.dXcXeX2.dXD K :.8.8.9.r.e.r.r.r.w.q.w.6.q.9.>.^.~ <XfX/.r.4XJ.p.*.l.d.u.u./.6X6Xu.p.tXN.} q ",
"@.nXY.kX7XoXr.$XG.oX$Xc.c [.H.S (.(.vX3X;Xb.bXD :.1.4.e.r.r.r.r.r.r.r.6.9.w.6.q.6.-.x.#XK.J A.r.;.V.h.j.c.h.g.j.c.v.p.u.tXl. .q ",
"Z zX/.pX$XbXkX{.L.oX}.s.H.G `.OX(.(..X}.}.B.nXJ :.1.8.4.CXqXaXqXqX%Xn.2.w.w.q.5.6.5.5.x.g.K.<.,.x.;.h.7.3.7.,.J.5X6Xx.l.tXl.2 , ",
"E zX/.4XwXrXnX5XY.|.5Xm.e.D.m.n.z.s.cXcXcX2.xXJ 1.4.8.1.wXU.a.z.b.B.K.'.3X4.6.6.5.5.5.-.7X<.J.4.>.,.k./ ~ ~ B ,./ i.>.N.tXN.} } ",
"E zXtX6X X9XbX5X[.D.|.{.8.-X8.z.z.' cX;X;Xz.eXU 4.8.9.1.wX3.#XZ.*X#X-XfXsX-X5.4.4.5.5.5.H.5.<.J.,.$X4X7XpXpXp.3.G.J.h.u.tX/.X.} ",
"Z lXkXwXwX5X{.oX.XG.H.|..X9.@XZ.b.(.XX}.XXm.cX1.4.8.8.8.8X9.0XwX9X8X8X9XwX9.P.5.6.4.4.5.H.A.dX$XlX7XiXY.7XqXd.p.p.u.d.*.J.tXZ q ",
"4 qXzX XeXwXPXG. X%X'.G.].XX$X2.;X2.cXmXbXU 0X1.8.8.8.8.wXI.B.a.b.f B.g M x._.4.-.4.-.-.L.e.x v.i.7X{.6X].kXp.,.,.,.d.u.l.VX4 , ",
"r >XnX XfXkXbX7X].|.oX{.F.D.|.3XU qXF z.m.U 0X1.8.8.1.4.8XZ.I dXdXsX[.:.F fXD -.-.-.-.-.4XF U.N Z.M {.{.{.7Xb v n n ,.R.p.VXr r ",
"2 +.zX4XpXaX9XbXoX|.H.).|.).).XXcX=.3XD F.eXXX-.4.1.-.1.%XcX%XG G =X%XZ.jXc.F -.=.-.-.F dX1.D M.*Xd.i.i.i.u.p.3.u.u.~ yXu.@.2 2 ",
"1 1 dXfX X XH.].|.|.].).G.D.y.).F.}.'.3XvXcXwXF 1.-.F F }.8X8XG K U ;XeXK D F =.=.=.F e.#X@XV.*X^.l.I K I L L G L B l.*Xl.| 4 , ",
"..A 7XzXT. XP.PXsX{.H.D.).|..XeX'.F.'.@Xg f g F -.F F D 2.D F =.F U c c F F F F =.F F sXV.I.K.*XN.f x b s.hX*XN W.J.n l.aXo.} e ",
"1 1 %.lX4XwXzX|.xXD.|.].).G.D.}.}.e.XXU 8.6.1.1.F D D D G D v D b b D D D D D D D 2.vXG I G B.z.g v v _.$X4X@Xl.x d.*Xu.%.w 5 < ",
"3 3 8 $XzX XT.6XxXqX).G.6.t.|.mX2.8.0Xx 8.4.1.F b c z v c c b b b b b b D D D 8.kX.Xc f.f.W.P H z x v / $X5Xg ! u.z /.J.w o , 8 ",
"r 9 8 ,XwXY.h.lXn {.y.D.'.).).0X0Xe.XX;X8X%X_.m.e.P c c b.`.@XU x z qX-XuXvX8Xn.f P z.B.=XZ.P.<Xc.z $X^.W.G a =X$X^.h.ZX.., 2 q ",
"; 2 3 9 4XlXT.D.wXSXbX).'.).}.%X_.}.e.G G U m.}._.uXz g |._.`.(.z f 8X@XG g c c #Xf.z.=X^.#X@X8X! B.Z.aXgX=X6X$Xa U.N.X.T o + 3 ",
"r r q q ,X6X/.7.G.%X0X%X'.F._.0X;X'.'.D t.'.c e.}.qXz z |.P a._.z f 8X.X/ jXAX;X<X-XZ.-X&XW.W.l ( ! <X[.j P.% ^.*Xl.,X2 ; + y q ",
"8 8 8 8 q wX0X5.m.}.0X.Xb e.e.a._.}._.1.U _.F ;XeXqXz f |.a.B.@Xz f eXz.C._.#XM.8XqX<X.X=XgXL.z.( H {.b.M.*X$Xj J.&X0 8 8 2 q 8 ",
"3 4 0 0 8 @.6XfXw.t.sX2.FXc.c.c.b.L.F.U 2.'.c '.G qXg g ).m.(.OXg f eXz.-XP OXZ.W.R.M =XM.P M.( W.hXu &Xl f a 7Xu.&.3 2 , 3 8 3 ",
"r 3 , ; , * ,X8X7X4.J 1.9X8Xz.b.L.`.8.P m.m.G n.g 8Xf f ).G I _.f f qXOX=XW.Z.E.B.W.L =X^ ( ~ W.$X.X( u L a tXv.NX+ 2 q O O 8 e ",
"O.@.X.| o O 4 uX5XP.w.qX=.0X8Xf _._.n.G L.2.s.e.U F.n.'.}.b.z.F.).].'.( P -XI R.B.E.P =XW.` M .X5X&Xb.z.#X/.j.2X1 8 y { r E @.O.",
"} | | O., r t ] 5X9Xv.$X8.'.f bXgXc.U m.L.c F.G m.G c e.(.9X0XF._.m.z.G M.-XP OXz.OXf.^.&XVXfXa s K.Z.z.R.A.!. .4 8 8 r 4 A | } ",
"5 w w } , 3 8 8 4 $X9Xz.2.G z..XXX0XH `.8.z.S.m I m.G m.z.dXdXm.U 2.P G OX=Xm ,XM.=XR.z.pXH.n.a &Xa u.!.A.M.} , ; q 8 t > , w 5 ",
"q q 0 0 8 8 8 8 4 1 L.8XW.Y.5Xs jX9Xn.vXi.I.P m.G m.a.g f G P U G G m ( -XZ.OXW.!.&XjX=X.XG p L.#.I &Xh.R.&...5 ; r 8 r 4 A } E ",
"t r r r r q q r q 3 y $X).aXf :.z.{.qX9X}.9Xu I b.G 2.c.U G G G P z.(.(.( C.&Xl CXH.XXf p I ^.uXs hXh.&X%.A } A 8 q 0 0 q ..E A ",
"; ; ; , 3 2 2 2 , O 3 2 3Xt.wXG z.H.p 9.m c.c 8XXX[.a G 2.2.b.b.B.b.' G NXkX8Xz.H.I I.s uX&XG Q %X>.jX| Z A T w 3 0 8 8 2 w w w ",
"1 4 1 5 + e T A Z Z Z e A :X[.].uXf f }.H.].i z x.XXG 9X.X.X@X@X8XXXeXz..X}.s.p B.H hXf I f hXx.M.VXw } A A E q o o O 5 1 5 1 & ",
"| ..| X.5 T E } E | } } o.w ..6X]..X;Xp a.j a a '.% B.S.z I c ! z./ -X%Xd c [.G 8XP.W.f 3XS.2.VX@.0 t A A A A 6 8 8 , X.| | | } ",
"A A Z A & 5 6 6 w 7 7 A T * e A +.;X1.G.qXL s u %XK l n.-X}.W.@Xz.U d g d G -XG a ( jXG.-.-X,X> ; ; * w Z Z A < , 8 , A E E E E ",
"< 1 4 4 2 4 8 q r q < X < , 3 < 2 & R &X1.9.H.4Xz.a p c D 2._.@X_._.I G p g W.jX|.A.,.hXMXR ] ] w q w e w Z 4 o ; , ; < & & * < ",
"r r r r y ] t ] y { ] > y y y y ] ] ] ] * NX#X:.-.A.G.|.9XwXqX;XuXuXqX$XH.t.e.1.=XZX&.A A } T } } } }  .| } o.5 0 r 0 0 8 o 4 8 ",
"> * ; ; + ; > 3 3 0 , > q 2 3 2 2 , > , O 2 2 6 o.Q.=X^.h.F :.:.1.4.2._.jXJXMX| , w A A A A A A A A Z Z Z Z X.9 4 0 8 8 8 + 0 8 ",
"3 4 8 3 + , , > + , 2 , 3 4 3 3 3 , + X X 2 3 2 , , q q 0 r + 1 q q 4 , > > > > O Z A A A A A A A A Z A A Z X.1 ; , > , ; o 8 0 ",
"r r r 8 2 q 0 r 3 3 r 0 q 0 0 0 0 0 q O O r 0 0 0 3 q 4 q q O 3 0 0 0 0 0 0 0 0 O e A A A A Z A Z Z A A A Z X.4 3 8 8 0 4 O 8 8 "
};
