/* XPM */
static char *coin__3_1684433811[] = {
/* columns rows colors chars-per-pixel */
"64 64 246 2 ",
"   c None",
".  c #0E0905",
"X  c #3A1E0E",
"o  c #241007",
"O  c #382415",
"+  c #3E220F",
"@  c #44220D",
"#  c #4A260B",
"$  c #552B0C",
"%  c #4A2A16",
"&  c #4C331B",
"*  c #57381A",
"=  c #582D0E",
"-  c #6D3B0D",
";  c #67350D",
":  c #723E0C",
">  c #75360C",
",  c #653A13",
"<  c #6C3D13",
"1  c #643A1B",
"2  c #673816",
"3  c #763E13",
"4  c #493927",
"5  c #563A24",
"6  c #7B430C",
"7  c #7E480E",
"8  c #6D441B",
"9  c #6B4219",
"0  c #744414",
"q  c #7A4411",
"w  c #73461A",
"e  c #744A1B",
"r  c #7A4C1C",
"t  c #7B471A",
"y  c #7C511D",
"u  c #5B4528",
"i  c #5B4C35",
"p  c #6A4827",
"a  c #7A4D23",
"s  c #734C27",
"d  c #6E542B",
"f  c #755125",
"g  c #7D5323",
"h  c #74532B",
"j  c #7B542A",
"k  c #715A2D",
"l  c #644C33",
"z  c #6A5636",
"x  c #7B5D3D",
"c  c #795735",
"v  c #7B6639",
"b  c #7A5B43",
"n  c #6E5A49",
"m  c #7D6244",
"M  c #7B6548",
"N  c #803E12",
"B  c #823F0E",
"V  c #844A0E",
"C  c #884B0E",
"Z  c #844D14",
"A  c #8C4C14",
"S  c #834B1B",
"D  c #864A19",
"F  c #924E16",
"G  c #8C5314",
"H  c #85541E",
"J  c #8C541C",
"K  c #8B5A1F",
"L  c #86591F",
"P  c #935413",
"I  c #9C5514",
"U  c #9E5916",
"Y  c #94551C",
"T  c #945B1C",
"R  c #9C5B1A",
"E  c #975816",
"W  c #A15A17",
"Q  c #A05D19",
"!  c #A05615",
"~  c #9A621E",
"^  c #A3631D",
"/  c #A7691F",
"(  c #834F21",
")  c #845323",
"_  c #8B5424",
"`  c #845A24",
"'  c #8B5B23",
"]  c #845C2A",
"[  c #8B5B2B",
"{  c #8B572B",
"}  c #935B24",
"|  c #9A5E25",
" . c #935D2D",
".. c #935724",
"X. c #825D33",
"o. c #895C36",
"O. c #945E34",
"+. c #A35F21",
"@. c #8D642A",
"#. c #8B6229",
"$. c #946425",
"%. c #9C6324",
"&. c #92642B",
"*. c #9A642B",
"=. c #946B2D",
"-. c #9B6A2B",
";. c #9A6A25",
":. c #856334",
">. c #8B6433",
",. c #8D6932",
"<. c #8C6A3C",
"1. c #87663A",
"2. c #926534",
"3. c #946C35",
"4. c #9B6D32",
"5. c #936D3D",
"6. c #9B6C3A",
"7. c #9A6533",
"8. c #9D7434",
"9. c #9C733B",
"0. c #9C7B3B",
"q. c #93723A",
"w. c #89733B",
"e. c #A36B2C",
"r. c #AA6D2B",
"t. c #A36727",
"y. c #A4732E",
"u. c #AC732C",
"i. c #AC792C",
"p. c #B57A2D",
"a. c #B87A2B",
"s. c #A36D32",
"d. c #A46D37",
"f. c #A37334",
"g. c #AB7433",
"h. c #A47B35",
"j. c #AC7B34",
"k. c #A2743B",
"l. c #A57B3C",
"z. c #AB7C3A",
"x. c #AC763B",
"c. c #B47D32",
"v. c #B17538",
"b. c #82664A",
"n. c #896947",
"m. c #956D43",
"M. c #996D43",
"N. c #957142",
"B. c #9A7441",
"V. c #9B7B43",
"C. c #9C7B4B",
"Z. c #957748",
"A. c #8B7352",
"S. c #8C7953",
"D. c #957756",
"F. c #897247",
"G. c #A47342",
"H. c #A37B44",
"J. c #AA7C44",
"K. c #AC7C4B",
"L. c #A37B4B",
"P. c #B17B49",
"I. c #AC7E53",
"U. c #9C7F60",
"Y. c #AC833B",
"T. c #AC8136",
"R. c #B48236",
"E. c #BB8434",
"W. c #B2843C",
"Q. c #BA853A",
"!. c #BC8C3E",
"~. c #B88B39",
"^. c #B98936",
"/. c #C38A38",
"(. c #C5933C",
"). c #9F814A",
"_. c #9A8156",
"`. c #AC8344",
"'. c #AB844B",
"]. c #AD8A4C",
"[. c #A58347",
"{. c #B38644",
"}. c #B38A43",
"|. c #BB8C42",
" X c #B38B4C",
".X c #BB8A48",
"XX c #BC9345",
"oX c #B3924B",
"OX c #BA924C",
"+X c #BF9A4D",
"@X c #A68353",
"#X c #A98855",
"$X c #B48C55",
"%X c #BB8D54",
"&X c #B48758",
"*X c #BB9453",
"=X c #BC9C5C",
"-X c #B99758",
";X c #AF945D",
":X c #9D8063",
">X c #A88764",
",X c #B99864",
"<X c #B29570",
"1X c #BEA379",
"2X c #BAA154",
"3X c #C49A44",
"4X c #C2934C",
"5X c #C49C4C",
"6X c #C99945",
"7X c #C49652",
"8X c #C39C54",
"9X c #CC9D54",
"0X c #C39C5C",
"qX c #C6995B",
"wX c #C69450",
"eX c #CAA34C",
"rX c #D5A44C",
"tX c #CBA45B",
"yX c #C7A355",
"uX c #D4A454",
"iX c #D4AC5C",
"pX c #D2A757",
"aX c #D8B35D",
"sX c #C49B62",
"dX c #CBA463",
"fX c #CBAB66",
"gX c #C8A769",
"hX c #D1AB6C",
"jX c #D4AD64",
"kX c #DAB668",
"lX c #CAAA73",
"zX c #D3B372",
"xX c #DAB976",
"cX c #CDB276",
"vX c #E0B761",
"bX c #DDC279",
"nX c #E4C87C",
"mX c #D3B684",
"MX c #DDC792",
"NX c #E3CA8B",
"BX c #E9D28A",
"VX c #ECD996",
"CX c #F0DD94",
"ZX c #F4E798",
"AX c #F5E8AB",
"SX c #F6EDBA",
/* pixels */
"                                                                                                                                ",
"                                                                                                                                ",
"                                                          AXZXZXAXAXSX                                                          ",
"                                                    AXBXhXhXhX0X0XgXhXxXCXSX                                                    ",
"                                                  NXsXJ.1 @ @ + @ # 2 { -XzXVX                                                  ",
"                                              VXdXG.5 x M.p [ 5 L.H.c X @ h qXNXAX                                              ",
"                                            BX%Xp b @Xc * p 1 * h ] X.l B.c * '.bXAX                                            ",
"                                          VXqX5 O % d L.p U.mXb zXZ.* j n.l z u G.NXAX                                          ",
"                                          qXn.I.5 l @XNX=X$X3X) |.4X{.bX1.c p O * L.bX                                          ",
"                                        gXm.D.m.&XmX@X6.s m.k._ &.2.8 e.`.=Xv 1.c d $XBX                                        ",
"                                      xXM.b.& 4 8XXXc b.n.o.j a t H ' y a }.2XO n.@Xv dXZX                                      ",
"                                      &XD.b >XlX5 b.A.b.o.= p h [ 9 D } ` g f #Xl c x 1.xX                                      ",
"                                    zXn.I.M.mXP.b.D.b b s 1 P.{.k.) S ' r ` f 8.yXC.n.1 @XBX                                    ",
"                                  BXC.M n.D.5.b.U.M b.A.h j `.tXk.e...[ ( ` f ,.4.p l L.:.hX                                    ",
"                                  lXl m.lX,Xn b.D.b.A.D.lXcX$X$XgXgX[ } [ [ g 3.9 ;Xv & X.B.nX                                  ",
"                                  &Xs s dXD.n l U.n.D.>XM.1  XB.F x.x.*.`  .` &.p #.yXO b 5.zX                                  ",
"                                xXB.>Xm N.M M b >XA.D.D.m.1 {. .F f.g.} *.&.) &.8 8 ] % 5 n.J.BX                                ",
"                                ,X'.*XlXM n 1X1XmXMXlX<Xm.1 H.2.Y x.s.%.} e.( 3.].p 1 <XX.5 j kX                                ",
"                                hX6.kX#X4 4 d c D.#X&X<.o.1 OXH.Y x.kXz.$.*._ [ W.` 3 f.o.p % %X                                ",
"                              xXM..XL.1.i 4 l M n.:Xl O o.1 z.d.| v.x.A r.e.( 2.,X} J v.d.b M..XxX                              ",
"                              xX].oXM z A.S.A.Z.l.8.4.[ a ; T R I F A *.d.| (  ..Xl.e.&.[ & { 7.cX                              ",
"                              @X:.eX).i n S._.@X4 . . o @ ; V A F I ! ! +.J.H ( 2.< a ( f.) O.{ %X                              ",
"                            BXqXe.iX2Xv u i _.<X5 . . o @ ; q F I ! W ! I s.*.T Q.s.Y ..v..XG.M.G.NX                            ",
"                            zXsX|.l.d v ).w.i S.sXlX;XX # 1 cXhXqX7.! ! I W d.r.g.7. . ...v.N 3 *.nX                            ",
"                            zX6.H.F.0.k u v v u z M ].+ $ 9 ].6.x.s.d.I ! I Q e.G._ F Y t.6.X.G.v.dX                            ",
"                            kXr.pXyXv d ).k v ).k ).2X& $ 9 jXtXXX} s.I ! I +._ v.t. ._ ..v.J. .d.&X                            ",
"                            zXu.rX0.=.0.k w.k k ).q.2X$ = e  XY.4.{.v.t.! I +.d.7...t.r.Y r.v.> N &X                            ",
"                            dXc./.i.q.f ,.d ,.q.* 0.2X* ; e {.h.$Xl.f.r.! ! e.{.s.v.| D D | r.B 3 wX                            ",
"                            ,XwXz.T.=.#.0.=.=.k * * Y., 0 y *X4.H 7.{.U W ! P.u.e.| t.| _ _ S > N 4X                            ",
"                            %X|.aX8X-.j.0.T.,.f * * [.9 6 y pX|.*.&Xt.Q W s.x.Q.4Xt.+..._ 3 3 > { wX                            ",
"                            %X(.aX+Xg.W.h.W.g :.).).Y.9 7 G ~.!.c.T R ! ^ I.t.4X4Xg..._ S 3 < 2 _ &X                            ",
"                            7XjXaX~.R.Y.j.' =.8.aX2XY.y Z E ~ ^ ^ R W W U } 2.qXP.v.| J { _ J.P.{ &X                            ",
"                            9XdX/.j.^.T.g y.k ).fXoXoXZ G R ^ ^ / ^ Q ! R E $.x...R } | } } | 7.{ P.                            ",
"                            9XwXkX5XE.R.;.@.Y.T.!.~.OXK G -.fXyX7Xz.T Q ! U E *.| Y Y Y Y H f.|.7.P.                            ",
"                            qXwXvXyXE.E./ y.=.8.bX3XW.J P ~ }.=.=.h. Xs.I I I r.t...D [ j S ( ` O.I.                            ",
"                            dXwXrXrXE.E.y.h.#.q.fXoX}.T E ~ T.[.`.].fXoXE F I t.W $.d.4XdXG...e...I.                            ",
"                            xXuX9X6XE.a.E.i.q.0.3X~.XX~ E ;.^.3XeXeXeXj.+.P P ^ c.8XtX4X7XG._ _ _ P.                            ",
"                            vXuXkXyX/.E.E.^.f.T.aX2XT.K E ;.~.=.#.g 0 $.%.G A ^ T ' l.4XwXJ.S S _ K.                            ",
"                            kXuXkXuX/./.R.p.[.T.@.;.T.~ P ~ T.8.iXXXJ l.G C C t.*.` ) j./.-.: 3 { &X                            ",
"                            kX9XjXiX3Xa.E.E.eXY.=.T.3XG G T eX).y ]. Xk.V C V i.} >.M._ ` ) ( ( M.G.                            ",
"                            kXuX/././.E.a.u.a.E.oXfXeXG V G !.T.0 ).}.6 V V V f.H.[.6.r t a w t M.G.                            ",
"                            jXuX/.hX9Xa.a./.6Xi.T.e 9 7 7 7 7 7 7 0 0 6 6 6 K {.8.J.a - &.$X{  . .dX                            ",
"                              tXtXuX6X/.R.i.^.T.;.G G 7 0 6 ; 6 : : 6 6 6 Z `.g ` ] ; t {.}.) { d.                              ",
"                              uX6X(.rXE./ p.eX/ T.P G 6 9 ; 0 - : : 0 6 K *X' ] >.e ; q z.@.s ( G.                              ",
"                              kXc.~.y.a.a.R.eXE.!.XXT.;.0 0 8.8.- =.+XgXj.0 ] V.B.'.) l.9.9 H.d.-X                              ",
"                                uXp.jXaXE.E.!.T.L g 8.T.T.0 T.Y.0 =.l.9 8 q.,.[.'.Y.] ].gX$X3.2.                                ",
"                                9Xe.R.eXT.i.eX~.;.;.L j.T.9 ;.@.e =.T.;XfX=X@X;X[.j j `.] f 5.K.                                ",
"                                pXg.c.6X;.~ =.~.;.K $.2XY.- ;.=.e =.0.H.0.XX+XoX-X>.j f.3.H.{ L.                                ",
"                                  9Xu.}.-X4.$.h.$.$.L $.8.0 ;.0.e =.).<.B.Z.:.N.g >.@Xc s 1 6.                                  ",
"                                  iXg.A ^.~.=.h.K ;.L L @.0 $.#.e @.].).q.<.:.m.j q.|.f , >.&X                                  ",
"                                  iX!.g.f.(.$.j.L $.K #.;.i.T.=.T.T.#.B.:.q.1.C.j f. X>.B.6.,X                                  ",
"                                    6Xx.y.@.+X`.@.$.H K e #.~.XXy.$.f 0.1.m.q.@X1Xf g 4.2.M.                                    ",
"                                      |.' L XXXX=.;.@.r L L }.yXK y f ).w.C.Z.`.c.f h ] 6.C.                                    ",
"                                      ~.Y.j.>.5XOX8.' ` $.9 , y e 9 :.).Z.).,X X0 #.X.M.B.                                      ",
"                                        |.9.t T.3X(.g ` y H r 0 f ,.q.q.<.$Xj., ) H.<.H.                                        ",
"                                        dXQ.&.$.r H H !.=.0 L @.=.@.w.cXl.-.#.1.m.X.x.,X                                        ",
"                                          9X|.` L c.0 H y.j.^.Y.XX3Xl.~.r g N.e o.x.,X                                          ",
"                                            6XXX>.e # r w $.r e g 0.q.w @.T.3.<.d.,X                                            ",
"                                              4Xr.h.= g f #.}.[.=.9 = e ,.8 @X-.,X                                              ",
"                                                  | u.8.$ ; ` Y.}.=.- , #XW.4.cX                                                ",
"                                                    %XJ %.E.5X8X=X8XW.e.%.,X                                                    ",
"                                                        fXK._ A P ..].VX                                                        ",
"                                                                                                                                ",
"                                                                                                                                "
};
