/* XPM */
static char *stone_brick_floor_dark_color_castle_studio_ghibli_style_hand_drawn_oil_painting_watercolor_333975193_copy1684529080[] = {
/* columns rows colors chars-per-pixel */
"64 64 73 1 ",
"  c #0E0D0C",
". c #100F0E",
"X c #11100F",
"o c #0F0F10",
"O c #151413",
"+ c #181715",
"@ c #1A1817",
"# c #171718",
"$ c #181719",
"% c #1D1B1B",
"& c #211E1D",
"* c #23211F",
"= c #1E1E21",
"- c #201F21",
"; c #242323",
": c #292624",
"> c #2B2926",
", c #262629",
"< c #282729",
"1 c #27282B",
"2 c #2B2B2C",
"3 c #312E2C",
"4 c #34312E",
"5 c #39342F",
"6 c #2D2E32",
"7 c #302F31",
"8 c #2F3034",
"9 c #333334",
"0 c #393632",
"q c #3C3935",
"w c #343539",
"e c #383739",
"r c #37383C",
"t c #3B3B3B",
"y c #423D37",
"u c #423E3A",
"i c #45413C",
"p c #49443E",
"a c #3C3D41",
"s c #403F40",
"d c #3F4043",
"f c #434343",
"g c #4B4641",
"h c #4E4943",
"j c #434549",
"k c #4C4B4C",
"l c #514C45",
"z c #544E49",
"x c #56514A",
"c c #5A554D",
"v c #535353",
"b c #5D5953",
"n c #5D5C5C",
"m c #60594F",
"M c #625C53",
"N c #656055",
"B c #61605E",
"V c #6C6458",
"C c #5F6060",
"Z c #636363",
"A c #676867",
"S c #686867",
"D c #6C6C6B",
"F c #70706F",
"G c #747474",
"H c #777778",
"J c #7D7D7D",
"K c #80807F",
"L c #838383",
"P c #878888",
"I c #8C8D8D",
"U c #8F9090",
"Y c #919293",
/* pixels */
"626;%6666; o===;;;11o,22188888#2w8688888$qy00094350050y>;6666O,6",
",,;;&;-=%w3+0qttq0$ #;-==$%---#-,-;,,--2:3444%;62,X<99e22721,@-;",
"iiiglhhpezh0xccxcchO1w868,,8668266616=,cllllx48999,kaarrarrrraaw",
"0uiiipppqii0pppgppp+2w88w1,8898228889%qxlllll468822r8wwtrwrw6111",
":%%*::>>&35:>343>>&X%;;--#@;%-;;,===-o;qe30q4=616,%22<*&&*%*1>2;",
"hiyuqqup*>gi0045uui>;04424q0q3:%$=;112-%oO$OX#$=% 0piip*qyqipigp",
"ippppgpz03puppppiup>0gppppppppp*=w8ww8ww=6w9www8w=4iiip3ifpiyiuu",
"::>3400u**y5555555y@:3323>:*:<>%%;;-=;;-#;,===-11$;<**>+443>3324",
"y-#----,&,1617-,22886861262,&2,%%161166616166e-;upgghuytq045500%",
"lt7arwww9ww78w2wwwwrwwrwwww1,w:*%,816868w87w7a20huuuhggghhplgpl4",
"u3-66221161661-121,,,;;-&=,%%,&:<%1-;666661116O-y50y00900y000qy3",
"e77%$,117996-w9wrr=;ae99r%#%#@&34%%$%=;;;;;,,>7w03;X->,=O@3r:6sq",
"aaa-6aeaaeee;rwwwr1wa888j6w1#+%:*%#@,trraafsjjjssss=daad;8ass1rw",
"---=,611,161#=-==;%88886w,8:-@+%%+&&,8686666666668,6a66a,a8ww;61",
"=111,116,-+:37eq90%888888,8;;6OOX%2%;26;%,;,,,,,-,$w8888=w6w6$,;",
"-wwww886w6:pppugix918688w;8-;w%O+29*,99,,w6688688w,888w11866,,w6",
"=--1778896,iuiupyp018666w,8-;w%@%,,%,69,-86868868w6869w1666w=-w6",
"<2>$o$===%O:**::>>&,6611,$,&-,X@%:<%@O$$%-=%##=-,--1,66$,11;o#;;",
"MbxzpO<uufhguO;236797-seq00&,ii&:xh:*:ccbbclh,;66-6,,6161;%9wwra",
"uuuum:&szxhhz;;6wwww7:lgxx0*>hi%*i0**2giighhx52w6=7669w96%1jaaaa",
"uiuug-+5uyiui$$*%%=%$O0000<**y0&*iq*;:piiuy0q%-,-$;%;1;1;+$11611",
"72364&+;4734<:@*90q0e3>$,2*%&**@&22@&%::>222%%4q3+5pghi@;$;99%30",
"erww6&&&88ww92@*ugppgpl>2;$&::&&%*2;%$%1wwwr,hVm3+5MMMN<;%&7a>gl",
";=%=&&&+,6661*&%4yypuui1,%$-;%&**%%&%+$=,;,1$*pg&&*pipi;$&&;7-37",
"==;1&&*&&1276&*%;222222&,@&<***&&&&*2&@3yuqq02:@&&%;111%@*&&7%$-",
"w7w6&*:&&0w7>%;%;9698w6,,%*:$*,%%:%%3*%0bMMVNMc*&;%:6w6%%:&&>-9w",
"611=@::&$%==@&3*%%,,;=O+&**%O2tO@0,O****0004424%&>&%%%+OO*>&%%61",
";,-+&5>&+-y$@*53$&;hzgu***&@Ovi@+qv+%***-O0w2%@%:5;$$;-O+>5:%$-,",
"w6$+&33&O+0%+&3*@@*yiu:%*&*%:G0O@2G3****&&tw9;@@&5:+%6%O+>5>%+2w",
"61;%%*:&%3y>@$*&@&5y4;&&&&*+fH<&&*Hv@*&*&&;>61$%&*&+2rw,+::&%$12",
"====X.OO$::;+XXO+45<***:*@+@SS;23&CH&+%*:&**;1$+OOO&kkfk%O++,O%-",
"6666OOO$9wr9+O+X%:**:***&;t>Jn%04%gPt33**;:::;&+.OO&vktj:OO$1#2w",
"193*O@+%6892O4t%**::***2:vG0Kk@84OeKkkG*&*;;:::*%q3Ofkdt;%%%:%86",
"%;=O+%%+=:11&Cf%%%@%*@2DdnG9Kk%99%eLkvLen4%&%%%&%sCOtd91@%%@@X=*",
"0;OO*:*%=6tv:6%O@@++@>qKdnH9Kd=49%ePkvKeGC%@@O+OO%2:nff2%:*%%*;f",
"f0XX&:*%=:1Jf%&f43k:dCtLfnGqKk@34@ePkvK4GC9b:qf:f*@fG:q:%::@OXqp",
"qt@X%*&%%XfPtk9GvfK9AAtLinH9Kd:49*tPkvJ9GCrLtnDqH9f9JtX%%:*%O&00",
"33%O@%%%@@GC9F9GbfK9AAtLfnG9Lk@49OqPkkJ9GC9LfnD9GtZ9nnX@@&%OO;2;",
"8r;O@*%@XOvtkK9GnfLtDAtPfCH0Kd%49*tIkvKeGA9PfCDrJ0Dv90XX@%%O@899",
"11#O@;;%@OO@tn1vt9n3vd3n0fv1v9%39@3Cetb2bd3C9fk3v2dfXO@@%*&@O=11",
"11>%+**@  %:;t;t8;t*09;t:9t;s:O34@;s43d:t01f>9t:d;r:&O O@&%@%y3*",
"pup%%;*XO9DC9F4GntJ9AAtKtnD4Kf%64+9KdkJ9FC0JtCD9F0AtvCrO@*%@*xpq",
"31>O@*%@fPUCtF4GndK9AAtJsCF4Kd%49&qLkkJwFZrJtCD9G9AtCUP4@**@%03:",
"121%@*%XvUUA9F9GntK0AAtJtCF9Lg+44%9LkkJ0GZtKsCDqG9DtCIPfX%*O%O:3",
"883&%*%OCUUA9G9GntK9DAtKsCDqPd&94@0LkkJ9FAtJdCDtG9DtCIPbO*;+>&18",
";;1%@*@OAUIC0G9GndKtDAtKtnD9LfO39%rLkkJrFZwKtCAwHqDdCIIZO&%O:%%1",
"ww3O@*%ODUUZ9G4GntK9DAtJfnF9Kf&44O0LkkK0GZtJsCAqH9DsCIUAO&;+#%r9",
"66*@&:&OtPUZtG8GnfK0DAtKtCF9Kh@69%0LkkJ9GZ0JsCFtG9DsCUKyO%;%@=88",
"1;O@@@@OXtKC0G9GnsJqAAtKiCD9Lf%39@wLkkJ0GZ9KsCDqH9DdCH0OOO@OOO21",
"w;X  XXO@;AZ0G9HnsK9DAtKsCDqLf&44%0LdkJrGZeKsCDtGqDtCv&@O   XO>t",
"bNt;XXXvKKICtG9GnsK9FAsLtCFqLgO24#0PkvJ9GZeKsBDtG9DsCPJGf XO=4Nb",
"ppxp@*@fUIIC9G4HCsKtAAtLsCF9Pd%49@tLkvKrGZeKyCDtH9DsCIIIs&*O1ppp",
"40t0O:&3PIIAtG4GbsK9DAtLsCF9Ld%63#rPkvK0GZqKsnDeGqFsCUIK:&;O=;53",
"w98;O:&*HIUB9H4HnsKtDAtKsCFqPdO34OqPkkJwFZtKyCDtG9DtCUUA@*:O*upp",
"rww%O:*OAUUCtH9GnsK9DAtKfCF9Pg%99%tPkvKqGZtKsCDtG9FsBIUvO*>O*ppi",
"%==#@:*XdUUA9H9HnfKtDDtLsCFqLg@44OtPkkJ9GZtKsCDeG9DsBUItO*>@%500",
"33:O@:*O9IUArH9HndKtDAqKfCF9Pf@49+tPkvJ9GBtLiCDeG9DsBUK*@*:@O>>*",
"pp5O@@*O%HYAtH9HnfL9FAtPfCF9Lf%94%tIkvKqGAtKfCDeH9DsBYAO@**@O5pp",
"ii*X@**@XnYA3v>vi4C>vk:n4fv>C4O49@1C9tC2vj>C4fk>v:k4BUiX@*:&X>pp",
"*:@O%>>@X&bk%:&>:&>@::%>%2:&3&%94%&3**3%>:*3%::&2*:%khOO@>>*O+>>",
"06OO%3>%OoO@&t%q1;t%r4&t&44&t;@49%*d;;t%3>=t&33*q*7&OOX+@>3*@X>3",
";%XO*>>%OO=%*1*1;;2**;*1*11*11;99;;2::2::>>3<3>:3:>:3:XO@>3:@X;4",
"1@XO*3:@Oo%1111111=oO111;;888w#==;;==%%;Oquuuuyuuuyyi&OO@3>>@X%8",
"6X X@&&OO @8889988w@@9888;8889#198898889%5iyuuuyyysy5XXXO*:*XXO2"
};
