/* XPM */
static char *door__1_1684433819[] = {
/* columns rows colors chars-per-pixel */
"64 64 248 2 ",
"   c None",
".  c #020302",
"X  c #080C09",
"o  c #160B05",
"O  c #0C1510",
"+  c #121716",
"@  c #10100D",
"#  c #241309",
"$  c #2B140A",
"%  c #2A170B",
"&  c #33180A",
"*  c #261A16",
"=  c #230F08",
"-  c #1B231F",
";  c #3B220E",
":  c #322B0E",
">  c #2B231E",
",  c #3D2411",
"<  c #3D2A15",
"1  c #35261B",
"2  c #3E3A19",
"3  c #1F1E24",
"4  c #1C2623",
"5  c #103235",
"6  c #262A27",
"7  c #372A25",
"8  c #2A322E",
"9  c #3C322D",
"0  c #39332B",
"q  c #342E32",
"w  c #2B3837",
"e  c #393837",
"r  c #221F24",
"t  c #42240F",
"y  c #40280F",
"u  c #442C13",
"i  c #492D13",
"p  c #452915",
"a  c #4C3215",
"s  c #4B341A",
"d  c #4E391C",
"f  c #463218",
"g  c #513416",
"h  c #51361A",
"j  c #533B1C",
"k  c #593D1C",
"l  c #563A17",
"z  c #433106",
"x  c #4E3C23",
"c  c #43342B",
"v  c #49392A",
"b  c #533D22",
"n  c #5B3E24",
"m  c #533E2D",
"M  c #443C3A",
"N  c #493A34",
"B  c #533F31",
"V  c #1B4905",
"C  c #2A5012",
"Z  c #306A13",
"A  c #3C413C",
"S  c #334F20",
"D  c #3A6D2C",
"F  c #59401E",
"G  c #43411D",
"H  c #695117",
"J  c #564224",
"K  c #5C4324",
"L  c #55432A",
"P  c #5C452A",
"I  c #5D492C",
"U  c #5B4B28",
"Y  c #4B423C",
"T  c #47413B",
"R  c #5C4B34",
"E  c #5C4C3B",
"W  c #574737",
"Q  c #504F2F",
"!  c #614525",
"~  c #624926",
"^  c #614529",
"/  c #644B2B",
"(  c #6A4E2C",
")  c #684C26",
"_  c #6B522D",
"`  c #65542A",
"'  c #73562D",
"]  c #644D32",
"[  c #684F34",
"{  c #665133",
"}  c #6B5333",
"|  c #65533D",
" . c #6B563B",
".. c #6D5A3C",
"X. c #6D5A36",
"o. c #735935",
"O. c #735C3B",
"+. c #7A5E3B",
"@. c #725735",
"#. c #47783E",
"$. c #4F7738",
"%. c #77603D",
"&. c #7B623C",
"*. c #736F3F",
"=. c #706836",
"-. c #383944",
";. c #2B3944",
":. c #423D41",
">. c #17474B",
",. c #14555B",
"<. c #3B4148",
"1. c #374B58",
"2. c #1F6369",
"3. c #2A6F75",
"4. c #444543",
"5. c #4A4543",
"6. c #4C4B4B",
"7. c #464848",
"8. c #514C4B",
"9. c #564B45",
"0. c #5A534C",
"q. c #575247",
"w. c #4B4E52",
"e. c #474F59",
"r. c #534F53",
"t. c #4E5658",
"y. c #545454",
"u. c #5C5654",
"i. c #5C5C5D",
"p. c #575758",
"a. c #4E5646",
"s. c #6D5B44",
"d. c #6C5C4C",
"f. c #675544",
"g. c #725D43",
"h. c #735E47",
"j. c #665C56",
"k. c #725F50",
"l. c #566F44",
"z. c #756244",
"x. c #7A6444",
"c. c #74624B",
"v. c #7A654B",
"b. c #7C6A4C",
"n. c #7B6945",
"m. c #6D6253",
"M. c #6C645C",
"N. c #64615A",
"B. c #756454",
"V. c #7D6B53",
"C. c #7B6B5B",
"Z. c #756759",
"A. c #756F4B",
"S. c #575B64",
"D. c #505A6C",
"F. c #5C6165",
"G. c #576A7B",
"H. c #646463",
"J. c #63646B",
"K. c #696667",
"L. c #776A64",
"P. c #7B7369",
"I. c #6C6C72",
"U. c #656778",
"Y. c #6C7377",
"T. c #76777B",
"R. c #746D77",
"E. c #877235",
"W. c #836D4D",
"Q. c #826946",
"!. c #826E53",
"~. c #826F5A",
"^. c #847255",
"/. c #84745C",
"(. c #8B765B",
"). c #8A785A",
"_. c #8A7850",
"`. c #837364",
"'. c #8C7C64",
"]. c #83746B",
"[. c #837A6C",
"{. c #8C7B6B",
"}. c #877864",
"|. c #937E63",
" X c #887C74",
".X c #816F62",
"XX c #4A893B",
"oX c #509231",
"OX c #5EA229",
"+X c #54934B",
"@X c #5C9355",
"#X c #54884C",
"$X c #669351",
"%X c #61A747",
"&X c #70AD6B",
"*X c #619E5D",
"=X c #7DC660",
"-X c #978647",
";X c #908C55",
":X c #A59558",
">X c #8D836C",
",X c #8E8B60",
"<X c #95846B",
"1X c #888376",
"2X c #938374",
"3X c #93857A",
"4X c #998B79",
"5X c #9D9378",
"6X c #9E9A60",
"7X c #A39579",
"8X c #A29C63",
"9X c #B2AB6C",
"0X c #8FCC6A",
"qX c #337A81",
"wX c #507882",
"eX c #7C7C82",
"rX c #777C89",
"tX c #6D7889",
"yX c #807E86",
"uX c #7A828A",
"iX c #778A97",
"pX c #40848A",
"aX c #8B8589",
"sX c #9B8C81",
"dX c #968B84",
"fX c #9C9389",
"gX c #868B96",
"hX c #88969D",
"jX c #93969B",
"kX c #A49487",
"lX c #A59A93",
"zX c #B19B96",
"xX c #8CAE8F",
"cX c #A8A495",
"vX c #B3AE89",
"bX c #8D95A3",
"nX c #95ADB4",
"mX c #A6A6A5",
"MX c #B2B8B6",
"NX c #C3BD9E",
"BX c #A1D38E",
"VX c #DAD6A6",
"CX c #CAC8B7",
"ZX c #D7D2A8",
"AX c #9CB8C2",
"SX c #BCC2C3",
"DX c #D1D3CE",
"FX c #ECE9D3",
/* pixels */
"                                                                                                                                ",
"                                                                                                                                ",
"                                                                                                                                ",
"                                                                  u.p.p.e.M.i.u.                                                ",
"                                                          6.e.w.1.I.Y F.;.-.K.uXq uXi.H.D.                                      ",
"                                                      7 y.6.t.7.K.H.p.y.T <.H.uXI.tXi.I.r.P.I.                                  ",
"                                                  6 T 8.4.e t.9.N.< 1 7 6.t.G.F.U.I.Y.tXiXj.yXG.R.                              ",
"                                                T i.T t.S.G.Y 1 j.3X2X4X7X>X4XkXlXjXJ.3 L.J.yXi.Y.j.uX                          ",
"                                            9 Y E 7 T F.4.0.L.Q.V.^.^.<X<XV.).kX4XlXlXZ.B.1 u.yXU.S.5.f.                        ",
"                                          c Y 7 1 y.p.u.2X4X|.|.'.b.V./.}.c.'.2X|.3XlX].sX7XR.j.T.bXI.D.yX                      ",
"                                        9 Y v r.7.t.dXfX).>Xk.'.g.k.z./.`.c.V.}.`.`.3X].{.4X3XsXM q.I.Y.N p.                    ",
"                                      * 8 5.M w.i.fXfX{.Q.b.g.h.{ ^ d.z.z.z.[.V.z.V.C.P.kXkXsXsXlXD.6.J.S.T.tX                  ",
"                                    7 e 7.> 7.c (.7X4Xc. .(.W.h.x.B.[ V.s.k.}.C.z...h.M.kXsXsX XfXzXtX;.nXtX8.rX                ",
"                                    T e 9 -.J.O.(.7X'.h.g.|.!.Q.v.R (  .| c./.n.V.X. .k.2XsX X4XdXyX4XU.K.bXyXJ.AX              ",
"                                  5.<.9 :.M Q.E.(.<X|. .m (.!.Q.g.^ s.[ { s.C.z.n./ @.~. X XfX XkX XlXmXU.M.S.bXeX              ",
"                                  r.7 5.:.] !.W.{.{.|.v.s !.W.Q.h.^ | g.g.v.^.z.x.{ @.C.2X4XdX XsX4XlXzXmX-.yXbXr.U.            ",
"                                7 i.T 7.0.<X_.^.'.'.(.Q.^ ~.!.h.!.B ] h.h.Q.!.Q.[ B n .X X{.].].]. XkXzXfXcXE bXiXu.            ",
"                                y.9 9 S.^.&.W.b.}.!.(.W.O.(.!.Q.!.P [ v.v.k.~.h.n ^ n Q.{..X X].]. XsXkX XfX-.e.rXrXL.          ",
"                                0.0.q.6.Q.+.^.v.!.'.'.!.W.~.Q.Q.W. .@.v.k.Q.!.g.^ n n h.{..Xk.]..X.XsXkX XP.mXk.eXyXH.          ",
"                              c 9.9.r...' %.b.g.c. .v.z. .h.h.g.!.Q.g.h.v.v.~.@.^ n n f..X X~.]..XZ. XsX3XP.dXN gXI.yX          ",
"                              3 e a.T.Q.E.%.!.O.c.s.z.z.v. .s.+.Q.W.@.g.Q.h.!.@.[ n n Q.V.{.k.B..X.Xk.Z. XL.dXe 7.-.8.J.        ",
"                              m W 1.F.n.o.z.c.{ | s.s.[ P ^ | ..h.g.@.g.g.k.!.g.Q.^ ^ h.`.C.].d.k.L.L.]..Xk. X].J.gXR.J.        ",
"                              N 9 -.J.}.V.>X>Xc.g.B.| P J ^ h.g.h.g.@.O.g.Q.Q.Q.' ! ( f.{.B.^ d.k.C.f.k.C.j. X}.j.e.yXR.        ",
"                              9.r.p.i./.).).>X}.C.C.b.] I { V. .h.+.[ g.h.f.Q.Q.' Q.^ f.}.{.B.f.k.B.k.M.Z.f.L.'.9 J.9.N         ",
"                              S.S.,XDXDXvXcX<X}.,XP.!...{ ..V.[ h.Q.^ h.g.+.W.O.O./ ^ [ `./.B.h.s.d.d.d.m.f.V.P.N yXyX].        ",
"                              q.M.' CXNX-XE.-X=.-X=.).z.O.z.).X.O.+.^ h.@.g.b.g.@.n n ] ~.b.v. .s.c.f.m.Z.E s./.& eXjXyX        ",
"                              j.A.' NXNX-X-X:XG H 2 (.%...O.^. .g.+./ +.} O.z. .] n P O.V.v.B.s.c.s.d.f.d.f.f.^.c bXK.M.        ",
"                              9.a.b.DX8X&.H =.^.2 '.W.O.} O.Q.{ g.^ ( h.@.X.g. .( n { z.V.h. .] g.f.s.f.d.W f.c.1.:.q eX        ",
"                              L.P.K.tX@.^.W.!.^.'.>Xz.` U ( s.O.s.s.{ b.g. .g. .} ~ O.| h.h.m x s.s...f.f.v R s.j.8.5.H.        ",
"                              L.N.E w.E.O.K s b./.}. .P J b { P P g./ O.O.{ g.} } ( v.] h.s.E s ] s.d.E | W W E j.j.j.K.        ",
"                              f.f.T.y.o.j a a V.V.n.{ j ; s P j K R L ]  .[ %.O.X.X.v.B g.} , b W R W W E W W W N yXj.R.        ",
"                              9.>.F.e o.I / P b.b.n.K d a s b J K J | P { { z.z.O._ g.^ Q.@.J V.z...| W N v c c 5.yXR.gX        ",
"                              e ,.AXY ` _ z.} x.W.W./ P s m ~ ~ ~ U U ^ O.] | x.o.l ( [ +.O.+.!.v.s.k.d.L 0 7 Q 7 5.N S.        ",
"                              q >.3.t.) { z.X.b.x.Q.[ P f s _ ! k U d  .s.L K n.} i l ( E.g.W.^.v.].1X[.Z.m.7 z.Y i.J.tX        ",
"                              8 >.2.nXX.z.z._ x.x.+.] m m d ` J a J } ..z.R J %./ t ! ( @.Q.Q.W.P.X.vXCXVX5XM s.7 q r 5.        ",
"                              8 5 ,.3.q...U ~ n.O.~ s d $ f / K i a } { g.L b %.k i / ) @.g.Q.Q.A.9XQ : X.VXY f.7 8.5.J.        ",
"                              4 w G.1.3.Q F K z.&._ k u ; f P / l ^ X.} z.R U X.n t ( ^ &.&.Q.^.b.2 VXVXvX8XY d.B u.9.i.        ",
"                              5 w w 5 pXm.f k %.%._ k u u a ^ F t x n { z.I { ] n j O.! +.+.Q._...;XFXFXvX-XY A.B u.c j.        ",
"                              , &X1 xXiXcXd k @.%.' / K a K ( i t i i { z.( { } g ^ g.) +.o.n.^.s.6X*.U 6X9Xa./.B yXI.tX        ",
"                              & mX- ,.nXiXu k _ X.~ / ~ _ ~ / t t t i K z.} [ ] h ( @.^ &.o.Q.n.| 8X9X=.9X9XQ V.s j.0.8.        ",
"                              v tX;.2.MXpXs k } x.o._ { ( _ _ h t i i ! z.{ { / K Q.) ! +.O.x.b.s.z.9X-X9X>XE V.m L.B J.        ",
"                %X      #X    Q MX1 Y.` U U k / x.` _ ` ) ~ ` F g l k ! O. ./ ~ J [ ( n +.' _ @.s.a K q.q.a.] m.S.5.j.r.        ",
"                +X      *X    XXvXi.gX~ ' ~ a / c.' / / ~ j K F g l k ( x.{ P J K n [ n ' ( U %.{ : ! b K L I T c 8.S.r.        ",
"                +X@X    iX    =XaX4.mX{ ' ) j b { ' / ! J k j u i l k ) O.! ~ ! i ! n s ~ b a _ b ; F f u x P Y 1 :.5.M         ",
"                  &X#.%X&X  $X%XS l.MXvX=.%.x...s.o.{ ! ` ) , < i i ! ! O./ ! P i ! P s j h a j d < a s s x d 9 4.r 7 5.        ",
"            oX    @X@X&X&X@X0XoXZ $.OX%X5X5X<X,X,X;XO./ _ ~ y u t i n n { P n k g ~ [ a h t u i s f < p f f d 6 N p.7.6.        ",
"          D D D   Z #.XX@X*X$X+XZ $X0XkXoX;X-Xn.E.=.Q.o.} / l j g i g j I n K ^ h k / s k u y j b < u < a < d * * r.S.-.        ",
"        D   Z XXZ   D oX#X+XoX1X0.9.T A N.E.E.G z 2 O.o.) ~ ~ K k g g ! ] K ! ( b P n h k u a a d < ; & , a x r * e -.          ",
"      @X#X  &X*XC Z C oXZ Z Q A a.4 O O i.P.v. .x { { ~ K k / P ` a l F P P K n f { j , g u a y j ; & % i d s 0 8.T.S.          ",
"          =X  D   V V Z Z C l.- O . . X e M.<XzXJ / K J J J U P U F g ~ / b j g b J K ; i i z , d < $ & d x d * % % 7           ",
"            %X+XD V V V #XP.A O 8 8 A 6 - 6 - 4 U K K U ^ d U J J a k K { b n a k s.{ u s t ; & $ o $ & f x i 6 7 p.c           ",
"          =X0X  *Xl.l.C A N.<.t.y.A A 8 - + O Q { s a s s x / J J K k n k d h d g s ~ o ; # # % o o # $ $ f , q r.T 5.          ",
"          BX0X$X      l.T 6 6 - + X . . . X O 8 p. Xk./ f < < < f J ; u f < b R ] R L . o # = $ = o * # % : < + $ $ >           ",
"          0X        7.6 4 8 8 8 6.P.1X1X1X[.w.7.8 <.m.x d j b b d f d J j j a x L I I Q R ] R P P L R E R E E @ > 7 7           ",
"          0X                                                                                                                    ",
"                                                                                                                                ",
"                                                                                                                                ",
"                                                                                                                                ",
"                                                                                                                                ",
"                                                                                                                                ",
"                                                                                                                                ",
"                                                                                                                                ",
"                                                                                                                                ",
"                                                                                                                                "
};
