/* XPM */
static char *Dor1684417391[] = {
/* columns rows colors chars-per-pixel */
"64 64 126 2 ",
"   c #171211",
".  c #1C1615",
"X  c #1D1817",
"o  c #1E1A19",
"O  c #350D04",
"+  c #390F04",
"@  c #3A1106",
"#  c #36130C",
"$  c #3B150A",
"%  c #3F1B0B",
"&  c #221D1C",
"*  c #3D1B12",
"=  c #24201F",
"-  c #37261C",
";  c #3D2018",
":  c #3D2B1F",
">  c #262221",
",  c #292524",
"<  c #2D2927",
"1  c #2D2B2A",
"2  c #342923",
"3  c #3C2E25",
"4  c #322D2B",
"5  c #382E28",
"6  c #36312F",
"7  c #3C322D",
"8  c #363332",
"9  c #3A3634",
"0  c #3B3836",
"q  c #3D3B39",
"w  c #411E0D",
"e  c #41200F",
"r  c #432312",
"t  c #452C1E",
"y  c #442E22",
"u  c #492E23",
"i  c #453225",
"p  c #4C3322",
"a  c #45352B",
"s  c #4B362A",
"d  c #4D3A2D",
"f  c #513624",
"g  c #543926",
"h  c #5A3C27",
"j  c #523B2C",
"k  c #5C3E29",
"l  c #413731",
"z  c #423935",
"x  c #4C3C33",
"c  c #423E3C",
"v  c #483F3C",
"b  c #513F33",
"n  c #5E402B",
"m  c #43403E",
"M  c #4A423E",
"N  c #544136",
"B  c #54443A",
"V  c #594439",
"C  c #64442D",
"Z  c #68472E",
"A  c #6B482F",
"S  c #634631",
"D  c #6D4A31",
"F  c #444240",
"G  c #4B4542",
"H  c #4E4846",
"J  c #4A4748",
"K  c #4D4A49",
"L  c #504744",
"P  c #524946",
"I  c #5C4D43",
"U  c #544D4B",
"Y  c #594F4B",
"T  c #55504E",
"R  c #5C514D",
"E  c #555353",
"W  c #5B5453",
"Q  c #5A5857",
"!  c #5D5C5C",
"~  c #60534F",
"^  c #615652",
"/  c #655956",
"(  c #685B57",
")  c #615E5D",
"_  c #6A5D59",
"`  c #62605F",
"'  c #6F615D",
"]  c #70625E",
"[  c #605F60",
"{  c #646363",
"}  c #686766",
"|  c #686768",
" . c #6B6A6B",
".. c #756662",
"X. c #716F6F",
"o. c #72706F",
"O. c #706F70",
"+. c #767576",
"@. c #787777",
"#. c #787778",
"$. c #7C7B7B",
"%. c #807F7F",
"&. c #81807F",
"*. c #807F80",
"=. c #838383",
"-. c #898787",
";. c #8B8B8B",
":. c #908F8F",
">. c #949393",
",. c #9B9B9A",
"<. c #A0A09F",
"1. c #A3A3A2",
"2. c #A8A8A7",
"3. c #ABAAAA",
"4. c #B3B3B3",
"5. c #B8B7B7",
"6. c #BCBBBB",
"7. c #C0BFBF",
"8. c #C4C4C4",
"9. c #CCCCCC",
"0. c #D3D3D2",
"q. c #DBDBDB",
"w. c #E4E4E4",
"e. c #EEEEEE",
"r. c #F4F4F4",
"t. c #FAFAFA",
/* pixels */
"t.r.r.t.t.e.t.t.e.t.t.e.t.t.e.t.t.e.t.t.e.t.t.r.r.r.0.6.2.:.-.=.*.-.>.1.6.w.e.e.t.r.r.t.r.r.t.t.e.t.t.e.t.t.e.t.t.e.t.t.e.t.t.r.",
"t.r.r.r.r.r.r.r.t.r.r.r.r.r.t.r.r.r.r.r.t.r.e.8.,.=.+.+.@.#.#.$.#.$.#.@.+.$.-.4.w.t.r.r.r.r.r.r.r.r.r.t.r.r.r.r.r.r.r.r.r.r.r.r.",
"e.r.t.r.r.t.r.r.t.r.r.t.r.r.t.r.r.t.r.r.t.e.>.X.+.#.+.@.@.+.+.+.+.+.+.@.#.#.$.+.$.9.t.r.t.t.e.r.t.r.r.t.r.r.t.r.r.t.r.r.t.r.e.t.",
"t.r.r.t.r.r.t.r.e.t.t.e.r.t.e.t.t.e.t.t.r.q. .$.+.+.+.+.+.@.+.+.@.+.+.@.+.+.+.@.$.$.e.t.r.r.t.t.e.t.t.e.t.t.e.t.t.e.t.t.e.t.t.r.",
"r.t.r.r.r.t.r.r.r.r.r.r.r.r.r.r.t.r.w.6.:.| J O.+.+.@.+.+.+.+.+.+.+.+.+.+.+.+.+.O.K *.5.w.t.t.r.r.r.r.r.r.t.r.r.r.r.r.r.r.t.r.r.",
"e.r.t.r.r.t.r.r.t.r.r.t.r.r.t.r.9.;.W F m G G E +.+.+.+.+.+.+.@.#.+.+.+.+.#.+.#.[ F m F ! ,.0.t.t.r.r.t.r.r.t.r.r.t.r.e.t.r.e.t.",
"t.r.r.t.r.r.t.r.r.t.t.e.t.t.w.>.K m m F m F F G [ +.+.+.+.+.+.+.+.+.+.#.+.+.+.O.F F F F F c E >.q.t.t.r.t.t.e.t.t.e.t.t.e.t.t.r.",
"r.t.r.r.t.r.r.r.r.r.t.r.r.q.$.c m F F F F F F F J X.+.+.@.+.@.+.+.+.+.+.+.+.+.Q c F F F F F F q Q 4.8.7.e.r.r.r.r.t.r.r.t.r.r.r.",
"r.r.t.r.r.t.e.r.t.w.3.-.} E G H F F F F F F F F c E +.+.+.+.+.+.+.#.+.+.+.+.O.F F F F m F F F F c m H H %.w.t.r.r.t.r.e.t.r.e.t.",
"t.r.e.t.t.e.t.t.e.:.G H M G F G J G F F F F F F F q { @.@.@.+.+.+.+.+.#.+.+.E q F F F F F F F m F G F H G =.w.t.t.e.t.t.e.t.t.r.",
"r.r.r.r.r.t.r.r.4.H H F F F m F F G m m F F F F F F F { E J m m m F J J Q [ c v F F F m m m m F F F F m G G 2.t.r.t.r.r.r.r.r.r.",
"r.r.t.r.r.t.r.w.` G m F F F F F F F F q q m F F F F 4 & . . . . . . . o X = 8 v F F F q q c F F F F F F F G Q q.r.t.r.e.t.r.r.t.",
"t.t.e.t.t.e.t.3.m F F F F F F F F F F F c 8 q v 9 , o X .     = , .       & . & 8 0 8 q F F m F F F F F F F G 1.t.e.t.t.e.t.t.r.",
"r.r.t.r.r.t.e.} m F F F m F F F F F F F F c 1 > o X .   o 4 6 9 q 8 6 2 .   & & o = q F F F F F F F F F F F m ) w.t.r.r.t.r.r.r.",
"e.r.t.r.r.t.6.F m F F F F m F F F F F F F q & . &     > m m 7 - , 5 v G 9 X   . . o , c F F F F F F F F F F F F 7.t.r.e.t.r.e.t.",
"t.r.e.t.r.r.,.m F F F F F F F F F F F F q , & .   & 6 9 3 t p p u p y 3 z c >   . . o 1 F F F m F F m m m F F M +.q.t.t.e.t.t.r.",
"r.t.r.r.r.w.} M J J F J F F F m F F F F 1 X .   = v z - p f f p p f f p : z G <   . X o 8 q q 0 0 q c c F F J J v #.e.r.r.r.r.t.",
"r.r.t.r.t.w.T F F F F F F G G F m q 8 , X .   & v z 3 t p p f p p p f p p t 9 v >   . . o , 8 q q F G F F F F F m J 9.r.t.r.e.t.",
"t.r.r.t.r.q.E m F F F F F F F F m F q & X   = q M 3 p y p p f p f f f p p f : 4 G =   X . 8 F F F F F F F F F F F m 5.t.e.t.t.r.",
"r.r.r.r.t.w.T c F F F F F F m F m m m & X   q m 9 p f p p p f f f f f p p f f 2 0 6 . . . 0 F F F F F F F F F F F c 3.t.r.r.r.t.",
"e.r.t.r.r.w.E q F F c F c c c c c c q & . = l m 3 f f u p f f f p f f p p f g u z M & . o 8 F c m q q q F q c F F F 6.r.t.r.e.t.",
"t.t.e.t.e.;.E E E E Q E Q Q Q Q Q Q ! q . < P M y f j d d b b N b B B B L I L u 5 J 4 > F Q Q ! ! [ { ) { ! Q K F F 4.e.e.t.t.e.",
"r.t.t.e.>.$.&.*.*.=.=.=.*.$.$.#.@.@.$.@.< 4 P l p d B a u u u u y t r $ # b I p 3 M < W :.*.#.#.$.$.*.*.*.&.=.=.=.$.%.&.w.r.r.t.",
"e.r.t.w.$.;.+.+.+.+.+.+.+.+.+.@.+.+.+.@.G , M 3 f j x O + $ w w w e % @ + b L f u 6 . Q #.+.+.+.+.+.+.+.+.+.+.+.+.@.:.#.w.r.r.t.",
"t.r.e.t.,.+.+.+.+.+.+.+.+.+.+.+.+.+.+.+.0 = G s f g N # + w w r r e w w + V b h u 5 o E #.@.+.@.+.+.+.+.@.+.@.+.+.#.+.6.e.t.t.e.",
"r.t.t.r.8.} +.+.+.@.+.+.@.+.+.+.+.+.@.| = 4 P s f g N $ O w e r r r w w + b b h p z o ! @.@.+.+.+.@.+.+.+.+.+.+.@.+.#.e.t.r.r.t.",
"r.r.t.r.w.+. .+.+.+.+.+.+.o.+.+.O.+.+.J o m 9 i g h N * + w e r r r w @ $ V j h p 9 o ! #.+.+.+.+.+.+.+.+.+.+.+.+.O.*.e.t.r.e.t.",
"t.r.e.t.r.,.J T K K K J K J K K K K K 1 = q z y h h N ; O @ w w e w w O $ b j h p 9 o E $.@.@.+.@.@.@.+.@.@.@.@.@.{ >.t.e.t.t.e.",
"r.t.t.e.t.7.F F m m F F F F F F F F F 4 , T P i h h d d s s d d s p u u u x j h p 9 & 9 Q [ ! ! ! ! Q ! ! ! [ [ [ E 8.t.t.r.r.r.",
"e.r.t.r.t.9.J F F m F m F F F F F F F 1 < U U a h n h d s j j d b b b d x s g k u v 5 . 8 F m m m m m c c q q m F K q.r.t.r.r.t.",
"t.t.e.t.t.0.K F F F F F F F m F F F F , , U R a h k h h p k k k k k h g g k h k p v q . 9 F F F F F F F F F F F F Q w.t.e.t.t.e.",
"r.r.t.e.r.w.E F F F F F F F F F F F F , o m G a h n h h p k k k k k h g g n h n u c c o 8 F m F F F F F F F F F c { e.r.t.r.r.t.",
"r.r.t.r.r.e.! m F F m F F F F F F F F , & 9 F a h C k h p n k k k k k h g f g n p 6 c . 8 F F F F F F F F F F F c O.e.r.t.r.r.r.",
"t.r.e.t.r.e.| m F F F F m F m F F F c 9 U 0 H l j j j j s j h g h h g f s v v h p v v . 8 F F F F F F F F F F F c $.t.t.e.r.t.r.",
"r.r.t.e.r.t.+.q F F m F F F F F F F q q / G R R Y W R R Y Y U U P L L L G P W B y L P X 8 F F F F c F F F F F F c :.r.r.t.r.r.t.",
"r.r.t.r.r.t.;.q F F F F F m F F F F F 9 / F U U U P R R R Y U U I ~ ~ R U Y U U z G U & 8 F F F F F F F F F F F c <.t.r.t.r.r.r.",
"t.r.e.t.t.e.,.q F F F F F F F F F F F 8 / G H G G M W Y ~ L G P M R R R v G G G Y c G X 8 F F F F F F F F F F F c 2.t.t.e.r.t.r.",
"r.r.t.r.r.t.3.q F F F F F F F F F F c 4 ^ m U z z P R R ~ U z 9 L ~ R R U z z Y v G L & 8 F F F F F F F F c F F F 7.t.r.t.r.r.r.",
"r.r.t.r.r.t.5.q F F m F F F F F F F F 1 ^ G Y Y Y Y Y P P U P L P P P P L P Y M 5 Y J X 8 m F F F c F F F F F F J 9.r.r.t.r.r.r.",
"t.r.e.t.r.r.9.F F F F F F F F F F F F 1 W v m z s x d j s d d j d j d j s a c d s W G X 8 m F F F F F F F F F F J 0.t.t.e.t.t.r.",
"r.r.t.r.r.t.0.J c F F F F F F F F F F 1 1 F ^ M k A Z A h n S Z C Z C Z g z v P z W G . 8 F F F F F F F F F F c E w.r.r.t.r.r.r.",
"r.r.r.r.r.t.w.K q F F F F F F F c q q , o K ( P k Z C A k n Z A Z Z C Z d P c L m P z . 8 F F F F F F F F F F c ! e.r.r.t.r.r.t.",
"t.r.e.t.r.e.e.! 0 q c F c c q q q q q 1 o M R H C Z C D C n Z A Z Z Z Z x v a l 7 G 1 . 9 F F F F F F F F F F q | e.r.t.e.r.t.e.",
"r.r.t.r.r.t.e.{ 0 q q q q q q q q q q 1 X 0 M M k Z Z D C C A D Z A Z A x M k k x F 9 . 8 F F F F F F F F F c q #.t.r.r.t.r.r.t.",
"r.r.t.r.r.t.r.+.0 q q q q q q q q q q 1 o P W Y n A A A C S D D A A A A j v G L G M v . 8 q q F m F F F F F c 0 -.t.r.r.t.r.r.r.",
"t.r.e.t.t.e.t.;.8 q q q q q q q q q q 6 o P ( P n A A A C S D D A A A A g s a a 7 R v . 8 q q q q q F q c c q 8 ,.r.t.t.e.t.t.r.",
"r.r.t.e.r.t.r.>.0 q q q q q q q q q q 6 o G U M k D A A C S D D A A A A n S S C x _ 0 . 9 q q q q q q q q q q 0 2.t.r.r.t.r.r.r.",
"r.r.t.e.r.t.t.3.0 q q q q q q q q q q 8 o 9 c a k D D A C S D D A A D D n S D D x Y 4 X 9 q q q q q q q q q q q 6.t.r.r.r.r.r.t.",
"t.r.e.t.r.e.t.7.q q q q q q q q q q q 8 o c G v k D D D n S D D A D D D n b S A 5 c , o 0 q q q q q q q q q q F 9.e.r.t.e.t.t.r.",
"r.r.t.r.r.t.t.8.c q q q q q q q q q q 8 , J G M d S S S h n S S S S S S j l b n a G < o 0 q q q q q q q q q q F 0.t.r.r.t.r.e.t.",
"r.r.t.r.r.t.t.0.J q q q q q q q q q q 9 8 W v U P Y ~ R Y ~ ~ Y ~ ^ / ( / W ^ M l ^ 4 & 0 0 q q q q q q q q q K w.t.r.r.r.r.r.r.",
"t.r.e.t.t.e.t.w.K q q q q q q q q q q 0 6 E G P Y P ........~ ( R ] ....W Y L R L L < = q q q q q q q q q q q [ e.e.t.t.e.t.t.r.",
"r.r.t.r.r.t.r.w.Q 0 q q q q q q q q q 9 4 W c z v c ( ....' v G v ' ..] L c 9 U / c , > q q q q q q q q q q q | r.t.r.r.t.r.r.t.",
"r.r.t.r.r.r.r.e.| 0 q q q q q q q q q 9 4 ~ v L v P _ ' ....^ M R ....' ~ c v Y v M > , q q q q q q q q q q 8 $.r.r.r.r.t.r.r.r.",
"t.r.e.t.t.e.t.r.| 0 q q q q q q q q q q 4 U v U U Y U U ~ ~ ~ ~ ^ ~ R U U Y Y L R R < < q q q q q q q q q q 8 >.t.e.r.t.r.r.t.r.",
"r.r.t.r.r.t.r.e.| q q q q q q q q q q q , z U ~ ~ ~ ~ ~ / [ ' [ _ [ / ~ Y q Y / _ / < < q q q q q q q q q q 8 <.t.t.r.r.t.r.e.t.",
"r.r.r.r.r.r.r.w.! q q q q q q q q q q q , F [ ~ Y R ( ( _ [ _ ^ ~ ( ( ( ( R Y P W / < 4 q q q q q q q q q q 8 4.t.r.r.r.r.r.r.t.",
"t.r.r.t.t.r.t.w.F 0 0 0 8 0 0 0 0 q 0 0 > F ^ M / v Y ( ( ( L W W M ( ( ( G U U M / 4 4 0 0 0 q q q 8 q q q 8 2.t.e.t.t.r.r.t.r.",
"r.r.t.r.r.t.w.:.K K Q ! { { { { [ [ ! ! E E Y 9 5 6 Y ( ( ( M 4 6 v ( ( ( M 4 4 F U [ { { { { [ [ | | | [ [ |  .4.t.r.r.t.r.e.t.",
"r.r.r.r.r.t.5. .+.O.O.O.O.O.O.O.O.O.O.O. .[ K R M Y ( _ ( _ ( U U / _ _ _ ( U Y / K |  . . .O. . . . . . . .O. .*.r.r.r.t.r.r.r.",
"t.r.e.t.t.r.7.|  .| | | | |  .| | |  .| | ! G P P L G M G G G G M L L J L L L L F F |  .|  . . . . .|  . . .| ! ;.e.t.t.e.t.t.r.",
"r.r.t.r.r.t.8.{  . . .|  .|  . .|  . . . .E c J H T E E E E U T T U K K L H H H J F | |  . .|  .|  . . . . . .Q 3.t.r.r.t.r.r.r.",
"r.t.t.r.r.t.0.! { | { { { { { [ ! [ ! ! ! F F J J U U U E U U T U U T U U T U U E F [ [ ! [ ! ! ! ! ! ! ! ! ! Q 0.t.r.r.t.r.r.r.",
"t.r.e.t.r.e.t.<.! [ { |  .O.O.#.*.*.;.:.:.:.:.-.;.:.*.*.*.*.$.*.+.+.#.O.O.+. . . . .+.$.$.$.=.=.=.;.;.-.>.>.:.3.r.e.t.t.e.r.t.r."
};
