/* XPM */
static char *ij1684614339[] = {
/* columns rows colors chars-per-pixel */
"64 64 84 1 ",
"  c #0E0D0D",
". c #100F0E",
"X c #11100F",
"o c #0F0F10",
"O c #151413",
"+ c #181715",
"@ c #1A1817",
"# c #171718",
"$ c #181719",
"% c #171818",
"& c #1C1B1B",
"* c #211E1D",
"= c #23211F",
"- c #1E1F21",
"; c #201F21",
": c #1F2020",
"> c #242323",
", c #292624",
"< c #272827",
"1 c #2C2926",
"2 c #262629",
"3 c #282729",
"4 c #27282A",
"5 c #2B2B2C",
"6 c #312E2B",
"7 c #35312E",
"8 c #39342F",
"9 c #2D2E32",
"0 c #302F31",
"q c #2F3033",
"w c #333335",
"e c #3A3632",
"r c #3D3935",
"t c #343539",
"y c #383739",
"u c #373839",
"i c #3B3B3C",
"p c #433D37",
"a c #433E39",
"s c #3F403F",
"d c #46413C",
"f c #49443E",
"g c #3D3D41",
"h c #403F40",
"j c #3F4041",
"k c #434344",
"l c #4B4641",
"z c #4E4943",
"x c #454649",
"c c #484748",
"v c #474848",
"b c #4B4B4C",
"n c #524D45",
"m c #544E49",
"M c #4F504F",
"N c #56514A",
"B c #5A554D",
"V c #4F5050",
"C c #535353",
"Z c #5E5951",
"A c #565758",
"S c #575859",
"D c #5B5B5B",
"F c #60594F",
"G c #625C52",
"H c #656055",
"J c #676258",
"K c #6C6458",
"L c #5F5F60",
"P c #636363",
"I c #676868",
"U c #6B6B6C",
"Y c #737374",
"T c #777778",
"R c #787778",
"E c #7C7D7D",
"W c #7F7F80",
"Q c #838484",
"! c #878788",
"~ c #878888",
"^ c #8B8C8C",
"/ c #8E8F90",
"( c #8F9091",
") c #919192",
/* pixels */
"959>&9999> o-->-;>44o29559q9qw-2q9qqqgq9$pr8ep767er8eep129599#;q",
"22>>;2:-&t6$wpripr& #;---#-;;;#-2;2;;;-4,66w6@>953o,t9w659942#;;",
"dddlzzzfymlemBBNBBlO5tqqg;;q990999950;2CmnmmNwwtt92bggugyguugggt",
"eaddfdffrddedlflfff+5qqqq2;g9ww59qqq0&yNlnnzn699992iqttygttt9944",
">*&=,,11*6e,167611*X-;;;-#$;;;;;2;--;o>rt0ep0;2992&55,>&*;&>;11;",
"ldaarrad>1lare78aaa6;e8869epy61*-;;955;&oO$XXO-;&oefdad,raralhll",
"dfffllfm76fddfffppf1ezlhllaafff*-qqqqtqg;wtwtttqt-6daaf6dlfaaaaa",
",,1678ea=>p8888888p*;75551,,,,6*-22;;;;-&;;;-;;54&>1>,1+66666660",
"p;#;;;;;*24949;255q999924952=52*$494999559999g;;aalhllppae7ew8e*",
"my9ggqgqwtwtwt5tqgqgqgqguuu42t>&&2024q9wqqqqqh2wnaaallhczllzffl8",
"a5;99299545555;24422;;;---5&&4*&$&4;>999959293#-ppppeeqtraeerra6",
"yt9-#2220wt9;twttg->hggqu&#&@&*=**&&-;;;;22;;29g85;X;52-OO0y26hi",
"tgg;qgggyggy2gqgtg2wgqgqg9g-+*&11$@@*iugghhhxxhhhhh;gggg-qggh9tt",
";;;-;922;254#----;-9q99qg>9#+&*66**$;099qq999q999q;9g99g2gq90>94",
"-;2929925;+,680yee-9q9q9t>q-++&,,@O@>99>-2222222;;-qg49g2gqg5&2;",
";gqtqq99gq1lahalhb99q999w>9-&&+**O**>9w2;qqqqqqqqg2q9994-9qq>2t0",
"-;;39qqq093faaaaafw99999w29-;5OOO@5&;90>>999q999qg9q9wt45qqt-;qq",
"393&o$---&O,*=,,,6;299542#4&-4OOO>5&@#&&&>-&#&--;2-2499&;422o#2;",
"GFmma+;haknla+>5690w0*gyrre&;ar@&zf&&,BBZZBnz2:99;9;49999;&tyttg",
"aaaaF1;hmmnlm>>9yttw02nlNNr&>lp@&re&*5lfalnlmw9tq;qq9w99q-4ggggg",
"aaaaz**7aaaad@&>&&&&$+8eee1&&pe@&dr&*,faaaaer&:2;&;*;425;*$25525",
"69698**;096w,>@>weypy66$45>*&=>@&51**&>16545&&7r1$7lzzd@;$;0w-00",
"gttw0*O*tqttw1@*alfflfl15>=*&5*@@>5&;*-9tttg>zKF3+6GGGG1*@*tg5zz",
"---&;@++>9994>+&epaaaad3>&&&&**@&**@&$$-;2;2&=fl*+*aaff>$$&;0;68",
"-->4***+*5905&&&>556501-2&@&&>**&&=&&@&1prrre5>@*@&>444&@***6$$;",
"tww9***O*8t05&*@&tq09t9>=@@>*******&&@&1ZGJJHGZ=**@29t9@@***,*0t",
"954-****$&;&&@*&@-22>-O+&&&>&==**=*&=&&=7ree717&@*$&&&$++***-&05",
";2;&*==*$;p&&&=*&*>zmla>=&==@*,@*=@&1=&&>Owt5*&&*=*$$2;+**=*&&;2",
"qw&&$11*@@8&@*1,@&>rda,**==&O1i+@u>+*===**iq0*@@*6=@&9@O+,1*$@5t",
"99-#*61*+*7++>81@@*r7>**===@+CdX+uN+&===**>55***=8=@$02O+17,$&45",
"--#O*66*++*++*6,@@*1==*&**=&>Rt.O<L5&==***=*2&O@*8,*&y*+@171$+&;",
"592-**,**2t>@&**@&=>>=***=*+rE5O+&Nv====**=,>**@*=*+exr,**,,$+4t",
"995=XXXO5qq<+XXO+======,=&O+CI:*:&iv7=>>,*===,=+OO.*CCvb&+O+*&99",
"$>>OXX+O->1>+X+O@===,====@sbDv:>>>5si1===,,,,**+OO.*CAjk>OOO&X;>",
"t>@+O@@@:9uu+9i&===,===*@eDClw>><15rrk,*=>,>,===&y6OvCki>@@@&=>d",
"a7OOO*&@&29u&Jd&**@***@<1vCbu1<<549uikk+@@&&****&hJ@rbk1O*&@@+5d",
"r>OO=,=&@OxD<9@++O@O+@,twrjku55<559wi97*@OOOOOO++&5>Dbw>*=>&+@=e",
"32.X&1=@&@1WsO+++O@@2trkkisvsw6960ewwu9shi55ekk6*&@kY,5>*,,&XX>>",
"qt&O&==&@Ov^k+%%@&1alvvbbvkCse7wwiriwiudmVCDDDDbaiiwErOO@,>+O&qt",
"25@O@&&&OOY~t>&>wikvvvzbvvvvCswweuiiuiiwkvbbbbbvkkh2DDO+**%OO-44",
"3,1O$**@XOCUrVbbbkvvvbvvvvbkNjwwuuesirjiikvvvvvkjds1eeXO+**++p1=",
"nadO$>=&+++>CUPCVvvbbVVNMMMvsuwuusussijkkkkvvvkkjsu1OO@O+**+Onlp",
"3,1O+*=O  @MYYLCCvbbbbVVMMMvksueeiussissjjkkkkkjjst>>O..@**OOe6,",
"494O*,=OOrUQWEICACCbVVVVMMMvbvuuuiiisiisskaksksiiiw>PPy+@*=+O+>5",
"t05O+=*Ok~^~QWUDSCVbbVbVMbbvvjsqisirisrsikiisiiuiuw=I^!w+**@$*3w",
";>3O+=*OA/^~QWYDSCCVVbbbMbbvvsusiiisiiiiiiiiiiuewuq*P^^kO**O@$-4",
"tt6+*=*.L/^~QQTLSAVVbbbVMMMvjjswisisiiiiiiiiuttw0w5*P^^B+*;+#-ut",
"99*++*+OU(^~~QEPSACbbbvbvvvvjvssiiiiiiiuiiuiew7q994:P^^PX**OO;99",
"4>$$@>*+U/^^QQWPSAVbjbbbbMbjsssswsssssqsswwswww665<:P^^IO&=@@@64",
"t>$$&,*XdQ^~!QWILACbMjjbjjjjssssssesqssswswwww6954>:P/WsO*=@@O<i",
"ZaO+@&OOOiE~~QWILAAVjjbbbjjjssssswswsssqwwqww69454>:LTuOOO@OO@mZ",
"lr+   X@@>P^QQWISCbjjbjbjvjjss7swsswsqqsw6995555<<:*PA:%O   .Odf",
"781*O.XNWW^~QQQUSVjjssssjjssqssqsswwqs5qq65552>>>>:&P^ETk.XXO*81",
"ww9-+>&k//~~QQQYAVbjjssssssssqq9qw6ssqq7555522:::::&P/^^s==O:dzf",
"ytt-O,*6~^^~QWQUVjssssssssqsss6s7wqws<q9<<<<>:::&&&&P/^W===X*zfd",
"---#+=*&E//~QQWIjjssqs9ssssqqq55qwww7qq5<<:<::&%&%%%I//U@=<OO8ee",
"17=O+1=OP/^^QQWDssss5q<s7s7ssq5q7qs<599<4:::::%%###@I/^CX=1+O11=",
"ff8O+==Xb/^~QQWSsss95ss5qqqq6q556q6q<55<:::::&%%O#O@U/^r@==@O8ff",
"fd=X+==O7~(^QQQAsqqs5qqsq6qq55556q55<5<::::&%%%%OOO@Y)W>@=1@+=ff",
"=1+X+=*+&T(^~~QV7sqq559655655555<5555<<::&&&%%%%OOO&R/IO@==@O@=6",
"t9OX@==@oS)(~~Qbq9555<595<<555<<<5<5<<:::&%%%%%ooOo:E^d.@==*OO15",
">&OO*11@X*SYWWYjs9<<<<<4<<<<55:5<<<:<::&&&&%O%oooo 2Pf+O*11=OX>w",
"5OX+*11&OoO@>q4>::::::::::<<:<<<<<:<::&&%%%OOoo o  o+O.O+16=@X&w",
"5+OX=61&X.%:&%%%::::&<::::<<<5::5<<<<:::%&*:*&++%++*,OXO*11,@OO5"
};
