/* XPM */
static char *ghost1684527305[] = {
/* columns rows colors chars-per-pixel */
"64 64 198 2 ",
"   c #080708",
".  c #0C0C0C",
"X  c #100F0F",
"o  c #0F0F10",
"O  c #141414",
"+  c #181716",
"@  c #191917",
"#  c #171718",
"$  c #181718",
"%  c #1B1B1C",
"&  c #2A1E14",
"*  c #211F1E",
"=  c #2E2117",
"-  c #23211F",
";  c #33241A",
":  c #392A1E",
">  c #1E1E21",
",  c #201F21",
"<  c #1F2022",
"1  c #232324",
"2  c #292624",
"3  c #2C2926",
"4  c #262629",
"5  c #282729",
"6  c #27282B",
"7  c #2B2A2C",
"8  c #3C2C21",
"9  c #312E2B",
"0  c #35312E",
"q  c #39342F",
"w  c #2D2E32",
"e  c #302F31",
"r  c #2F3034",
"t  c #323235",
"y  c #3A3632",
"u  c #3D3935",
"i  c #343539",
"p  c #383739",
"a  c #37383C",
"s  c #393A3D",
"d  c #4D290E",
"f  c #5C3714",
"g  c #402F23",
"h  c #483629",
"j  c #553E2B",
"k  c #423C36",
"l  c #493F37",
"z  c #423E39",
"x  c #78461B",
"c  c #5E422C",
"v  c #46413C",
"b  c #4A443E",
"n  c #4D483E",
"m  c #5A4436",
"M  c #5A4537",
"N  c #53463C",
"B  c #764C25",
"V  c #614B39",
"C  c #755333",
"Z  c #3C3D42",
"A  c #403F40",
"S  c #3F4043",
"D  c #434345",
"F  c #4B4641",
"G  c #4E4943",
"H  c #454649",
"J  c #4C4C4D",
"K  c #514740",
"L  c #524C45",
"P  c #5B4E43",
"I  c #534E49",
"U  c #5D5046",
"Y  c #56514A",
"T  c #59544C",
"R  c #535353",
"E  c #5E5952",
"W  c #5B5B5B",
"Q  c #645345",
"!  c #655549",
"~  c #685749",
"^  c #695749",
"/  c #6D5A4C",
"(  c #765A41",
")  c #715D4E",
"_  c #625C52",
"`  c #725E50",
"'  c #686257",
"]  c #746153",
"[  c #796556",
"{  c #77675A",
"}  c #7E6A5B",
"|  c #5F5F60",
" . c #646464",
".. c #6C6C6C",
"X. c #786D66",
"o. c #757575",
"O. c #7C7B7B",
"+. c #8C541E",
"@. c #92571E",
"#. c #945C27",
"$. c #9C5D21",
"%. c #92663C",
"&. c #A76322",
"*. c #B66D27",
"=. c #BE7227",
"-. c #C27428",
";. c #C47D37",
":. c #816D5D",
">. c #806F62",
",. c #837163",
"<. c #8B7464",
"1. c #887669",
"2. c #8C796B",
"3. c #917C6C",
"4. c #8D7D72",
"5. c #817E7E",
"6. c #948174",
"7. c #9A8372",
"8. c #93847A",
"9. c #96887E",
"0. c #9C897B",
"q. c #A48C7B",
"w. c #D19A64",
"e. c #828181",
"r. c #8C8B8B",
"t. c #978D87",
"y. c #9D9086",
"u. c #949393",
"i. c #9C9B9B",
"p. c #A59183",
"a. c #AB9484",
"s. c #A2958C",
"d. c #AD9A8C",
"f. c #B59D8B",
"g. c #A69A91",
"h. c #AB9E94",
"j. c #B49F90",
"k. c #BAA08F",
"l. c #BCA392",
"z. c #B1A49B",
"x. c #B7A59A",
"c. c #A6A5A5",
"v. c #ADACAD",
"b. c #B7ADA6",
"n. c #BBB3AC",
"m. c #B3B3B3",
"M. c #BBB6B3",
"N. c #BBBBBB",
"B. c #C4A997",
"V. c #C5AB9A",
"C. c #C9AE9C",
"Z. c #CBB09E",
"A. c #DDB59B",
"S. c #C4B1A4",
"D. c #CAB6A9",
"F. c #D5B9A7",
"G. c #D9BEAB",
"H. c #C3BAB3",
"J. c #E2BFA9",
"K. c #DDC1AF",
"L. c #CCC3BC",
"P. c #D7C5B8",
"I. c #E2C6B2",
"U. c #E6C9B6",
"Y. c #E6CAB7",
"T. c #E7CBBA",
"R. c #E8CEBD",
"E. c #C8C5C2",
"W. c #CBCBCB",
"Q. c #D2CAC4",
"!. c #D9CDC4",
"~. c #D6CEC9",
"^. c #DDD2CA",
"/. c #D5D5D5",
"(. c #DCD8D5",
"). c #D9D9D9",
"_. c #E1D1C5",
"`. c #EAD3C3",
"'. c #E3D6CE",
"]. c #EBD7C9",
"[. c #EEDACD",
"{. c #E3DAD3",
"}. c #EEDDD2",
"|. c #F0DFD3",
" X c #F1E1D6",
".X c #F3E5DB",
"XX c #F4E8DF",
"oX c #E3E3E3",
"OX c #ECE7E3",
"+X c #E9E9E9",
"@X c #F5EAE3",
"#X c #F5EEE9",
"$X c #F8EFEA",
"%X c #F3F0EE",
"&X c #F9F1EC",
"*X c #FAF5F3",
"=X c #FCF9F7",
"-X c #FDFAF9",
/* pixels */
"w 7 w 1 % w w w w 1   o > < < 1 1 1 7 6 O 6 7 7 w w w w w i # 6 i w w w r i r w % u u q q u 0 0 0 q u q q q v 3 1 7 7 w r O 4 r ",
"4 4 1 1 * 4 < > % t 9 # t v u u u y @ . # > < > % % % 1 > 1 # > 1 1 1 1 1 1 > 7 - 9 q q 0 % 1 r 7 4 X 4 t r y w w r 7 7 1 @ < 1 ",
"v v v G G G G v u I G y I T T T T T K O 7 i w w w 1 4 w w w e e w w w w w > 5 T L I I I Y t r r t r 2 J Z Z s a a s a s a Z s i ",
"y k v v b v b b u v v y v F b F b b b + 7 t r r i 6 6 t t e t e w i w w t % u Y G G L L n 0 r r r w 6 a r i a a a a a t r 7 6 6 ",
"2 % % - 2 2 3 3 % 9 0 2 3 3 q 3 3 3 * X > , , , > # + , , , 1 1 1 1 > > > o 2 y p 0 y u 0 , 6 w w 4 % 7 7 2 - % % % % < 3 7 7 - ",
"G v z z u u z F - 7 G v u y y y z z v 3 , y y e 3 0 y u u 9 3 @ # , 1 7 7 6 < % . O $ O O O % > % X y b v v b - u v u v v v F b ",
"v b b n n F b I q 9 b v b b b b b z v 3 y F l F G b b b b b L - 4 i i w i w i i , e i t t i i w r < 0 b v v b 9 b F b v v v z v ",
"2 2 3 3 9 y y z - 2 u y q 0 q q q q y * 2 9 9 9 0 k N P Q P P k 7 1 > 1 > 1 1 1 O 1 6 > > > , 6 7 @ - 3 - - 3 + 9 0 0 3 3 3 3 0 ",
"u , # , 1 , 1 1 % 4 7 7 7 w > 4 7 7 w e e k Q / ] y.D.!.'.'.!.b.4./ / z 7 e 7 w 7 7 w w w p , 1 z z v v G F s u u y 0 y q y y % ",
"I k e a i i i i i t i t t i 7 t i i i z ^ } C.[..X.X.X@X@X@X@X@X@X$X#X8./ n t t w i i e i A 7 0 F b b b G b b F G G F F F v F y ",
"z 9 1 w w 7 7 6 7 7 7 7 7 7 1 6 w 7 P ) G.Y.Y.|.|..X.XXX@X@X@X@X$X$X$X&X*XX.! w w w 6 6 6 7 O , k y y u q q y y u u y y u k z 3 ",
"a t e % $ 4 6 w t t t w 1 i t i i Q <.U.T.T.Y.[..X.X.X.X.X@X@X@X@XOX$X$X&X=Xg.^ 1 1 4 , 5 5 e i p 7 2 X 1 7 4 < O + t u 2 7 D s ",
"a a Z , w Z a a s a a i 1 a i i N :.Y.U.U.U.Y.].|..X.X.X@XXX@X@X@X!.@X$X&X&X-Xy.Q Z A H H H H A Z D Z % H Z Z H 4 t Z S Z 7 a i ",
"4 , 6 # 1 w 6 5 6 7 7 6 O > 1 1 ) U.Y.U.U.U.U.T.|..X.X.X.X.X@X@X@X$Xh.#X&X&X&X-X` u w w 6 w w w w t 5 7 a w w i 4 i w i t 1 7 7 ",
"% 6 6 6 6 6 w 7 6 , O 3 9 0 p ! f.T.U.U.U.U.T.U.|.|..X.X.X@XXXXX@X@X$X@X$X&X&X*X~.! 4 4 4 4 4 4 1 4 @ i t r r r < i r i w $ 1 4 ",
", a i t i e w w i w 3 b v b v / U.U.U.U.U.U.Y.Y.T.|..X.X.X.XXX@X@X@X@X$X$X&X&X*Xs.) e r r r w r w i 7 t r w t w H S w r 4 1 i r ",
"> , , 6 e w r r w w 5 v z v P 7.Y.Y.U.U.U.U.U.U.Y.T. X.X.X.XXX@X@X@X@X$X$X&X&X&Xb.s.v r r r w r w w w i t i J J J J w i < < i w ",
"5 e 5 % o $ % > > % O 2 - - ^ G.Y.Y.U.U.U.7.) <.<.:.V } S..X.X@X@X@X@X@X$X&X{.8.8.{.Q @ O $ > 1 1 6 > 7 J J J u.i.J r 1 O O < 1 ",
"_ _ I I b O q A z F G F z O ) Y.Y.U.U.U.U.U.U.U.M & & & ; m p.@X@X@X@X@X{.Q 8 & = )./ I I 2 4 7 7 w 7 S R c.).+Xm.J J i u i a Z ",
"k k z z E 5 l I I I G L I 1 ) Y.U.U.U.U.U.U.U.B.: & & & & & ; j 7.XX@X@X/ & & & & s./ G I 0 7 t r t t J W.).oX/.m.o.J S Z Z Z s ",
"v b v z F 2 y b z l z z b - :.R.U.U.U.U.U.U.U.[ & & & & & & & & = } @X@X8 & & & & t./ y u % 1 4 1 1 6 R /.).+Xm.m.v.I s 6 w 6 6 ",
"7 7 7 w y , 7 0 e e 9 t 3 9 1.`.R.U.U.U.U.U.U.m & & & & & & & & & m @X@X: & & & & 4.) 7 % % 0 y s F J ..).).oXm.m.m.J i i % 7 y ",
"s i i t i i i i i r i i t k 2.[.`.R.U.U.Y.Y.G.h & & & & & & & & & V .X@X: & & & & 4.) s 4 G ] _ _ _ J /.).+XN.m.m.o.H s s 7 F L ",
"1 < % > % % * 1 6 w 7 w 6 9 ,.[.].R.Y.Y.Y.Y.B.: & & & & & & & & & Q .X@X: & & & & 8./ 6 % % b I I G ' )./.+Xm.m.m.J w w e , 9 0 ",
"> > 4 6 6 4 , # 6 6 w e e 7 ]  X[.U.R.U.Y.Y.F.h & & & & & & & & = p.|.@Xj & & & & b.^ p q 9 - O < J m.).oXW.m.m.O.H w w t % % 1 ",
"t i t t e a e 1 a i i i i i / .X|.[.`.R.Y.Y.Y.C.M g & & & & & & j |.@X].t.8 g h ` =X/ ' ' _ E 1 i J N.).+Xm.m.m.J t r r r % t i ",
"7 6 7 6 6 6 1 o > > > > % % ! '. X|.].`.Y.Y.Y.[.[.D.) m h ; & 8 4.@X|.P d.}.'.@X#XOXQ y 9 0 0 @ a O./.)./.m.m.r.H 4 4 7 6 % 7 7 ",
"1 4 6 7 7 7 w 6 > k F z v k v 1..X X[.].A.Y.Y.R.[.[.[.[.P.d.0.C.|.@X^.= 8 @X@X@X&Xb.K a r 4 O w J W./.+XN.m.m.J i @ w t i % < 1 ",
"i i i r i r i a w k F b b F L ^ _..X}.[.`.R.Y.A.`.[.|.[.|.|. X X|.|.V & & b.@X@X*X,.D e i Z < i R /.).oXm.m.u.J a 1 i i a 1 w t ",
"6 w w w w w w w 4 z z z k k k 0 ) _..X|.Y.`.T.Y.U.T.[.[.[.|. X X|.|.= & & Q @X@X-X/ i w w t % S u.).oXN.m.m.R t w 1 t w i > 7 w ",
"> > > < > % O # # 2 2 , 1 , O * Q ] XX XY.`.`.I.U.U.U.`.[.|.|. X.X.XP = h H.@X@X-X/ r w w t # J /.).+Xm.m.i.J t w , i w i O % , ",
"w w w w i % % e p a a Z s Z t 1 v / @X.X|.[.`.Y.U.U.U.U.].|.P.R.|.|.|.4.!.@X%XG.W./ r w w w 4 | /.).W.m.m.R t w w 1 i w e O w e ",
"w r w w i > 6 Z t r i r t t 7 4 v K h.@X.X|.[.`.R.Y.Y.J.U.Y.q.Y.`.|.|.@X|.@X$X` Q u w t w w D m./.+Xm.m.c.J e i w 7 i w w % w t ",
"# 1 1 > 1 O O 1 4 6 1 1 1 7 1 1 9 3 / #X@X|.|.`.A.R.Y.T.U.f./ Y.T.|.}.@X@X'.$X,.O % 1 1 1 1 J /./.).m.m.W 7 % , % % 6 7 4 . > 1 ",
"p u O 4 6 w w w w w w w 5 L G I I I J I R E r._.R.R.G.3.) {.h.a.T.`.S.|.@X|.#X[ $ w p p i w o./.oXm.m.v.J 1 u y 9 y i y i p z G ",
"A G 5 i i i i i t i i a 9 v l z F l z J E.N.u.J 1.^ A a 4.$Xx.P Z.Y.S.|.|.H.2./ % D p k Z J W./.oXm.m.| i z Y F G F F G L T I F ",
"k k 1 e w 6 1 1 < 1 1 6 % 9 p y A R F D O.c.v.e.H , 1 7 a.T.3.1 k / / ) ) ! z $ * B @.j w R /.).E.m.v.J @ 0 k u k y y 0 y y k y ",
"7 7 > o 4 w i e w 6 # % 6 4 * $ 9 A v./.E.c.i.c.J Q ^ Q C.G.) ^ ^ / ` v z F z u 3 @.-.@.@.%.Q.OXm.m...t 1 7 i 7 9 5 5 4 + 1 7 1 ",
"r a 5 . w a i i i Z t 7 a w e 2 F J  .u.u.N.u.u.J *X-X*X4.y.*X=X=XL.{.L.Q z l F V @.-.-.;.*.@.#.p.m.J s Z s Z Z Z a Z Z 5 w t i ",
"4 6 $   O > $ # > > > % 7 4 5 + z  . .e.v.e.i.I 4.T.T.T.I.G.T.T.T.T.h.*X{.^ y e 5.C @.@.*.w.[.;.$.@.B 1 > % > > > > > 4 $ , 6 4 ",
"5 2 9 3 2 2 3 , $ 5 4 6 7 6 , 1 J c./.E.W R  .J ,.1.<.2.` ` 1.,.2.,.C.].].G.! 7  .u.>.C +.@.&.-.-.-.&.@.+.u u y u u k k k v 3 - ",
"L z G K F G I l e Z a a i i i k F J J R u.r.J ^ ~.H.n.~.s.h.Q.n.H.Q./ C.Y.Y./ R W [ -Xs.Q c x @.@.-.-.-.@.T Y I I I I I I T F u ",
"5 5 9 9 5 3 9 9 > 4 4 6 7 w 4 5 z ` #XQ.T J D ^ |.|.|.|.P._.|.|.XX|.Q l V.f.m.O.M.D.].(.*X*XH.N h @.@.&.j q y 9 9 9 0 0 y y 3 3 ",
"6 6 7 6 5 4 4 4 6 o , a i a p i p ) f.z./ D e K 7.G.I.V.` ` F.I.G.<.K z F W u.i.` Y.l.:.f.Y.Y.0.7 9 9 B % 9 i y 0 0 y t y O 1 w ",
"r r r r e e e r r , Z i r i i a a 8.&X*XQ a a Q 8./ / ` t.s./ ^ / g.! _ _ _ R  .) 6.z.=X*XH./ P i i t e 3 F F F v G G b G @ 4 i ",
", 4 6 7 7 6 6 w 4 , w 4 4 , , > % 9.@X@XQ , # ^ *X#X'.*X^.#X*X^.*X$XL F b L I .. .^ ] f.Y.Y.V.w e e w w O u z u k k v v v + % 7 ",
"a a r r i r r r r a r e w i 4 O 7 <.U.U.^ o 5 U G.`.R.T.,.d.R.R.`.f.4 , @ O @ I 5.L.=X#XX.) ^ 1 > > > % @ $ % @ - % % 4 < % s i ",
"w w w w w w w w w w e w w i e 4 w [ Y.Y.` N a t ) Y.T.a./ 8.G.Y.C.Q e i 4 1 t i v.] S.Y.R.[ 1 w w w w w i 7 7 t r t w r r 4 r w ",
"6 w w e r r t r r r r r e i e , u ! C.j.) >.` b e ) [ Q.) (.,./ Q w r r 1 < w H O.h f ( l.] 4 r w w t w w < 6 t w w 7 6 1 6 w 6 ",
"t 7 , > , , > # # # # % > , % , 2.+X(.H.{.=X{ U.K 8.#X@XQ 4.#X#XK 4 % < 1 - 3 H < & f d * $ % 4 1 4 4 4 4 > < < o > 6 w % O w p ",
"E _ R G O $ 7 , 5 , 7 6 6 6 t A b.!.@X~.H..X3.f.P V.R.G.Q ! `.`.[ I 3 u G F b G t 7 9 * 1 7 7 w w w w t t i i u 6 r Z S t F _ E ",
"F G G E , i Z Z p Z Z i i Z i k 0.G.G.Y.:.U.F.P ! f.G.7.P I j.j.X.G y y b v v b u 7 t % t a i i i i i i t t t i 7 w w i w z G F ",
"9 q p A , 7 w 6 6 w 6 , , , , , ` T.7.Y.[ k.l.P ] H.$X/ y J o.O.r.8.< 1 3 7 3 3 % @ % O 1 6 6 1 < 6 7 6 1 1 4 - > t w a , 1 q 9 ",
"t t w w e e e w w , r w p a p a z ! Q P s z z N *X0.3.k w H ..O.i.J w 7 7 7 7 > 6 7 w r r w r r 1   % v F F G 9 > i w i 7 z F b ",
"p Z r Z t t t i w 7 Z Z Z Z A A Z Z S Z D Z s / #X#X8.a i i 4..X.XP r w 7 r w 4 i r r w r w r r i > 7 F z v F z w r r t t G b v ",
"> > > , 6 5 4 6 > > 6 6 , 6 6 6 6 6 6 6 6 3 4 <.Y.Y./ 6 1 1 { Y.I.n # > 4 4 % o % % > > 1 < < < 1 > 7 v z z v p 6 w w w 5 q y y ",
"3 7 5 9 % k z z p p u u u % 9 k u u u u y y k F.Y.F.n 3 3 3 / I.K.k 4 F b F v p 3 @ 7 7 7 r w r t 7 0 v k z v 0 O # O 7 3 3 3 * ",
"L K L L 9 z F F G l G l I e k z z k v k u b ] 3.q./ 0 q q v Q.%XOXH.^ / { y y u z - 7 6 7 w 7 r t t t v z z v y w w 1 L L L L n ",
"z z z z * 9 q 0 q y y l k * y y p q 9 0 0 ,.@X@Xz.z.Q n 9 h I.Y.S.[.[.a.D.U 3 0 0 O % % % % % < < % - y u u k 2 1 w 4 b b b b b ",
"1 3 7 5 3 7 7 t e e , O 1 , 3 1 4 % @ @ X 0 <.0.K.T.R.d.0.k * - 1 2 * * * % % < % 1 z u u t u y 0 0 y y y u 7 O > , % 3 - - - 2 ",
"i a i i s a a a a Z s 1 s i a i i i i r O 4 7 4 4 6 t t r r % 6 4 4 6 7 7 6 7 r 2 y u u u k k v v b F F F F T 9 r i i w 7 O 7 w ",
", , > % > > 1 6 7 r 1 % w 6 4 4 1 < < < # 1 1 1 1 < 7 4 6 4 % 6 4 4 4 4 4 4 4 7 1 q u u k u u k u u z u z k I 7 w w w w 7 % t r ",
"7 7 w 7 # 1 < 1 % < 6 1 4 6 7 4 6 1 > o O 1 4 1 < > w 7 7 r + @ % 1 1 % % % % < O q v s v u s v z k v z z k I 7 % 1 1 1 > O w w ",
"i i i e 6 i r i 7 4 t t t r r t t r r $ @ t w r r 4 w w r t $ 6 r r r r r r r r @ q v z k k z k z k v u z u I 7 4 w w w 7 @ w w "
};
