/* XPM */
static char *ghost1684417293[] = {
/* columns rows colors chars-per-pixel */
"64 64 167 2 ",
"   c None",
".  c #57677B",
"X  c #58687C",
"o  c #59697D",
"O  c #5A6A7E",
"+  c #5B6B7E",
"@  c #5C6C7F",
"#  c #5D6C80",
"$  c #5D6D80",
"%  c #5E6D80",
"&  c #606F82",
"*  c #607082",
"=  c #607083",
"-  c #617083",
";  c #627183",
":  c #617184",
">  c #667688",
",  c #677689",
"<  c #687789",
"1  c #69788A",
"2  c #6A798B",
"3  c #6F7D8F",
"4  c #727F8F",
"5  c #728091",
"6  c #758394",
"7  c #7A8898",
"8  c #7F8C9C",
"9  c #818E9E",
"0  c #83909F",
"q  c #8592A1",
"w  c #8793A2",
"e  c #8995A4",
"r  c #8B97A4",
"t  c #8D99A7",
"y  c #8F9AA9",
"u  c #919BA7",
"i  c #929DAB",
"p  c #949FAD",
"a  c #95A0AE",
"s  c #9AA5B2",
"d  c #9DA7B4",
"f  c #9DA8B4",
"g  c #9FA9B5",
"h  c #9AAABB",
"j  c #9BAABB",
"k  c #9BAABC",
"l  c #9CABBC",
"z  c #9DACBD",
"x  c #9EACBD",
"c  c #9FADBE",
"v  c #9FAEBE",
"b  c #A2AAB4",
"n  c #A4ADB7",
"m  c #A5AFBB",
"M  c #A0AEBF",
"N  c #A1AFBF",
"B  c #A8AFB8",
"V  c #A6B0BB",
"C  c #A7B0BC",
"Z  c #A9B2BE",
"A  c #A2B0C0",
"S  c #A3B1C0",
"D  c #A3B1C1",
"F  c #A5B2C2",
"G  c #A5B3C2",
"H  c #A6B3C2",
"J  c #A6B4C3",
"K  c #ABB5C0",
"L  c #A9B6C4",
"P  c #AAB7C5",
"I  c #ABB8C6",
"U  c #ACB8C7",
"Y  c #ADB9C7",
"T  c #ADBAC8",
"R  c #AFBBC8",
"E  c #AFBBC9",
"W  c #B1B8C1",
"Q  c #B4BDC7",
"!  c #B9BFC6",
"~  c #B0BBC9",
"^  c #B1BCCA",
"/  c #B1BDCA",
"(  c #B6BFC9",
")  c #B7BFC9",
"_  c #B3BFCC",
"`  c #B6C1CD",
"'  c #B8C0C9",
"]  c #B9C2CB",
"[  c #B8C2CE",
"{  c #B9C3CF",
"}  c #BCC4CD",
"|  c #BAC4D0",
" . c #BBC5D1",
".. c #BCC6D1",
"X. c #BFC7D0",
"o. c #BDC7D2",
"O. c #BEC7D2",
"+. c #BEC7D3",
"@. c #BFC9D4",
"#. c #C0C8D1",
"$. c #C1C8D1",
"%. c #C3CAD3",
"&. c #C0C9D4",
"*. c #C0CAD4",
"=. c #C2CBD5",
"-. c #C4CBD4",
";. c #C3CCD6",
":. c #C4CCD6",
">. c #C4CDD7",
",. c #C5CDD7",
"<. c #C6CDD6",
"1. c #C8CCD2",
"2. c #C5CED8",
"3. c #C6CED8",
"4. c #C6CFD8",
"5. c #C7CFD9",
"6. c #CBD1D7",
"7. c #CAD1D9",
"8. c #C9D1DA",
"9. c #CAD2DB",
"0. c #CBD2DB",
"q. c #CBD3DB",
"w. c #CCD2D8",
"e. c #CDD3DB",
"r. c #CBD3DC",
"t. c #CCD3DC",
"y. c #CCD4DC",
"u. c #CDD4DC",
"i. c #CDD4DD",
"p. c #CDD5DD",
"a. c #CED4DC",
"s. c #CED5DC",
"d. c #CED5DD",
"f. c #CFD5DD",
"g. c #CFD6DD",
"h. c #CED5DE",
"j. c #CED6DE",
"k. c #CFD6DE",
"l. c #D0D7DE",
"z. c #D0D7DF",
"x. c #D1D7DF",
"c. c #D1D8DF",
"v. c #D1D8E0",
"b. c #D2D8E0",
"n. c #D2D9E0",
"m. c #D3D9E0",
"M. c #D3D9E1",
"N. c #D3DAE0",
"B. c #D3DAE1",
"V. c #D4DAE0",
"C. c #D4DAE1",
"Z. c #D4DBE1",
"A. c #D6DAE0",
"S. c #D4DAE2",
"D. c #D4DBE2",
"F. c #D5DBE2",
"G. c #D6DBE2",
"H. c #D6DCE2",
"J. c #D7DCE2",
"K. c #D6DCE3",
"L. c #D7DCE3",
"P. c #D7DDE3",
"I. c #D7DDE4",
"U. c #D8DDE3",
"Y. c #D9DEE3",
"T. c #D8DEE4",
"R. c #DADFE4",
/* pixels */
"                                                                                                                                ",
"                                                                                                                                ",
"                                                                                                                                ",
"                                                                                                                                ",
"                                                                                                                                ",
"                                                                                                                                ",
"                                                                                                                                ",
"                                                                                                                                ",
"                                                                                                                                ",
"                                                                                                                                ",
"                                                                                                                                ",
"                                                                                                                                ",
"                                                                                                                                ",
"                                                    F.F.F.F.F.F.F.F.F.F.                                                        ",
"                                                F.F.F.F.F.F.F.F.F.F.F.F.F.F.                                                    ",
"                                            F.F.F.F.F.F.F.F.F.F.F.F.F.F.F.F.F.                                                  ",
"                                          F.F.F.F.F.F.F.F.F.F.F.F.F.F.J.F.F.F.F.                                                ",
"                                        F.F.F.F.F.F.F.F.F.F.F.F.F.F.F.J.F.F.F.F.F.                                              ",
"                                        F.F.F.F.F.F.T.T.U.F.F.F.F.J.U.R.U.F.F.F.F.F.                                            ",
"                                      F.F.F.F.F.F.L.! B 1.L.F.F.J.6.b u W c.F.F.F.F.                                            ",
"                                      F.F.F.F.F.L.n % . 4 6.F.F.n.r @ % ; ' U.F.F.F.                                            ",
"                                      F.F.F.F.F.F.w X @ & o.U.F.n.9 % * = ^ U.F.F.F.F.F.F.F.F.                                  ",
"                              F.F.F.F.F.F.F.F.F.L.) 6 1 p l.F.F.I.$.e 8 V n.F.F.F.F.F.F.F.F.F.F.                                ",
"                            F.F.F.F.F.F.F.F.F.F.F.L.l.9.F.U.F.F.F.J.Z.n.J.F.F.F.F.F.F.F.F.F.F.F.n.                              ",
"                            F.F.F.F.F.F.F.F.F.l.%.$.n.T.9.i.U.U.n.t.J.J.I.J.n.J.F.F.F.n.l.F.J.I.&.                              ",
"                          9.F.F.&.E &.F.F.F.F.<.d 1 t Z 3 7 ) ) q 5 a Z V <.J.J.F.F.n.E F _ &. .L                               ",
"                          { i.o.N j F 9.J.F.F.F.F.b + = < & , , : 1 % X i n.n.I.F.F.i.D   k x l l                               ",
"                            F x       9.F.F.F.F.F.l.f s } 9 + + y -.) { n.n.I.n.F.J.i.                                          ",
"                                      n.F.F.F.F.F.F.K.K.I.t.m m i.I.J.I.F.K.F.F.F.F.F.                                          ",
"                                    F.F.F.F.F.F.n.F.F.F.F.F.T.F.J.J.n.l.v.n.F.F.F.F.F.                                          ",
"                                  n.F.F.F.n.i.i.n.F.F.F.F.F.F.F.F.F.n.9.i.F.F.F.F.F.F.                                          ",
"                                9.F.F.F.i.9.5.i.F.F.F.F.F.F.F.F.F.F.n.t.n.F.F.F.F.F.F.F.                                        ",
"                                v.F.n.t.5.-.t.F.F.F.F.F.v.l.F.F.F.F.n.i.n.F.F.F.F.F.F.F.                                        ",
"                                9.i.i.i.9.l.F.F.F.F.F.v.t.l.F.F.F.F.n.n.F.F.F.F.F.F.F.F.                                        ",
"                                  D _ F.v.F.F.F.F.F.F.t.t.n.F.F.F.F.n.n.F.F.F.F.F.F.F.F.9.                                      ",
"                                    &.F.F.F.F.F.F.F.l.t.v.F.F.F.F.F.F.9.F.F.F.F.F.F.F.F.i.                                      ",
"                                    i.J.F.F.F.F.F.F.v.l.F.F.F.F.F.F.F. .9.F.F.F.F.F.F.F.n.^                                     ",
"                                    i.F.F.F.F.F.n.l.F.F.F.F.n.F.F.F.J. .E v.F.F.K.K.F.F.n.E                                     ",
"                                    ;.c.F.F.v.5.&.l.F.F.n.i.t.n.F.F.J.5.x E i.I.K.n.K.K.h.G                                     ",
"                                        -.o.I I i.F.F.F.n.5.5.l.F.F.J.9.D k L <.n.K.K.n. .x A                                   ",
"                                            k o.I.F.F.F.i.t.9.u.n.F.F.i.D j k x E  . .^ c l M                                   ",
"                                              9.J.F.F.n.i.i.i.i.n.F.F.9.x l x j j j l j l x                                     ",
"                                              t.F.F.F.F.i.I J @.l.F.I.o.l l   l l l l l c c                                     ",
"                                              <.n.F.F.F.` k j   { 5.9.U           l l V                                         ",
"                                                9.F.F.;.A                                                                       ",
"                                                  5.;.                                                                          ",
"                                                                                                                                ",
"                                                                                                                                ",
"                                                                                                                                ",
"                                                                                                                                ",
"                                                                                                                                ",
"                                                                                                                                ",
"                                                                                                                                ",
"                                                                                                                                ",
"                                                                                                                                ",
"                                                                                                                                ",
"                                                                                                                                ",
"                                                                                                                                ",
"                                                                                                                                ",
"                                                                                                                                ",
"                                                                                                                                ",
"                                                                                                                                ",
"                                                                                                                                ",
"                                                                                                                                "
};
