/* XPM */
static char *player1684420567[] = {
/* columns rows colors chars-per-pixel */
"64 64 197 2 ",
"   c None",
".  c #2A1E14",
"X  c #261A10",
"o  c #2D2016",
"O  c #2F2318",
"+  c #33261B",
"@  c #35271C",
"#  c #3C2C21",
"$  c #3F362E",
"%  c #3F3731",
"&  c #522F11",
"*  c #413125",
"=  c #463529",
"-  c #493A2E",
";  c #453A33",
":  c #4A3D32",
">  c #403731",
",  c #503E30",
"<  c #573C26",
"1  c #55463B",
"2  c #5A473A",
"3  c #4E4239",
"4  c #6F5239",
"5  c #735337",
"6  c #4E4E4E",
"7  c #574A41",
"8  c #544C46",
"9  c #5B514A",
"0  c #535353",
"q  c #595757",
"w  c #5C5B5B",
"e  c #63564C",
"r  c #6A5749",
"t  c #6C594A",
"y  c #625246",
"u  c #715C4E",
"i  c #655D58",
"p  c #715F50",
"a  c #66605C",
"s  c #756253",
"d  c #796555",
"f  c #796758",
"g  c #7C6A5C",
"h  c #726358",
"j  c #646363",
"k  c #6A6561",
"l  c #6B6866",
"z  c #6B6B6B",
"x  c #7F6E62",
"c  c #7E7167",
"v  c #79736D",
"b  c #747473",
"n  c #7C7B7B",
"m  c #92571E",
"M  c #95591E",
"N  c #86572B",
"B  c #875426",
"V  c #965A21",
"C  c #985D24",
"Z  c #815731",
"A  c #A05F21",
"S  c #9B642F",
"D  c #AA6623",
"F  c #B26B26",
"G  c #B16D2C",
"H  c #BF7227",
"J  c #BF752C",
"K  c #B17030",
"L  c #826D5E",
"P  c #89705F",
"I  c #99714C",
"U  c #A07954",
"Y  c #816F61",
"T  c #837264",
"R  c #8A7465",
"E  c #8A7769",
"W  c #8B7A6C",
"Q  c #867569",
"!  c #937D6D",
"~  c #8C7D72",
"^  c #807F7E",
"/  c #947F70",
"(  c #8E837A",
")  c #948174",
"_  c #9A8475",
"`  c #95867A",
"'  c #9A8A7F",
"]  c #9A887A",
"[  c #A28C7C",
"{  c #A88F7D",
"}  c #A8907F",
"|  c #CE9A68",
" . c #848383",
".. c #8A8A8A",
"X. c #888887",
"o. c #9B8C82",
"O. c #918D8B",
"+. c #9D9086",
"@. c #959595",
"#. c #9B9B9B",
"$. c #A18E82",
"%. c #A39185",
"&. c #AD9483",
"*. c #A3968C",
"=. c #A6998F",
"-. c #AA9A8D",
";. c #AD9788",
":. c #B39B8A",
">. c #B09886",
",. c #AB9E94",
"<. c #A59B93",
"1. c #B29E91",
"2. c #BAA08E",
"3. c #B7A08F",
"4. c #ADA29A",
"5. c #AFA096",
"6. c #BDA493",
"7. c #B2A69C",
"8. c #B4A89F",
"9. c #BBA698",
"0. c #A19FA0",
"q. c #A4A4A4",
"w. c #A9A7A6",
"e. c #ADADAD",
"r. c #B4AAA3",
"t. c #BAADA4",
"y. c #BCB2AB",
"u. c #BEB0A7",
"i. c #B4B4B4",
"p. c #BBBABB",
"a. c #C4A997",
"s. c #C6AC9B",
"d. c #C5AB99",
"f. c #CAB09F",
"g. c #D9B591",
"h. c #CBB3A3",
"j. c #C3B6AC",
"k. c #CCB8AC",
"l. c #C2B1A7",
"z. c #D3B8A7",
"x. c #D5BBA9",
"c. c #D9BEAC",
"v. c #D1B6A4",
"b. c #C5BAB3",
"n. c #CBBDB3",
"m. c #C7BFB8",
"M. c #D1BEB2",
"N. c #DBC0AE",
"B. c #CAC2BB",
"V. c #D3C2B6",
"C. c #DCC3B3",
"Z. c #D5C7BE",
"A. c #DDC9BC",
"S. c #E3C2AD",
"D. c #E2C5B3",
"F. c #E6C9B6",
"G. c #E6CBB9",
"H. c #E9CEBC",
"J. c #E8CBB7",
"K. c gray76",
"L. c #CCCBCB",
"P. c #D4C9C1",
"I. c #DCCDC3",
"U. c #D5CEC9",
"Y. c #D1C7C1",
"T. c #DCD2CB",
"R. c #DBD1C8",
"E. c #D3D3D3",
"W. c #D7D8D8",
"Q. c #DCDCDC",
"!. c #E2CFC3",
"~. c #E2D1C6",
"^. c #EAD2C3",
"/. c #E4D5CB",
"(. c #ECD6C9",
"). c #EDDACD",
"_. c #E1D7D1",
"`. c #E5D9D2",
"'. c #EDDDD2",
"]. c #E5DED9",
"[. c #F0DFD3",
"{. c #EFE1D7",
"}. c #ECE2DC",
"|. c #E5E1DD",
" X c #F1E1D6",
".X c #F2E5DB",
"XX c #F5E8DF",
"oX c #E1E1E1",
"OX c #EEE7E2",
"+X c #F5EAE3",
"@X c #F8EEE7",
"#X c #F6EEEA",
"$X c #F9EFE8",
"%X c #F0E7E1",
"&X c #F6F1ED",
"*X c #F9F1EC",
"=X c #FAF4F1",
/* pixels */
"                                                                                                                                ",
"                                                                                                                                ",
"                                                                                                                                ",
"                                                                                                                                ",
"                                                                                                                                ",
"                                                        s s s s h                                                               ",
"                                                  p d ) t.A.T.R.b.' f s                                                         ",
"                                              u R h.(.{..XXX%X+X+X%X%XU.W p                                                     ",
"                                            s a.D.H.[.XX.XXXXX+X@X@X@X#X&X7.s                                                   ",
"                                          d 2.F.F.H.[. X.X.XXX+X+X+X%X*X*X&Xt.h                                                 ",
"                                        u } J.F.F.J.). X[.+X+X%X+X%X/.%X*X*X#X=.u                                               ",
"                                        E D.J.F.F.J.(..X[.XX.X+X@X+X}.n.&X&X=X|.g                                               ",
"                                      d 6.F.F.F.F.F.^.[..X.X%X.X+X+X+X.X+X*X*X&Xr.t                                             ",
"                                      L S.F.F.F.F.F.J.(.[..X.XXXXX+X+X@X#X*X&XOX' p                       6 6                   ",
"                                      [ D.F.F.F.D.D.D.D.^.'..X.XXX+X+X@X#X*X*X}.4.`                   6 6 0 6                   ",
"                                    u s.F.F.F.D.{ P ! Y u L j.'..X+X+X@X@X%X/.o.,.r.                6 0 ^ @.q                   ",
"                                    p v.G.F.F.F.D.D.{ * o O * d M..X+X@X.X' - o i ,.              6 z p.oXi.q 6                 ",
"                                    s x.F.F.F.F.J.D.R O . . . + : W /.$Xt.= . . 3 ~               j L.Q.Q.i.z 6                 ",
"                                    L c.G.F.F.F.J.f.2 . . . . . . @ E +X,.o . X : Q               z L.oXL.i.#.6                 ",
"                                    E C.H.F.F.F.J.a.= . . . . . . . r +X=.. . . ; Y             6 n W.oXK.i.#.0                 ",
"                                    W A.^.G.F.F.J.:.* . . . . . . . t +X=.. . X - x             q K.oXE.i.i.b                   ",
"                                    T A.(.H.G.F.F.{ + . o . . . . . p +X-.. . . ; T             z L.Q.E.i.w.q                   ",
"                                    f A.(.H.H.F.F.:.* . . . . . . + $.@X,.@ . X 7 '           6 0.W.Q.p.i. .0                   ",
"                                    s A.[.(.^.F.F.D.] , @ o . . . , I..Xl.e = 1 o.y.          6 q.W.W.i.i.j                     ",
"                                    s V..X).^.F.F.H.^.M.T 2 - + # T '.n.x b.~.].OXt.          b K.Q.L.i.#.w                     ",
"                                      ` '.'.).S.D.J.H.).^.^.k.%.-.~.[.,.O ,.$X$X}.+.          #.W.oXp.i.b                       ",
"                                      g A..X[.^.H.S.D.).).[.'.).[..X~.1 X Y '.$XU.T         6 q.Q.W.i.w.z                       ",
"                                        W /. XH.H.H.F.J.(.).[.'.[.[.P.# . 2 P.=XP.t         b K.oXK.i. .                        ",
"                                        t -.XX^.^.H.D.F.F.(.'.[.[..X!.7 # ' [.#XY.r         ..W.oXp.e.n                         ",
"                                          %.+X X'.^.F.F.F.F.(.^.G.[.[.n.,.`.+XP.r.t         @.Q.L.i.@.0                         ",
"                                          ) P.XX[.(.^.F.F.S.G.s.s.H.[.[.[.%X+X~ s         b K.oXK.i...                          ",
"                                            8.}.'.(.F.S.F.D.N._ :.H.'.'..X'..X~           b E.W.p.q.w                           ",
"                                            q w z <.A.G.C._ ` m.%.x.H.V..X X`.W           @.Q.L.i.#.0                           ",
"                                            6 #.i. .k T     ,.R._ :.c.k.`.P.o.p         j K.Q.K.e.z                             ",
"                                        0 q q n q.0.z       6.s.    s p s s p     m M   l E.L.i.w.q                             ",
"                                          n p.K.w.q.^ e d Y f.;.d d p f           D F C I P.L.i.^                               ",
"                                          w  .#.e.@.b w.=X].o.b.&X#XY.U.,.      5 F H J G S U 7.j                               ",
"                                          z n 0... .i a.H.D.z.c.G.F.M.b.OX%.    c N M F | g.K C N                               ",
"                                        j e.K.n w i i ! ! / f R ! ! / h.).C.R   v ( d B V G J H F M M                           ",
"                                          w w ^  .0 ` B.y.B.<.u.b.b.y.E x.F.E q a 7.j.d 4 B M F J F M                           ",
"                                          *.T.v 6 8 *.'.'.(.V.I.'.'.P.s [ 6.4...r.V.~.OX}.7.5 M m D                             ",
"                                          ! t.c 8   T 6.N.6.f ] c.v._     w  .O.) x.[ -.C.f._     m                             ",
"                                          t.*Xo.    c W d Y +.` d g *.      q k f $.U.#Xj.f                                     ",
"                                          t.+X`     *.+X_.}.T.OXT.}.OX        z k f %.c.c.6.                                    ",
"                                          >.H.!     [ G.H.C.) h.^.!.9.        q O.U.#Xo.d p                                     ",
"                                          [ J.! t     :.C.:.f 1.c.h.L           O.) c.c.R                                       ",
"                                          _ s.R T h   s T t.~ t.T s           w l < 5 &.L                                       ",
"                                        *.].B.U.].] 6.T P.`.f t.XX]           6   & &                                           ",
"                                        t.`.`.n.~.$._ { C.x.u ;.^.)                                                             ",
"                                        ;.c.D.[ v.s.t _ z.%.  $.9.~                                                             ",
"                                        ! a.a._ >.&.s *.T.R   j n  .^                                                           ",
"                                          s p       r.b.)     j n @.j                                                           ",
"                                                    -.@X,.      l.'.c                                                           ",
"                                                    :.H.!     y 2.F.f                                                           ",
"                                                  T z.c.Y     1 2.C.h                                                           ",
"                                                7 T [ E :     ( ].}.u.h g 9                                                     ",
"                                                W `.Z.4.T 9 $ ) D.k.~.n.:.~                                                     ",
"                                                7 ! 3.C.C.-.E : > % ;                                                           ",
"                                                                                                                                ",
"                                                                                                                                ",
"                                                                                                                                ",
"                                                                                                                                ",
"                                                                                                                                ",
"                                                                                                                                "
};
