/* XPM */
static char *space__1_1684433787[] = {
/* columns rows colors chars-per-pixel */
"64 64 32 1 ",
"  c None",
". c #262526",
"X c #282729",
"o c #2C2B2C",
"O c #322E2F",
"+ c #2F2E30",
"@ c #302F31",
"# c #2F3031",
"$ c #333334",
"% c #373738",
"& c #383739",
"* c #373839",
"= c #3B3B3D",
"- c #403E3F",
"; c #3F3E41",
": c #403F42",
"> c #3F4041",
", c #434245",
"< c #484647",
"1 c #474648",
"2 c #484749",
"3 c #474849",
"4 c #4B4B4C",
"5 c #4E4F50",
"6 c #514F50",
"7 c #4F5051",
"8 c #525455",
"9 c #555758",
"0 c #585758",
"q c #57595A",
"w c #585A5B",
"e c #605F60",
/* pixels */
"                                                                ",
"                                                                ",
"                                                                ",
"                                                                ",
"                                                                ",
"                                                                ",
"                                                                ",
"                                                                ",
"        ;==;;;;$:::::,<,,,:,,1,1<:,,$:,,;;;,,,;o::;;::::        ",
"        ;;=;;;:$::,,,,,,<,,4,,11,42,;,;,;;;;&;:X::;;::::        ",
"        oooooo$O++@@@@$@@$$&#$$#$$%@@@%@o++o+oo+ooooo.oo        ",
"        =&:;,::<::,,$,,<1434333*44,44,1,1,;,:,:::::;;&::        ",
"        :=-2:,:<::,,%4,42444774*44444344<<&,,,,,::::;;;;        ",
"        &&$&=-==;;;:%&,:::,:>>>*,,3,,::=:;+;=;&%o&&;%&&%        ",
"        ;;:,<,:&:,<<445455557787657515544<34,,1o,:::,:::        ",
"        ;::,<,<&2<444455566887898885,55554444<,+11::::,:        ",
"        =;,:,<<&<4445558q88998qq998739784774433o2::1:::;        ",
"        $X@%&==:&&;;@,,,>>>>4>>;33333>>>>>$=****&$$%o@$@        ",
"        :;,,<4464455=899qqwwqqq>q9qq7qq98837743321::&;:;        ",
"        ,=,,1<465466;99wqwwwwww>wwqqq8qqq84874534211;,,;        ",
"        OooO$$$&$%==@;>>>>>>>>>;>>>,======**$#*#++@++++.        ",
"        ,,,1<44,58999wqqqq>wq9qqw9ww3wqw8qq7777o42221:,:        ",
"        ,,<<444<888wwwqqqqqqwqwwq9e93ww8q8q7873#4412:::;        ",
"        ,,<4246,8889qqqqqqqwqqwq989q5989q888q73#411:2,,;        ",
"        ;==,,11:1357;7788888988>888853888333443331,,:$::        ",
"        ,:,248888www>qqqwqwqwww>qqqwqqqqq93887885444,::,        ",
"        ,;1244889www>qwqqqqqwww>qwwq8qqqqq>877778211-<::        ",
"        oXXoooX++#%%*$;;;>>>>>>>>>>>===***#$#*#oXo+o$OoO        ",
"        ,144569>wqwqwqqqqq9ww9w7888948788qq8q9q*94345646        ",
"        4124588>qwwwqqwqq999wq9wqq9q4qqqq999qqq*8754,4<:        ",
"        ,,1<265;888857q98738978878q738887849974#4421,,,,        ",
"        ,=<4588e99qw*qqqwqw9qww>q9qqq8qq8q4779897844=13,        ",
"        ,<44408eweww>wqwwwwwwww4qqwwqwqq9q8qqq788743-41,        ",
"        <:44500wwwww>wqq9w9wwww>qqwwwwqqqq7qqqq97743,1,,        ",
"        @%$&@&:$>>4>>>>>>>>5>>>4>33>>3>>>>=>>****=***%%$        ",
"        ,<4450w<88wwwwwwww>9wwwwwwqq7wwwqqqqqqq=8777,<<,        ",
"        ,44446w:9wqwwwwwwww9q88wwwqq7wqqqwqqwww*8644<<<,        ",
"        ;&&&::<%>7>>>7>8>87>444>>>>43>>4334433=**--*==&#        ",
"        ,,4448wwqwww>wwqwwwwwqw>ew9qqqewqq79ww987743,-,,        ",
"        ,:,<56088qww>wqwwwwwwww>qqqqqqqqqw7qww97644<>,,,        ",
"        ,,1444868qqq>qq8www989q>qqwweqwqqq>ww987444<:1,,        ",
"        &;;;;;;&>>7>>87>4>447>454477>777777773,*,,:;;=&=        ",
"        ,113444;89qwqqqq999www9qq87q4qqwwwqq977*44<41,,:        ",
"        :1,,:44;>q88qqwwq89qwwqwwqq77qqqqww8737*444<,,,,        ",
"        +++$#**#$;$;#;**;$+$*;;$$*>>****===***$#$%@ooo+o        ",
"        ;;,,>4>5>8>8>888qqqqq99&8qqqqqqqqq4777742211&,,;        ",
"        ;;,133>78788;89qq998qq9;8qqqwqq989>74734<,1,:,,>        ",
"        ;;;>>15>7>>>o77889qq898;q8qq88897777433>,,,,=;;=        ",
"        :;=;;=1$:<44452,45&58898888717655,411:<$,,::::::        ",
"        ,::,,,,$<4444555653888898889186565444<<@,,,,::::        ",
"        ,:,:,,,&<,244445555555558755,5554413<<,@=,,:::::        ",
"        Xo+XoOooXXoo.ooXXXX+o++o+##$++$@$@$@@@$@O$o@$@@@        ",
"        :=:::,,<<,<,@44<4344455@454444444,:<<1,<,2,;;&::        ",
"        :-::::,,:,4,@,<,3354245@34344<,<,4;,,<,,-:::;::,        ",
"        =%-===&:;=;;@&;;;;:::::+,:::;::=::@:===&O%&=&;&&        ",
"        :::::::$;;::,,5,,,,,,,,,,1,1;:,:,,,::,,o>,:::::;        ",
"                                                                ",
"                                                                ",
"                                                                ",
"                                                                ",
"                                                                ",
"                                                                ",
"                                                                ",
"                                                                "
};
