/* XPM */
static char *space1684421355[] = {
/* columns rows colors chars-per-pixel */
"64 64 159 2 ",
"   c #000300",
".  c #040E02",
"X  c #090E03",
"o  c #070C08",
"O  c #090F0C",
"+  c #061201",
"@  c #0B1405",
"#  c #0D1A06",
"$  c #071308",
"%  c #0C140C",
"&  c #0E1A0D",
"*  c #111507",
"=  c #111D05",
"-  c #11170D",
";  c #131B0D",
":  c #191F0E",
">  c #0C1511",
",  c #0E1B11",
"<  c #0E1A1A",
"1  c #131713",
"2  c #131C13",
"3  c #191D15",
"4  c #131D1B",
"5  c #191F1A",
"6  c #142407",
"7  c #15220D",
"8  c #19230D",
"9  c #15290E",
"0  c #1E2F0F",
"q  c #152214",
"w  c #1A2315",
"e  c #1C2A14",
"r  c #16221B",
"t  c #1B241C",
"y  c #172818",
"u  c #1D2A1C",
"i  c #202215",
"p  c #232B14",
"a  c #20251A",
"s  c #222B1C",
"d  c #292B1E",
"f  c #23331E",
"g  c #161E20",
"h  c #181D20",
"j  c #162322",
"k  c #1C2523",
"l  c #1E2A23",
"z  c #1D262A",
"x  c #1E2A2A",
"c  c #1E3121",
"v  c #1F2C30",
"b  c #212722",
"n  c #222C24",
"m  c #282923",
"M  c #20272F",
"N  c #222D2B",
"B  c #292E2B",
"V  c #233224",
"C  c #2A3324",
"Z  c #2A3B27",
"A  c #25322C",
"S  c #29342D",
"D  c #273C2B",
"F  c #2B392C",
"G  c #30372F",
"H  c #313C2C",
"J  c #232E32",
"K  c #292E31",
"L  c #252F3B",
"P  c #253333",
"I  c #2A3433",
"U  c #253836",
"Y  c #2C3A33",
"T  c #26333A",
"R  c #2A353B",
"E  c #2D3A3B",
"W  c #303730",
"Q  c #323C35",
"!  c #31363D",
"~  c #323D3C",
"^  c #2E4133",
"/  c #2F403A",
"(  c #344134",
")  c #35433C",
"_  c #39453D",
"`  c #344938",
"'  c #3A493E",
"]  c #252F41",
"[  c #2A3643",
"{  c #2D3A43",
"}  c #2E3B4A",
"|  c #323D44",
" . c #323E4B",
".. c #2F3E55",
"X. c #323E51",
"o. c #2F4145",
"O. c #354344",
"+. c #394544",
"@. c #364944",
"#. c #3C4A44",
"$. c #35434C",
"%. c #3A454C",
"&. c #36484D",
"*. c #3C4A4B",
"=. c #3F524E",
"-. c #354353",
";. c #394554",
":. c #374953",
">. c #3C4B54",
",. c #36465A",
"<. c #3A4659",
"1. c #36485A",
"2. c #3D4B5B",
"3. c #3D5057",
"4. c #3F515C",
"5. c #3E4D61",
"6. c #3F5062",
"7. c #414A47",
"8. c #414D4D",
"9. c #43514E",
"0. c #424D54",
"q. c #414E5C",
"w. c #445254",
"e. c #495355",
"r. c #4E5A56",
"t. c #44535C",
"y. c #49555C",
"u. c #475A5B",
"i. c #4B595C",
"p. c #414E62",
"a. c #454F68",
"s. c #445363",
"d. c #495664",
"f. c #465865",
"g. c #4B5A64",
"h. c #455569",
"j. c #49566B",
"k. c #475969",
"l. c #4C5B6B",
"z. c #515E65",
"x. c #515E6C",
"c. c #455070",
"v. c #4D5C71",
"b. c #4F5D78",
"n. c #515E72",
"m. c #4E616D",
"M. c #526163",
"N. c #53626D",
"B. c #4F6072",
"V. c #536373",
"C. c #596575",
"Z. c #576976",
"A. c #586977",
"S. c #55647A",
"D. c #58647A",
"F. c #57697B",
"G. c #5A6A7B",
"H. c #5E717F",
"J. c #5C6B80",
/* pixels */
"t b k t r : 3 d s ; w 2 2 2 3 5 7 q % q u e w m t n A N b S 1 p 8 7 : q k y r t N b q t 1 j a % = & 3 r x R I I 8 : ^ ` ~ z 2 d ",
"w b z h 4 3 3 k n t l k r - 3 - @ l F ) ( u t n *.8.w.*.+.| t @ r n A S E O.*.w.@.O.Y Y M R Y l q A I E $.*.+.#.u s ' 9.w.E r - ",
"- 5 M J T I T | R I ! I N r w - y ) w.i.w.) Y +.2.t.y.s.d.p.O.> N +.0.>.>.t.y.d.t.3.:.>.$.-.$.U q @.=.4.l.s.y.y.#.@.e.u.l.0.Q 3 ",
"a W %.q.t.t.>.<.-. .;.$.O.A n - I 9.f.m.N.i.u.d.j.m.m.l.v.l.i.r J &.y.s.s.h.s.d.6.4.3.h.2.2.&.v l u.M.B.F.l.l.h.x.g.N.N.C.Z.t.Y ",
"r I -.<.2.<.-...2.2.4.2.>.| Y & E w.l.V.G.C.n.l.m.Z.A.A.V.M.M.t U $.t.f.l.k.h.j.h.t.t.d.j.t.$.l U M.N.C.F.B.S.l.V.l.Z.C.G.C.N.@.",
"r E <.,.5.s.p.p.5.5.s.5.q.O.) q Y y.m.V.A.V.V.l.s.m.m.V.k.l.M.A @.2.u.g.l.l.f.l.l.h.s.d.j.w.+.u l *.d.N.S.V.G.n.B.j.V.C.G.x.x.@.",
"l O.2.5.1.<.<.<.2.s.5.5.<.$.+.k A e.x.v.v.N.V.V.N.V.m.m.k.g.w.l | >.t.h.l.V.v.V.v.s.s.s.s.>.@.c , N 2.z.l.V.S.V.V.m.N.V.x.l.N.O.",
"t $.s.5.5.<.;.;.-.2.<.,.-.[ %.k r *.d.l.l.V.V.m.m.m.f.V.l.g.) , | q.g.h.v.n.v.j.v.6.s.s.s.*.@.V % l w.N.l.V.C.l.m.l.x.N.V.x.g.P ",
"M %.,.2.,.q.5.2.<.<.2.X.<.%.! 5 r >.l.j.V.B.k.l.j.l.f.V.g.e.#.% | t.j.d.n.G.l.<.s.s.h.6.q.w.) w 2 w.v.B.C.x.j.l.l.l.k.k.v.s.d.M ",
"k  .<.a.q.p.2.<.;.;.2.-.;.! N - r *.g.s.m.m.k.k.g.g.s.k.s.q.y.J T >.g.V.B.h.h.V.y.6.h.v.j.<.I r , *.g.m.C.N.m.m.k.m.l.k.v.s.0.r ",
"P $.;.p.<.;.<.>.;.;.q.>.&.R n % 2 w.g.j.l.f.u.6.u.m.h.f.h.d.z.| %.t.g.j.h.h.5.1.3.s.h.h.s.2.[ < : #.g.l.V.g.f.g.f.l.m.m.l.q.7.t ",
"R $.<.q.<.>.<.p.;.-.<.:.$.P x 2 2 0.d.s.f.s.l.s.s.g.k.l.d.y.y.| ) t.g.2.5.h.h.6.2.s.k.6.s.t.| 4 & ) u.l.x.x.l.l.V.Z.m.Z.l.t.7.N ",
"R ;.<.<.0. . . .X.} -.$.$.T J 4 z 0.d.q.s.t.x.x.h.l.j.l.f.w.#.N @.$.$.;.t.h.g.l.h.h.h.j.f.*.Y t 2 ~ u.j.d.j.d.x.n.V.m.N.d.t. .B ",
"{ $.;.%.| T ! T L J [ [ [ I J 4 h ! 0.q.y.g.d.j.j.g.M.g.e.+.k @ O.~ L J  .0.>.$.5.2.q.w.+.( s % t | f.g.d.z.z.n.x.N.f.f.q.0.I a ",
"x E I N S C Q Q I W ~ ~ O.! ~ P X 2 Q ~ O.8.O.>.*.#.@.) ~ S 2 O z #.7.I I *.w.9.>.w.w.@.( ( F w t I *.0.y.M.y.i.z.i.*.*.~ ! 5 % ",
"& u b 2 q = 3 % - 1 q , 2 2 t 2 i 3 n r 2 w % 2 s y & % 2 k b B % k M j 4 k z N n 4 3 , & & : 3 3 5 I P S I z j P n 2 2 5 B 1 - ",
"s : d B b J R J E @.O.V 9 0 2 ! n N ) r Y A V , w t > > 5 2 2 a a a n B n w r 1 r b z N s 0 a : W b 5 1 3 r , , 7 , , 4 q e @ m ",
"- 5 W _ 7.y.z.x.N.x.y.#.( ^ k ! S 7.w.0.w.O.#.#.) O.~ ~ ) N r ; % k K ! Q ~ _ I Y O.O.| S C C r b I ! ! ~ | *.9.*.*.>.w.w.' m t ",
"% N +.0.y.d.j.l.j.l.x.d.@.I 5 N k r.7.i.z.M.i.w.*.&.{ $.$.O.Y c 4 K R { R E E L R [ [ | Y C b 2 < | %.0.>.;.<.s.j.h.p.h.x.i.7.S ",
"b +.y.z.C.G.n.l.N.v.b.b.z.0.n 5 2 i.y.z.x.V.l.g.t.<.>.q.3.&.O.j z T [  .} [ [ } $.-. .-.$.%.E 4 1 *.&.;.s.p.h.h.h.6.h.h.G.x.0.b ",
"t +.t.f.V.S.c.l.m.l.v.h.x.q.n + r _ 0.s.x.n.p.l.x.p.p.q.2.%.O.4 N [ } -.<.-.>.<.<.<.-.-.X.[ R 5 3 +.O.:.s.h.l.h.g.h.t.p.n.a.0.b ",
"t *.g.l.v.v.h.l.B.C.V.l.l.y.~ : u Y $.X.l.n.p.p.j.p.q.X.<.X.0.M t | X.X.<.;.-.X.>.2.<.:.X.[ ! b q ) O.&.4.1.s.h.l.i.2.<.a.p. .M ",
"- ~ y.j.v.k.k.N.S.l.d.s.n.z.*.w q #.i.t.j.n.C.n.g.s.j.s.l.p.0.J % E  . .<.>.<.<.;.>.>.;.} [ Y n ; V ) :.4.6.k.n.l.x.z.d.j.a.B - ",
"3 Q y.l.v.l.l.g.b.v.V.n.n.p.%.n y ' O.s.j.l.C.N.l.k.h.,.s.q.f.{ 2 P [ X.<. .%.t.<.2.%.$.X.| Y u q b E :.6.6.6.h.c.j.t.a.a.q.w * ",
"9 ` u.Z.S.v.5.m.j.f.B.V.v.a.g.*.l #.>.d.j.s.2.j.l.d.l.q.2.p.y.E e S { } :.:.4.p.5.;.>.2.;.} T v j 2.:.6.h.5.s.j.h.l.l.k.f.*.x u ",
"p ` *.g.l.S.j.l.l.l.l.j.l.s.z.*.y 7.0.2.<.<.<.q.x.d.h.q.s.>.E q # A [  .>.2.s.t.5.t.2.<.-.} { Y l *.$.5.5.2.p.s.l.s.g.f.2.:.A + ",
"8 Z #.x.C.G.j.t.k.4.f.y.j.y.i.) S e.e.g.h.l.g.l.t.>.t.s.s.>.Y 6 6 V R  .;.;.2.2.:.2.:.2.:.{ { v x >.-.5.h.6.s.h.s.>.s.s.q.0.Y 9 ",
"m G 7.C.V.V.B.m.l.k.m.l.l.q.@.j l E { t.s.t.0.y.>.2.f.6.s.*.( 0 s n N { ;.$.%.&.1.<.-.p.,.} E A r O.$.5.5.5.5.p.s.t.s.6.d.&.z f ",
"s ) i.N.s.f.j.l.k.k.j.j.l.q.+.4 y I O.y.t.2.2.w.<.s.l.3.6.*.( f t N I | ;.X.;.<.;.;. .-.X.[ [ x q / &.3.2.t.2.s.s.s.6.5.s. .N n ",
", +.i.t.&.s.s.t.f.4.y.t.d.y.t.Y q Q *.u.>.t.w.0.:.3.3.$.t.*.Q s O b K P L ] } R  .$.$.[ [  .[ n , x E :.:.t.>.0.q.>.t.2.5.d.+.k ",
"t ~ Q S x @.*.8.e.w.8.7.0.0.7.S u F / 3.>.t.y.>.:.@.@./ @.I k q a F F I [ [ | W Y S ~ E L | P N Z A I +.>.i.9.+.*.@.>.*.;.q.! % ",
"3 5 @ @ 7 q ; w r t n n I J S & f q < E &.3.>.$.U Y Z Z ( s t m a * + q N z z b V % e t h 5 > C s 2 % r P ) n r r V Y Y %.+.k q ",
"j x E { R k l ^ V u e 9 ; % q @ 2 w & V A Y O. .~ O.+.~ e ; a B ; q 5 k u q k Y o.&.U N k l s = * 8 2 k P N P A 2 = 6 8 - @ 5 m ",
"b ~ *.O.| O.O.) @._ ~ F A N A 4 # V F +.*.0.0.y.u.u.y.*.S q - % r B I ~ ) / %.y.3.4.;.$.I N b 1 % n ~ %.w.t.y.e.+.) ( F l 2 - * ",
"3 P O.$.;.*.&.&.%.$.*.$.-.%.0.E $ ) 9.g.f.y.t.i.t.w.3.:.) F n r P %.<.>.2.;.<.2.:.2.4.2.-.| | K @ I 0.t.d.l.x.g.x.g.i.w.O.A t = ",
"; l R $.<.q.>.2.2.<.2.<.<.<.2.T q *.s.l.l.h.4.g.l.j.k.u.w.9.` c I %.<.q.t.2.p.p.2.6.2.2.:.X.&.{ 2 +.i.l.h.j.n.j.b.l.g.g.u.w.( u ",
"- A O.-.q.a.p.5.h.6.t.2.2.<.<.T x e.s.k.v.v.h.N.m.m.B.m.g.e.^ q E &.:.4.h.6.h.h.t.4.2.2.>.-.;.E 4 O.i.l.l.l.V.V.B.B.l.k.f.f.@.l ",
"w S O.>.p.q.2.p.5.4.2.1.q.p.t.Y / u.2.s.v.n.l.v.j.l.l.l.k.y.) c F O.:.2.t.4.6.6.2.<.>.2.2.>.*.[ ; I *.f.m.l.n.n.m.m.m.h.h.j.&.l ",
"n Y &.4.p.<.<.4.5.2.4.<.2.2.*.x $.y.2.s.d.l.l.j.C.m.l.l.l.h.*.Z q E $.2.2.s.h.h.p.a.q.q.>.&.%.R q I %.y.l.v.n.n.l.v.l.k.j.g.@.e ",
"5 / >.:.:.2.<.:.,.:.1.,.5.2.$.k %.0.2.y.s.j.x.v.V.l.l.m.l.h.) f y @.y.s.4.2.p.2.p.p.<.q.<.X.&.[ r E %.<.h.v.n.v.b.v.v.l.g.w.Q 6 ",
"r Y *.4.6.5.5.5.2.s.2.1.2.:.8.< I >.3.s.h.f.Z.g.V.m.k.h.h.$.+.5 r O.<.<.4.k.6.h.h.s.2.t.p.q.%.N k y.t.2.h.B.l.j.h.l.f.g.f.2.~ # ",
"2 Y O.:.1.5.h.p.<.2.4.1.2.>.! o z O.t.g.f.>.t.g.Z.V.f.6.s.w.@.& 4 ~ 2.2.s.s.s.v.h.s.3.<.;.$.~ n N y.w.2.f.B.j.j.k.k.f.V.l.4.) 2 ",
"Y =.w.4.6.5.5.<.p.>.f.:.:. .N @ l Y O.u.N.g.l.l.m.m.k.4.f.w.' 2 l 8.f.t.t.k.l.V.l.l.s.f.s.:.~ r z *.t.t.k.v.l.b.b.j.f.m.l.t.@.n ",
"o.>.t.l.v.v.k.6.k.4.l.j.5.{ N 1 2 Y 3.M.N.Z.C.A.A.A.A.V.g.*.Y u c #.t.t.s.h.s.b.6.s.u.k.g.2.| r r +.g.B.v.k.l.V.Z.N.m.V.l.d.8.) ",
"$.;.<.d.v.k.h.h.h.h.h.l.x.X.! 1 k ) i.N.Z.C.V.V.C.Z.Z.V.t.+.N k u U E &.y.*.:.g.s.f.k.k.s.6.%.P , I y.N.N.l.s.s.*.y.C.x.x.e.~ S ",
"t.t.0.s.j.s.s.h.j.v.s.5.j.p.0.1 ~ +.0.y.g.z.y.y.t.M.m.i.0.*.k O x ) ! J ~ *.9.y.h.s.>.t.h.t.%.k @ r %.y.N.Z.i.*.l O.z.z.r.8.n 1 ",
"| *.%.%.*.;.3.t.s.u.4.:.q.s.e.N C ~ 8.) Y Y I _ *.9.8.O.~ Q @   I 0.*.b b Q 7.#.t.w.w.t.y.y.O.t : 1 ~ &.e.i.9.Y q C *.%.7.Q 5 1 ",
"4 P N n N P U U U v &.:.$.R J t 3 m Q b l n = @ c u ; & 2 5 X 3 j U ! S s e 8 V x S Y P k 4 r ; : ; W J z x r . ; 2 h 2 1 : X 1 ",
"d w b a i : X % 5 q y 7 y r 3 3 m y b j N N n w - ; . % a k 3 5 B 3 5 b a 3 : @ # 6 # 9 w t t 2 u P K N Y n V u u l , > z A r w ",
"1 1 P ! B Q e.z.M.i.9.8.e.8.I w F b A N I N I Q u t 2 r N N b h 1 5 S ~ I I Q G ` F A F ` #.~ t Q +.T J P S Y ) V S x J E I k q ",
"> ~ g.z.y.0.h.l.V.V.N.N.z.t.I 3 2 y J I L K K P S x k x I J N h * B 8.7.O.O.| I %.*.*.>.%.O.$.E 4 I L [ R E P P R R [ [ [ I k w ",
"% 8.g.x.C.V.V.S.j.S.G.G.N.y.E 2 - S |  . . . .T U P J U J N J h % S w.0.q.y.y.%.<.t.t.s.w.>.*.E h R {  . .| [  .| [ [ { T K N 5 ",
"b 9.N.H.Z.Z.J.v.S.S.C.D.C.M.~ @ 2 Y R T [  . .[ | T T { v x K 4 V ) 0.2.2.s.s.>.s.j.g.m.f.3.@.P z T [ L } [ { } O.{ } -.{ E n - ",
"@ ) N.J.H.A.S.l.V.l.l.n.V.N.` + A ~ T [ ..}  . .{ [ { [ v z b 1 q I @.:.5.s.s.d.s.f.k.k.y.>.O.x N ! } } <.-.2.<.:.$.$.} [ I b @ ",
"@ Q f.B.C.V.j.n.n.x.C.G.D.N.9.C A O.T  .X.} }  .[ [ [ { J k b @ n O.y.h.h.5.<.2.l.s.2.6.l.d.>.N n E E { %.>.q.s.>.-.} [ [ T n 2 ",
"w b u.F.B.V.n.l.x.g.n.b.v.d.*.s N >.{ X.X.X.$.$. .} [ [ E P m 1 F +.t.q.h.s.2.t.s.h.h.h.5.>.&.U y Y U } $.*.$.;.$.$.-.X.-.} K 5 ",
"V +.x.S.C.N.x.v.p.x.N.j.V.d.#.f A $.,.,.5.,.-.X.,.} $.o.$.| E q D =.t.s.h.s.2.-.4.s.j.l.s.>.*.^ q V F / @.o.{ $...} :.<.5.<.$.I ",
"Q 0.l.n.V.n.l.l.S.C.C.l.l.q.#.Z A &.-.X.<.q.q.-...,.:.} { E Y $ c @.2.s.h.6.t.s.6.h.p.h.2.;.@.^ @ u A Y E o.&.2.:.:.>.<.2.>.@.A ",
"` e.g.l.n.V.v.v.v.v.V.V.V.s.w.F c *.0.;.<.0.t.q.;.>.:.o.} U D @ c O.>.s.k.1.5.h.k.k.6.6.2.>.@.V e G _ O.&.$.:.0.2.>.:.:.-.$.Y l ",
"` w.l.v.S.S.S.n.v.l.b.l.j.u.w.A k ~ $.>.3.$.$.-.;.-.-.-.:.[ F w F %.-.<.s.2.5.6.k.k.6.2.t.*.) V 3 V E { $.>.q.>.:.>.:.>.>.>./ U ",
"t ~ t.g.n.l.j.g.x.g.l.q.t.w.e.A S *.3.f.z.0.<.7.;. .-.-.;.{ ~ e B %.%.&.:.:.2.3.2.3.2.2.>.+.( w % z | $.:.2.q.<.} %.&.:.s.y.*.*.",
", n #.y.g.q.*.7.0.t.d.0.*.#.#.l n 7.y.w.0.7. . .| | O.[ [ E ~ r t _ +.E Y U O.%.>.>.>.*.O.Q S y , z [ $.$.}  .[ [ | #.%.d.q.0.*.",
"a n Q 8.y.%.Q H ( #.%.~ Q u f 3 u _ #.) _ _ _ | I I F V N N S 1 r S N b a e l A ~ O.~ E A V s y V k J | O.O.O.Q S Y _ Q e.| | ~ ",
"a e y C ! N r 6 q k j 4 ; @ w Z d t @ 3 H H Z C l w e p p q s 1 w t 2 ; w 8 q t r k t k q q e y F 2 > k I ) F w 7 8 s ; Q N B m "
};
