/* XPM */
static char *rough_stone_floor_texture_top_down_view_texture_substance_designer_quixel_stylized_hand_painte_545325076__1_1684525994[] = {
/* columns rows colors chars-per-pixel */
"64 64 197 2 ",
"   c #000004",
".  c #080B0B",
"X  c #120F0D",
"o  c #0B1012",
"O  c #141613",
"+  c #151A16",
"@  c #1A1C17",
"#  c #141A1A",
"$  c #1B1D1A",
"%  c #1D1410",
"&  c #281F17",
"*  c #201F1A",
"=  c #1E201C",
"-  c #23221C",
";  c #2A251E",
":  c #2A2116",
">  c #31271D",
",  c #36291D",
"<  c #3A2B1B",
"1  c #0F1F20",
"2  c #1A1C20",
"3  c #1C2422",
"4  c #1C292A",
"5  c #242522",
"6  c #2A2721",
"7  c #262824",
"8  c #2D2A23",
"9  c #2C2D29",
"0  c #252B2C",
"q  c #302720",
"w  c #332D25",
"e  c #3A2E24",
"r  c #322E2A",
"t  c #382F28",
"y  c #363127",
"u  c #3C3125",
"i  c #35312C",
"p  c #3B342B",
"a  c #36382F",
"s  c #3D392E",
"d  c #353632",
"f  c #393632",
"g  c #373931",
"h  c #3D3A33",
"j  c #3B3D39",
"k  c #4D2C10",
"l  c #58361B",
"z  c #613615",
"x  c #423426",
"c  c #42362B",
"v  c #443A2D",
"b  c #4C3C2C",
"n  c #513E2E",
"m  c #443D33",
"M  c #4B3F31",
"N  c #3E403D",
"B  c #4B412F",
"V  c #51402F",
"C  c #474035",
"Z  c #4C4235",
"A  c #45423B",
"S  c #4D453B",
"D  c #4C493F",
"F  c #544434",
"G  c #594634",
"H  c #5C4A36",
"J  c #514639",
"K  c #544A3D",
"L  c #5C4D3C",
"P  c #5E513E",
"I  c #604B37",
"U  c #614E3B",
"Y  c #63523E",
"T  c #69553D",
"R  c #695136",
"E  c #725738",
"W  c #4F4B43",
"Q  c #424645",
"!  c #544C42",
"~  c #594E42",
"^  c #575146",
"/  c #5C5244",
"(  c #56514B",
")  c #5D554A",
"_  c #5E584F",
"`  c #555050",
"'  c #5D5751",
"]  c #5F5A50",
"[  c #635543",
"{  c #695642",
"}  c #665846",
"|  c #6C5A45",
" . c #62574A",
".. c #645A4B",
"X. c #6C5D4B",
"o. c #725E45",
"O. c #715F49",
"+. c #645D52",
"@. c #695F52",
"#. c #6D604E",
"$. c #766146",
"%. c #74634D",
"&. c #79664D",
"*. c #7D694D",
"=. c #786246",
"-. c #6D6253",
";. c #6D6559",
":. c #6F695F",
">. c #676156",
",. c #746552",
"<. c #796751",
"1. c #766956",
"2. c #7C6B54",
"3. c #726659",
"4. c #756A5B",
"5. c #7D6E59",
"6. c #7F7057",
"7. c #7F705D",
"8. c #6E6862",
"9. c #746D62",
"0. c #796F61",
"q. c #736B6C",
"w. c #777064",
"e. c #7D7264",
"r. c #7D756A",
"t. c #7F786D",
"y. c #836C4F",
"u. c #816E56",
"i. c #806F59",
"p. c #847056",
"a. c #8A7355",
"s. c #84735C",
"d. c #89765D",
"f. c #8C785E",
"g. c #907856",
"h. c #927C5C",
"j. c #857661",
"k. c #887761",
"l. c #867865",
"z. c #8C7A63",
"x. c #807669",
"c. c #847A6C",
"v. c #8D7E6A",
"b. c #917E65",
"n. c #907F69",
"m. c #877D71",
"M. c #887F70",
"N. c #95805F",
"B. c #98815F",
"V. c #8F806B",
"C. c #948064",
"Z. c #9B8564",
"A. c #9E8866",
"S. c #93826B",
"D. c #99866C",
"F. c #9D896B",
"G. c #8C8273",
"H. c #8C837B",
"J. c #858075",
"K. c #958572",
"L. c #988771",
"P. c #978874",
"I. c #9B8A74",
"U. c #918679",
"Y. c #958A7A",
"T. c #9D8D79",
"R. c #9F907D",
"E. c #A08967",
"W. c #A28C6B",
"Q. c #A6906E",
"!. c #AB936F",
"~. c #A28E73",
"^. c #A08F79",
"/. c #A59072",
"(. c #AA9372",
"). c #A2927C",
"_. c #A9977E",
"`. c #9D9282",
"'. c #9F9594",
"]. c #A49582",
"[. c #A89781",
"{. c #A79983",
"}. c #A99A84",
"|. c #A49789",
" X c #A69A8A",
".X c #AC9E8B",
"XX c #B19E86",
"oX c #B09D88",
"OX c #A89C92",
"+X c #AFA08D",
"@X c #B2A38D",
"#X c #B5A693",
"$X c #B6A997",
"%X c #B9A995",
"&X c #BCAE9A",
"*X c #BEB09E",
"=X c #BAAEA0",
/* pixels */
"S.S.D.S.S.S.P.L.L._.s.b / b.s.s.u./ U.S.v.S.S.S./ | j.s.k.s.s.s.5.5.5.&.X.J N.Z.Z.F.W.W.Z.E.E.h.E.E.E.E.W.A.Q.f.J p.&.| ,.k.k.l.",
"L.S.n.S.z.l.R.).T.7.H Z / f.s.b.| q.I.z.S.S.S.S.j.~ 5.| &.5.,.<.5.2.2.&.<.K | h.f.A.W.W.E.E.W.W.E.h.b.E.W.W.A.F./ p.o.| Y <.b.b.",
"C ; 6 r - - a C r + @ 6 8 &.$.O.~ H.n.n.S.S.S.P.[. .F U I o.<.2.p.p.5.<.2.#./ h.a.C.Z.Z.E.W.E.W.h.b.h.E.W.Q.W.W.K Y $.o.U L K p ",
"+ = = h D j a 5 = d g g A ^ 4.;...k.s.l.z.n.P.T.).m u R G F { X.%.&.&.5.&.p | B.a.a.h.h.g.h.b.Z.b.g.h.Z.W.A.A.h.K ^ K ^ ..X.X.A ",
"r.;.^ ^ %.-...;.J. X.X.X+XR.I.V.,.l.j.z.l.v.K.I.P 8.c..._ ;.e.3.#.-...b b x | N.h.h.f.h.h.h.h.b.h.h.h.E.Q.(.N.m H.K.l.c.s.d.n.S.",
"L.I.R.7.8 R r `.R.P.T.T.K.S.z.S.) X.k.S.S.I._.} m OX.X.X.X].T.].].T.).@.< E u p.*.| $.| T | | o.y.g.g.b.s.2.@ j P.&.5.<.i.v.S.k.",
"C.S.S.T.K l ^ L.z.S.S.k.v.n.V.S.l.! v K X.X.m O 4..XT.].T.`.].^.I.V.v.L.p : y 8 p -.e.x.r.v.j.! & ; e 7 $ 0 ! t.S.s.s.5.p.s.k.v.",
"V.z.l.P.C % / I.v.S.v.k.s.l.s.i.s.P.w.9 O = 7 $ t 7.T.}.|.[.)..X{.T.S.D.s./ d.^ R.@X{.[.{.{.@X%Xn.r ;.j.j.l.,.) / | %.<.6.p.z.S.",
"C v J ;.`.]./ j.S.n.z.s.s.j.5.5.<.o.s.U.h o.H h +.,...[ P J b Z v v v Z Z e m 9.r.l.}.oXT.c.0.4.0. .,.#.X.t  .m i w.r.X.K m p v ",
"<.2.v.).T.I.,.~ C.s.d.s.p.s.5.%.,.O.F { U e K ^./.F.z.#.p 7 @ $ f A (  .-.r.G.Y.x.^ ^ K m K X.2.i.j. . . . .! 9.#XR.v.j.6.5.,.[ ",
"k.p.j.S.Y.).j.S C.s.2.5.5.,.%.&.<.<.[ U %.w @.E.s.f.C.s.o.o.C l.S.D.C.S.C.S.K.K.K.Y.!   / b.z.j.i.2.i.i.s.v.p v.V.6.5.5.5.2.s.j.",
"v.d.p.k.L.T.v.~ p.5.u.5.5.2.<.5.<.$.| { | J [ h.u.*.$.E T o.P 1.2.i.s.u.5.v.K.L.P.I.5.# -.u.2.p.i.2.2.1.%.5.K X.l.p.6.5.u.<.,.,.",
"z.d.6.s.S.K.K.~ %.5.j.p.5.p.5.u.&.o.| { [ G J a.y.E T *.&.&.| ,.p.5.s.V.k.d.V.P.I.I.l.5 4.s.%.$.O.2.2.%.%.5.} S z.i.2.2.%.,.<.<.",
"C.z.s.d.S.S.S./ <.s.s.6.d.5.<.<.,.o.O.X.Y T w H y.y.=.s.$.T P 1.u.p.v.C.k.s.s.V.K.v.n.! +.d.%.&.2.i.i.j.5.5.1.m O.{ [ { %.p.s.5.",
"C.V.z.s.S.S.T.! } s.j.s.s.2.<.%.1.,.| { | 2.w 5 e b *.s.U R v 6.i.k.S.S.k.f.f.p.s.s.k.5.! j.%.%.1.i.k.v.p.5.i.J L %.| X.5.j.k.d.",
"C.D.V.V.D.P.R.X.B 5.s.s.6.<.&.5.s.| { { { L A Y.S.K b T $.B y s.s.S.I.T.S.z.v.z.z.j.5.k.S j.5.,.<.2.j.z.5.2.&.[ K s.X.X.2.p.v.k.",
"V.V.V.S.L.P.V.l.M %.s.i.i.i.p.i.| [ { [ [ c  .b.a.h.=.I v o D S.v.L.I.P.D.b.L.S.K.n.i.z.~ 0.u.{ O.5.j.k.5.#.&.} S p.O.| ,.5.k.k.",
"f.f.l.d.f.z.V.I.9.n O.<.<.X.[ n I I { [ { b [ g.a.*.=.y.P + h S.z.n.D.S.D.S.I.^.I.L.z.k.@.4.O.| O.<.<.O.$.%.#.$.m %.%.%.%.<.i.i.",
"d.f.d.d.k.S.L.T.K.m b n n n n [ [ [ [ I { x { y.E u.&.=.=.3 g z.s.k.k.z.n.n.n.L.P.^.z.v. .0.u.O.O.O.X.o.<.%.%.&.L i 2.,.2.O.O.2.",
"s.s.l.V.S.S.P.P.L.~ , H G [ [ I I n I n ~ v I a.y.y.=.=.$.3 h p.s.s.u.5.z.z.s.b.n.z.z.z.m M.u.&.,.O.| O.<.&.2.2.&.t U | } H { <.",
"d.s.s.s.s.k.k.d.i.v.! b U R H H I G n b b x & d.Z.u.y.*.M 1 A s.2.i.5.s.k.k.s.k.z.v.S.n.c c.k.u.<.<.O.%.<.2.<.5.u.J & b n n H I ",
"f.N.C.C.f.z.f.z.b.n.k.q e G n b b ~ 9.m.n.`.) q w J Y J f 4 7 O.| $.o.5.n.D.~.D.I.^.Y.O.x W <.o.O.o.{ [ { &.,.L [ -.G.G.+.X.3.0.",
"r w C C J / [ [ J t 5 r.4.c ! ;.n.OX%X@X|.oXoX@.+.r.v.Y.].U.( q ; i J J ~ K p w m 5.U , x m ~  .3.v.M.v.m.+.i H.OX$X&X%X%X@X@X@X",
"1.D a 7 ; + + = # j `. X_.( G./.~.^.^.^.`.^.n.].^.D.K.L.S.L.I.' G.Y.T.Y.3.! S A 6 * f ;.M.T.I.T.^.^.^.^.).}.5.' #X@X^.I.^..X|.).",
"s.d.d.6.7.^  .K ( Y.S.K.I.W ,.n.k.n.n.n.L.L.L.n.z.z.z.z.K.S.v.S S.n.n.z.d.i.k.S.-.c. X.XP.S.P.L.S.K.I.T.T.P.}.m ,.S.d.n.z.s.S.S.",
"6.*.6.6.p.s.f.#.,.| %.5.f.A / S.z.k.k.z.k.n.z.z.i.i.i.i.j.n.n.6 [ s.k.d.u.p.s.s.) d.C.V.S.L.P.P.T.T.F.T.T.P.V.D [ v.k.s.s.s.S.S.",
"p.p.p.d.p.s.p.! 7.| #.| &.f ) /.W.n.n.n.k.k.s.k.k.k.b.n.z.s.b.r Z v.z.z.s.%.5.z./ } S.L./.)._.[.).).{.{._./.5.P Z i.%.2.p.S.D.I.",
"L P #.6.2.5.X.J l.1.%.%.<.i ! #.M ! M  .,.<.,.} { X.{ X.@.X.<.v m | L } / K J Y | - O > s K [ | %.} C y y r = + 6 | O.| J v F [ ",
";.P Z J L / J w y F } L K D ) ! +.;.0.m.M.T.m.t 3.i.1.4.5.,.X.1.5.5.1.5.z.S.l. .> Z Z Z S / ..9.w.@.( ! ! W ^ ) ../ v K } ~ ../ ",
"I.S.n.v.z.b.k.,./ v h 1.<.s.f.z.b.z.n.z.n.n.T. .k.k.s.s.i.v.n.z.k.z.z.n.k.s.k.v./ D.D.T.~.~.I.T.).).^._.).R. X+X.X[.5.X.D.S.D.S.",
"d.f.f.s.d.k.z.f.C.s.S C.d.s.s.d.s.k.k.d.l.j.k.X.@.s.u.i.i.i.k.k.k.k.k.z.z.k.j.z.[ 5.D.D.~.D.Z.F.S.Z.Z.Z.Z.C.S.).T.F.W./ s.f.f.k.",
"f.z.S.C.S.T.T.v.d.j.C l.k.k.s.s.s.k.k.k.z.j.j.i.[ 2.u.2.2.i.s.k.s.k.k.n.n.k.z.n.X.| W.Z.F.Z.W.Z.Z.Z.W.W.A.A.A.A.A.W.W.<.} S.l.z.",
"d.z.T.T.T.].`.S.d.v.! p.s.s.s.s.d.z.z.d.z.z.f.V.X./ 5.p.p.s.s.k.k.k.z.S.n.v.S.n.j. .A.W.F.W.E.W.E.Z.Z.E.W.E.W.W.E.W.Z.W.| 1.z.l.",
"z.v.I.R.Y.I.K.V.s.v.! %.o.T 2.k.d.f.V.C.z.V.V.S.,.Z &.$.,.5.s.s.k.k.k.l.n.n.D.z.k.-.&.Q.W.Q.Q.W.Z.Z.h.E.W.W.!.W.E.E.E.W.d.[ z.s.",
"n.s.s.s.k.s.s.6.p.X.Z *.[ { { 2.V.Z.L.S.S.L.I.T.v.m %.| | T &.2.p.k.i.s.k.k.S.k.p.5.K C.h.h.Z.Z.Z.h.h.Z.E.E.Z.Z.E.E.W.E.b.X.k.s.",
"k.f.f.s.d.s.p.5.d.A Z o.o.| [ Y } Z P #.#.#.j.e.5.p Y | { | o.2.j.j.s.s.p.5.2.i.z.6.; <.h.h.a.f.h.B.Z.W.E.E.Z.W.!.!.(.(.u.1.D.D.",
"* s J P X.1.%.&.} c.R.-.K J K [ S r @ + = + = @ @ 5 J T J G T s.z.S.z.s.5.s.p.5.X.S ) K X.L J J V =.u.{ U T | %.#.$.&.g.U O m K ",
"h - @ + - - p ) H..XXX}.U.z.z.b.V.S.c.( ] 4.W W c.Y.c.3.9.9.v Z <.K y 6 - i y ! -.V.).P.U.G.P.`.i . / 4.-.5.w.e.7.4.../ e.9.h 9 ",
"`.T.v.+.5 ` T.Y.).L.S.V.v.s.s.n.L.P.L. .v -.K P.T.P.R.R.I.S.j.! r + + @ 3 = ,.].).R.P.P.K.T.Y._.@.r.}.}.{._.).).R.)._.R.R._.[.).",
"v.V.z.6.` M.k.s.l.l.l.S.K.v.z.l.S.R.l.6 z k W D.s.l.s.s.i.2.5.u.l.>.a #.#. .P.[ j.T.T.I.I.K.l.@.S ,.X.3.e.K.).~.I.P.I.L.I.R.R.R.",
"S.s.&.-.'.j.<.p.k.z.b.z.z.z.v.n.P.D.B ; U ) K C.p.l.6.6.5.5.&.X.} %.S H x W ;.~ J X.-.} K S  .e.G.x.X...[ s C v.+X_._._.S.z.V.I.",
"K K S _ #. .[ S @.@...i.z.v.L.K.5.P ..Y.U.T.! s.z.k.s.<.$.%.O.%.&.L [ t c.R.j.i.5.w 5 _ K 2.z.S.S.S.v.l.C.... X , x B b , > w C ",
"K -.j.l.z.K.n.S v.s.[ S c M M Z S l.S.p.2.p.3.3.S.k.l.p.<.5.2.,.<.| Y m G.s.X.%.2.f J.T.z.f.j.j.s.s.p.6.2.l.f 0 _ j 8 j / A s y ",
"n.f.d.T.T.K.K./ s.s.s.5.9 0 @.0.z.p.p.k.l.p.j.) z.f.z.f.2.<.&.&.<.,.O.L m 4.| %.P >.I.<.5.5.2.2.s.l.s.5.5.5./ @._.6.d.d.s.s.s.d.",
"k.s.u.L.|.^.^.~ s.p.5.2.W Y.S.d.p.k.S.S.S.l.v.~ #.s.6.2.i.2.&.<.&.%.| | 6 t O.X.! v.5.i.<.<.5.l.K.S.l.s.5.<.2.K %.T X.2.<.5.5.s.",
"n.n.s.k.S.Y.].S 5.k.s.,.W z.&.p.l.C.S.S.S.k.k.#.v 2.6.5.s.2.<.&.&.X.| [ m D ~ m 4.d.p.s.s.6.p.s.j.s.p.5.5.2.u.X. .5.&.<.7.s.l.k.",
"n.n.k.i.j.z.^.S #.k.6.,.^ p.2.p.z.S.S.S.L.S.d.l.J %.p.j.2.&.<.<.5.O.{ %.[  .^ ) u.2.5.5.5.5.2.i.i.i.s.5.5.2.u...@.2.%.1.5.l.S.V.",
"b.n.n.j.i.v.^.[ -.j.p.%.^ f.5.s.C.S.S.S.S.k.v.S.-.J 5.p.5.s.2.<.| Y [ $.u e ,.2.<.<.&.2.5.p.v.s.k.s.j.5.2.&.i./ #.u.O.%.5.j.S.S.",
"b.D.n.k.k.v.^.@.<.z.s.i.S 2.u.z.D.F.L.S.v.S.K.S.K.K [ o.<.O.U H U U [ { v 1.s.s.s.<.O.%.<.<.k.v.j.s.2.1.<.%.5./ / f.<.<.7.l.V.P.",
"D.b.z.i.s.l.P.@.X.b.k.z.~ ,.b.S.I.L.L.S.S.T.K.P.].3.x n n F G { [ { U { M 4.k.k.s.i.{ X.%.O.O.2.&.<.%.,.<.%.5.y S f.5.j.6.s.v.S.",
"s.i.i.i.k.z.n.X.} z.s.s.X. .n.k.v.S.V.V.K.I.I.I.K.T.K n U Y Y T U [ U { v ,.z.i.k.u.O.o.O.| o.| X.&.<.<.<.1.&.8 1.2.<.p.p.5.p.p.",
"<.<.i.i.s.s.l.,.~ f.<.&.O.K k.d.l.s.p.f.S.S.S.v.k.n.4.M O.Y U U { U H { M  .<.&.2.<.O.{ O.<.<.<.<.5.p.u.5.p.5.) S.p.s.s.5.5.5.5.",
"H U { O.O.<.s.#.w %.d.u.<.m i.z.d.s.6.l.s.s.s.s.z.n.L.~ V U G b n n n G v ~ &.o.O.%.O.%.2.<.u.u.u.2.%.X.,.| 8 X.6.| 2.6.5.6.p.C.",
"0.@.-.3.4.X.m 2 2 , F J U v [ &.$.*.s.p.d.C.V.f.,.J m m @ w J +.c.|. Xm.v } u.u.&.| { { &.s.d.<.X.l.c.c.`.! . e T &.p.d.p.p.%...",
"[._.^.).[.).z.4.x.x.,.+.J m A 6 = = 8 Z s y w ; * 2 A 9 m H..X&X&X#XoX%X|.~ [ n S 9.c.c.+.c ! 9.U..X X].|.=X8.d - > p p y ; - i ",
"K.L.I.^.T.I.T.^.I.L.L.L.K. .s.i.%.) ..6.-.P D d 0 x.[.Y.@.S.z.T.~.I.n.^..X|.c.m. X*X$X#X#Xr 8.`.d.p.5.u.d.K.).T.t.h f 9.) 4.H.].",
"k.C.S.L.K.S.V.d.k.s.k.V.L.K [ &.*.p.p.p.u.p.h.} -.*.T f.-.j.S.D.^.D.b.b.n.^.oXoXoXT.^.^.oXc.J b.s.k.u.u.z.z.n.S.R.V.m D.D.D.L.n.",
"z.k.s.s.f.p.p.5.u.u.u.p.S.m C p.&.*.2.p.2.p.&./ X.I U I v 5.S.S.n.d.k.s.k.z.n.L.n.k.n.I.n.I.! i.2.i.i.s.z.v.K.K.S.l.p k.z.k.d.z.",
"z.C.f.f.p.d.a.f.b.b.b.f.f.Z p 2.| =.p.p.p.&.#.h { { U G w 2.z.n.b.f.s.b.n.n.I.^.s.k.S.I.].oX-.1.o.o.O.O.%.i.z.K.z.k.p s.S.d.z.b.",
"/ K K L } / K C w w p J K 5 5 s S J L K Z P a 3 e H J u w Z ~ | / M x M [ <.3.| X.| { ..@.4.! n I U G e v b Y L B b w v v ; p K ",
"P.z.0.c.G.V.x.e.9.>.N 3 @ m <.p.p.k.s.p.5.v.4.y 1.j.l.l.l.1.X.X.X.@.#.@.c +.x.0.Y.G.x.;.0.9.e.8.j.x.x.v.G.e.4.c e Z X.4...-.5.6.",
"S.S.S.S.S.T.T.I.R.]. XQ >.f.f.z.z.z.D.S.k.d.l.! S.k.s.s.s.s.s.s.i.2.5.2.<.J ~.I.F.F.~.I.).^.).[.].I.T.I.I.~.~.s.! P.V.S.L.n.V.k.",
"S.C.v.v.z.z.z.z.l.6.V.-.| d.V.I.T.T.T.T.V.f.C./ / *.T } <.i.i.5.<.2.5.<.i.n ,.b.h.B.F.F.D.~.~.W.~.W.~.W.W.~.F.~.@.-.z.d.k.k.s.k.",
"S.n.C.z.z.l.z.k.d.l.d.7.[ V.S.P.R.T.T.I.S.k.z.z.s <.2.$.{ O.i.i.i.i.i.i.u.| [ E.B.W.W.W.F.W.E.W.Q.W.Q.(.(.W.W.~.S.P s.f.v.s.l.z."
};
