/* XPM */
static char *wall__2_1684433797[] = {
/* columns rows colors chars-per-pixel */
"64 64 118 2 ",
"   c None",
".  c #050505",
"X  c #080706",
"o  c #070806",
"O  c #090907",
"+  c #0C0C0A",
"@  c #100F0B",
"#  c #0F100C",
"$  c #13120D",
"%  c #19160E",
"&  c #1E190F",
"*  c #161511",
"=  c #191711",
"-  c #1C1A14",
";  c #1E1D19",
":  c #221D15",
">  c #211F18",
",  c #1F201A",
"<  c #252116",
"1  c #2A2216",
"2  c #25221B",
"3  c #2A251C",
"4  c #2D281E",
"5  c #332517",
"6  c #30271B",
"7  c #322B1D",
"8  c #3A2E1D",
"9  c #35301F",
"0  c #3F311D",
"q  c #272621",
"w  c #292620",
"e  c #2D2A22",
"r  c #2F2E28",
"t  c #332D22",
"y  c #392F22",
"u  c #322F28",
"i  c #363125",
"p  c #3B3324",
"a  c #353329",
"s  c #3B352A",
"d  c #3D392C",
"f  c #383730",
"g  c #3D3A31",
"h  c #413626",
"j  c #443926",
"k  c #4A3D26",
"l  c #41362A",
"z  c #433B2C",
"x  c #493D2C",
"c  c #433D31",
"v  c #493F31",
"b  c #47402F",
"n  c #4C412E",
"m  c #52432D",
"M  c #59472B",
"N  c #5C492E",
"B  c #464133",
"V  c #4C4333",
"C  c #4E4837",
"Z  c #46443B",
"A  c #4C4639",
"S  c #4E493C",
"D  c #524633",
"F  c #554935",
"G  c #5A4B34",
"H  c #534638",
"J  c #534B3B",
"K  c #5A4E3B",
"L  c #5F5237",
"P  c #56503F",
"I  c #5C513C",
"U  c #604F39",
"Y  c #655235",
"T  c #685535",
"R  c #63543C",
"E  c #6C5A3D",
"W  c #796139",
"Q  c #534E41",
"!  c #584F41",
"~  c #575142",
"^  c #5C5342",
"/  c #5B5548",
"(  c #5F5A48",
")  c #625642",
"_  c #645944",
"`  c #695C44",
"'  c #655C4B",
"]  c #6A5F4B",
"[  c #705F47",
"{  c #6F6146",
"}  c #67604F",
"|  c #6C624D",
" . c #736345",
".. c #72654C",
"X. c #786548",
"o. c #7C6B4E",
"O. c #666252",
"+. c #6B6352",
"@. c #716652",
"#. c #746A54",
"$. c #7B6D54",
"%. c #766C59",
"&. c #796E59",
"*. c #7B715C",
"=. c #7D7667",
"-. c #7F7867",
";. c #827254",
":. c #8B7755",
">. c #8D7956",
",. c #83755D",
"<. c #887A5D",
"1. c #857964",
"2. c #897C60",
"3. c #8F8261",
"4. c #8F8469",
"5. c #978B6F",
"6. c #A89977",
"7. c #B09E75",
/* pixels */
"                                                                                                                                ",
"                                                                                                                                ",
"                                                                                                                                ",
"      $ - a d 2 - < O O 4 o - O . o o . w + t 9 O $ C 7 C S B 7 $ 4 . - ; . * . . t $ 5 t $ . : = o % 7 + . . . + 6 : &         ",
"      . s C a 9 3 e d 3 3 2 g = a o = e e % 3 O 1 < t : O 4 I 3 . 7 + . . . + . . . . < 3 . O + 3 P j k 1 . + . . 8 $ O         ",
"      2 * 4 , # # = # a $ , a g g i u # c , j $ O * = - , - * I $ 7 ; $ . + . . . . z . . $ . + % 6 3 L k . = - + : & X         ",
"      + < = 2 $ 4 e % o # . i ..= e ( 2 I 4 - : * i = o $ : . $ 4 O . , O = . O . X s $ O . i - + O % F - x * , 3 2 - @         ",
"      a # P 2 b + $ r - 2 o . * $ | d a 2 B i b w = p $ - . t e o b $ * #.$ = + O $ $ % . - % p % I p 0 % 3 z < s $ 3 =         ",
"      , e # # # o o , ( 3 e , O 2 # S 4 $ a t P ; s 2 f . . + d 4 a / a K A w J u < + + q + . + % | k $.} < n B 3 i j t         ",
"      2 * 2 * # , B r 3 g , b , o % = g K o B w i g $ . * 2 . 2 % Q i 1 J . X @ C 7 3 - = e # * p t I = e s ; s e ' i e         ",
"      , < g * C C I { d + , J 2 # e z C - 4 = K 3 $ * . O * - $ + 2 $ $ $ * h 7 C s 3 - 6 = 2 + 2 4 $ 6 h j x < ; t $ $         ",
"      d % , * R 9 4 B e 2 + + C $ - = I J d ' { ) $.r g < - 7 s i i P # a 2 G ) < - 3 ` d - i u a H I s s n -.3 # A I d         ",
"      + C 2 O B i e 2 , , 2 2 o * $ d $ e = ) i *.` a c O O k m | 7 i a + i &...7 G X > ! * % $.- - s $ B w J i 2 s Y p         ",
"      4 p 4 * e , a = J B B b , ; i B V 2 % # d # C g . * s G G - Q 0 V = - O B J . 4 * - 3 3 ` F x I 3 < + : D 2 I [ X.        ",
"      B d a C d I ~ B b = C ^ | d ' c *.~ ; o # # % * A 2 4.1 K 4 j | - c i . = 1 S u t $ % 2 x I c ' x e < ^ $.#.E ` E         ",
"      a , # , 2 b } | &.| @.} u ^ c O r # 2 z ; * 3 $ = 4 ] R & 3 E { {  .&.z C Q a y c V ] ,.x ^ +./ d 4 < - = l 7 i 7         ",
"      , $ , + = s z s B C _ ` C z R d # # J $ 2 + - 2 0 + - . . < J >.3.} p +.z A @ ..0 a + 3 s 3 . u ` I i 2 ( = $ < ;         ",
"      4 # 2 ; O 2 j e d = * j L i @.%.4 i 4 O $ 2 2 K t % + . . o < - | Z =.n j ^ s c s z s F + z - = V 3 O - / % 3 = $         ",
"      a - a 2 B ; 2 a ; C 2 ` V j K ` %._ O - q c $ - 4 $ = O % $ 2 + $ t 1 V < j + O z : 1 : x i _  .+ $ O 3 i @.2 O $         ",
"      q * - ; O.- d w i < - J e # * $ i # ^ , , g Z g Q A s z i 3 + = $ ; $ ~ D R e z @ 2 D y 2 = J = O O t < = I $ + :         ",
"      2 + u + e - a 4 - J t i ^ #.c e i d ^ { - 2 a s x 2 % R < | 3 + z 1 + d T s : 9 j ^ p J d # z x o + 4 + * 8 d 2 2         ",
"      2 , e A 3 + a $ e - D i > d c 2 c a @.] Z $ * r * O + #.- j w C 0 B + 7 k G F + t 7 x 7 + 4 d ) + + o + + x V z F         ",
"      4 - ; A < * s @ @ z 3 3 2 - C t O * 4 i B s 3 2 a d ; p . - + D V d & &.: 8 + B 8 2 @ - X # w C i + + F z F E G )         ",
"      - # = t e w + = t 2 F s + t = B $ + + 2 A d K ; 3 + + @ = ) V i m J 2 : 2 < i $ t 4 l 2 * 2 o 5.6.' x . ; * # n 7         ",
"      = < , 4 i 3 $ w o u y @ a i c + e $ ; q y v D > - % @ H % 7 R j n 2 n ) t @ > D 7 @ 4 @ y $ $ #.7.F * 3 > t 2.R R         ",
"      + i 4 7 4 e C $ # i t e > O = - c c J O.! %._ t ! O V = @ h : Y p O p m 9 3 y 3 : J R > @ $ B &.1.] < - y 2 1 ,.6         ",
"      O $ P i = P 2 ; 2 v - + c + = ; O > > c ! U _ 3 t K t x : : : % 6 3 z # x : 5 7 v s > 2 6 + w o + q Z * i - = ..7         ",
"      3 i s 2 q i + e j 4 > u d . q + . e u v 2 g +.v J e @ 1 @ 1 5 7 7 m V 1 s > k k _ @ 2 = O = + + * + + r @ 3 i p R         ",
"      2 2 O # S = , + i = w 2 v c ; @ X a 2 + @ @ = f t V 2 * X $ j p 3 7 e p < p 8 N v c d * q + $ + * * c @ + * _ K )         ",
"      * = + < C O # ; H - B + K t i = c * t + X 2 * q @ c e * - + ; O 9 3 7 t O.4 * - m z | o t w t * > + % + o o * + ;         ",
"      < j b B +.= - 2 j I K z _ +.> J s u ; u 3 t * X c ` . . ; d o = $ < $ #.' c . = ) l + o * + q - $ i > 2 2 o + . *         ",
"      % 3 # = } C i 4 4 _ ` _ u c A t z @ O + q = A X 2 u +.@._ 1.x R 2 < - } H ) s F 4 s + o + > w w + H s t - + - t 7         ",
"      2 # = = A t S A z c | x 2 t = t : + q 2 + > % > + > u ~ - Q %.s : j 1 : <.3 v #.2 * X + ; , r q 2 e h t > + @ X t         ",
"      < , 3 3 t * > l V C + ~ h $ # V e * 2 d # - p % * > d > d K s w 1 m - : s : s ! @ * q + $ * + a g + x t y + @ ; v         ",
"      o # - r O 2 1 > > O.%.u + + + j @ 4 $ x + % + * + V / a ) a F s H  .= 1 t u ; s H @ + > 2 q + 2 @ + t y : = + > >         ",
"      # 3 3 2 O a F K s / ^ C = % = * : * = $ = : - = 1 k p 7 H 3 ..4 : y : 3 z @ * e ^ X + 2 c X * ; = + q > > q X X @         ",
"      3 3 a b x ^ A J c a e , 2 = s t K - 2 - * t t 2 : + @ = z l e c : % . @ X ; w 2 s * * V @ + u ; > @ > * * = $ - >         ",
"      s = t ^ A J c c o O < * g 7 t X V @ t + + O % % + @ - X - X K c K h t @ : > f w t t w > + + = - ! c q t @ > y A Q         ",
"      B % e Q d s v ; @ k e $ : 8 z : @ + O = * 3 6 x @ % $ - X * > D h D 2 3 : 1 A f ; = = X X + r f > = v u w &.A H '         ",
"      d * C t 6 l D / t - : # e ) % : 6 $ % > O . & 7 5 > * % d 6 ! 3 6 t K D h s l s + e + X + + r > > = u v ) [ $ e z         ",
"      ( V 8 * c V s k 3 : 3 s X : X = % & 1 * $ X @ z 3 + + 0 : I x p - : 6 #.J X.v u > : 2 w - S K t + * F 4 t ` q ` J         ",
"      B n d S O J n + j - $ u t ..3 x y 3 - 4 + + > * ^ X @ : 1 E ;.k @ 4 V ;.U R x t H > 2 V u u 3 - = u h 3 > @ c - y         ",
"      ~ J d s V 0 1 p s B _ _ A : >.z . 7 $ t < 5 % h : 7 4 : h R N 8 @ = h y 6 D D > p K A D 1 t > - l A i i 6 ! s > >         ",
"      V 2 d I | t 5 7 = O O z + + e H O + O 3 - 3 > + : V 2 v + t 6 v - : 4 F v p s c H H t _  ._ F s n t x k t l y - -         ",
"      B a = d n p k j y 2 . 2 @ + 1 * z * X i ^ ) @ % : X + s + @ > 7 . V S K s U l x s > X t > @ u H ! 7 K x ] J p J =         ",
"      z # $ P 1 + 1 1 M 2 7 t K j > i @ i J _ z : @ X ) v x * > 2 2 z % $ D ;.$.6 k x 1 y : 6 + X :  .X.o. .E 7 > 4 w %         ",
"      8 7 B 9 m p Y M % 8 z ) D *.Y :.+ > V t - v @ * w - ` l 2 6 . . H y t ..) J H t i ) $ m J 2 _ 2 w R E ;.F ) K + 2         ",
"      - I P ) ^ L M % : 7 h 7 1 B l D U h w p X > h 2 . = ' : h 7 c > l l y y 2 = : $ : - 3 3 2 = t x s % | 8 : O > K #.        ",
"      d P < - % j & 7 3 V K = = % O : F F $ 3 $ + * . . ; c % : x t v t q v t 5 : + + = l t 3 - v y J - > l : p e > t +         ",
"      c 0 5 $ $ i $ - 1 0 - O O + . $ s P : = O $ * $ > 6 > - e s l O * e N v : @ . X + = ; + 3 v u v 6 ! @ t ^ * + = -         ",
"      1 & 5 s = s 8 1 j n - O O + . . i j + < + + + s p v O 2 R : 4 + @ - v z O X . X X + 6 + - t ; t e : a 3 a e a +.v         ",
"      & % < 5 = , k 7 s = - $ : + $ + c K + - % = + K % * = z X l 6 2 . @ l O . @ 2 = + $ r - * * q > ; w > * + 2 H t *         ",
"      @ p 7 0 < $ B % + O % $ + + + + C t . + 3 @ o l + * u u + - m p 2 > * + : * @ @ + @ a = v x t u y - $ - > > > - %         ",
"      O & O - % % z . O + , % # + + + j m = 2 + * = v e y > J > s ^ 3 : e : * $ @ @ + X @ * > > t c * X ; 2 t : = 2 > @         ",
"      3 X X $ + $ - d . * + 4 O + + 4 D J 1 = = 3 N y X + ; t 2 - S 2 p * K @ @ X + $ + + t e - c v * X - w l w * d * e         ",
"      < - @ 5 1 8 # ' 2 + . , % % F x D x ` d D * : w o X . + : * $ : $ t u u 2 , $ + ; * s t v $ 2 = = + [ H 3 t > @ D         ",
"      $ 7 3 F 9 < + d 8 = + ,  .3 + x m 3 : 1 $ = @ + $ * O 3 1 . = - + $ : K s e @ @ @ w > p e + H + : v p s c = w = t         ",
"      : 8 < : n 6 = = n k O.n k + - 1 p 1 - z x p 3 i * - x h _ = ; @ 4 - x = 2 t % O > l v y y i ;.> - ) t t = > w c -         ",
"      1 p 0 1 F 7 - n i N O 4 V @ $ - i 6 = 6 : 3 4 + 1  .x t x x z t F G R t $ w = 3 s ) D s u - c e a s p e 2 D > c S         ",
"      1 p p 8 = % p 1 7 m < p = % % $ t : - $ X . $ 2 4 s 4 o.W R K G I j m l 3 q * $ 2 u p l l > t > - > @ + z > c > v         ",
"                                                                                                                                ",
"                                                                                                                                ",
"                                                                                                                                ",
"                                                                                                                                "
};
