/* XPM */
static char *wall1684417326[] = {
/* columns rows colors chars-per-pixel */
"64 64 66 1 ",
"  c #0A0A0C",
". c #100F0D",
"X c #161414",
"o c #1A1917",
"O c #161518",
"+ c #19171A",
"@ c #1C1B1C",
"# c #201E1F",
"$ c #22211E",
"% c #1E1E21",
"& c #201F23",
"* c #242324",
"= c #282626",
"- c #272822",
"; c #2A2926",
": c #262529",
"> c #28272B",
", c #2C2B2C",
"< c #302F2D",
"1 c #2F302B",
"2 c #32312E",
"3 c #2E2E31",
"4 c #302F32",
"5 c #343334",
"6 c #383735",
"7 c #373833",
"8 c #3A3936",
"9 c #363539",
"0 c #38373B",
"q c #3C3B3C",
"w c #403F3D",
"e c #42413E",
"r c #3E3D41",
"t c #413F42",
"y c #444344",
"u c #484745",
"i c #474842",
"p c #4A4946",
"a c #464549",
"s c #48474A",
"d c #4C4B4C",
"f c #504F4D",
"g c #52514E",
"h c #4E4D51",
"j c #514F52",
"k c #545353",
"l c #585755",
"z c #5A5956",
"x c #565559",
"c c #59575B",
"v c #5C5B5B",
"b c #605E5E",
"n c #61605D",
"m c #5C5B60",
"M c #605F63",
"N c #636264",
"B c #686667",
"V c #6A6966",
"C c #666668",
"Z c #696768",
"A c #6D6C6B",
"S c #706E6F",
"D c #6D6C71",
"F c #716F70",
"G c #747373",
"H c #817F80",
/* pixels */
"hmmxjCM3aMxnk5edjbbFGBccls<jZBBujSGZbBb;hNxva3rhhxCDCmmmm9:ammh9",
"axDGMxh>5kagp1qpjlfjcjbFbu=wjjj6pbFFblf;3iyhy-qyaarrrrhxa3:rhar3",
"rrasraka:aagd37pstww6<6sw4>jBcl6wuupttft,ahxh3ryhar9339rr93axaa9",
"rssrahh5*adxg77y6wwtut6suw6jbclwwpuuffs=,ydka37q9999rr9rr33axaa9",
"3rrrr93@O79q7-%1=#46ww#4w>#60w0<=w<www=o@3793%:3:%3393%:3&%3939:",
":::33%>0:9979,:9bsuwww4t0==4666<=;=ww#;w37r79,39xhhrhr3ar3:93:9r",
"rhsmj34ayhhpdaqdBjlstjwlSjuw6wtswlbAv<4tdhhairqyxahraa3xaarrr9ah",
"rshha33rraaryr37ltljjt=wu0wttstswgftw=wwqiarrq39hhxrhr%rr93rrrr9",
"rihhr375qqyar993tlljtt=wttwwptwtwllfe585yqy09q:1ahaaa9:rrar9rr99",
"rrqyr9933,39971%wttftt#<ww4,wtwtwuw6555;@;90r9:,9rrrr3::39::399r",
"1313%@:%%-,33,:%44**ww+;4w=#&w4&;8<;*$>*@>,,:%*:33::993r99::9933",
"rida71r73raa93qhww><tZSHclgtskdwwggpe8t7ekday9yhrr:3axmmhharaar9",
"khihddd93amha9rxjtw=wjjcjdtjjkdwufdfggp33aaha5yyrr93ahhxaaaaxha9",
"7rqirry3:raaar9rtfw#ttjjswtffdsw5yeyyit,3idhaq7rar339r9aarrrrar3",
"1ridara93rrrar33ttw#wwtwtwwtwww<2pffuiu57qiq95,9rr3:rarar99r3r9:",
"31779q9%:33393%3+*..www=<=;$o=<#-557q83X::9,33%:%%%:99:::%%:%::%",
"r79,:93933rr-1i19:q7q17hwowgfww5eee-1e2wtttw:wsw93ar999x9%hmmaa9",
"aahrriahxhmx9rxiiqhigieik<gVBzbleelwwgflblkj5tstrraarr9ra:amhaxh",
"ria73rihaihx3:yhrqirii77<X8ppepieep21epbudkk44tjrraaar993%9aa9rr",
"rrr339qahrqar9aa7rhikgdq<o8idifdege1weefuwwt4ttw39araar9:%9aaaar",
"arr39rrrrrir91r7:7iqiriq<$wepppueww16wwwtuut;0w53rrarrrr9%39rrrr",
"937,,qq73993%%:%-7q77-71;#<<855;ww2;wwww2622X*&X:9933&:3:%939933",
"73935rqqhr%,dxa%ydggd1yifwfugfiw;wwwwuewbw&wdNp*amhxa9aaarhhxha3",
"9qy99yrrai17dha7aagxk1ydkpffzkp82wwwueptu2;upfy6raahr3raxahraar9",
"339q799973:9ryr17qqq52epklfiffw5www<wwww88;ipi77qq883:rahhrraa99",
"7993%*,,39-3r93%$57e2$7pyi8<5ww8oww<#o;$17$782$$115q3%rr39339933",
"31,:-3:@%1%%1::-3--15$-,$<<<<725-www<wwX77$117127-@79::::3399939",
"hhhxmCmyrmhyxhhmmi1egdi5;efklffpbzfbbSVwgngzkvznze5ihir>3ahahhah",
"hhhaqaaa:xxhxirarq;158e55pkfggfkljjtwtzw7zgzggeeq7173rrr3ahaaaaa",
"irir99q9%dhahriaei5115yq<epeuiuptjjtwww;ezgzeeggie77rrr33aarrr9r",
"aqqaaaq1,irrryhhie,157q1<yffffpitttjgpw=eeeeeeezg717rrr:3rarraar",
"93391:::%913799-5>@-1,11o;<<664<4w<<w;##-71ei71-1-$7939:%:339933",
"riqr99i:%haaa::3q7iiir7iiq$rnznrwleeege-8gegp-2eipggpepgg8;pnzf6",
"yhxmhhxq:haah93ihdkhhhkCni1izgh7tlzbVzgw8gpzg;egggggppgng2;efew2",
"9yaaaahr%riaa91aiii771,ii7%7ghi7wfpgffgw2pgzg2ezgpie22epp82ufww2",
"riaayyai%7ahx73yr9q7qq7ydr1izghrwggeezew;igzg28peeeippegp8;plfu6",
"39qrrq33%1qiy3*1,---7q17q1-9rrr7-weewwwo$2ee8;;22;2288;86==6ww6=",
"331393%1-:931:%:diq7qq1-7-@-1777;1;7w$--;8e82;;8zppepe;8w<=44<66",
"irarrq1rirhaia9rzhhahhqqvhrrrrriggege1wgigggppepngzgzg2zjptsuwss",
"arhhh9%r9rarra93hdhaay77i7qriirdwgzzi;2wipgppi82zzzgzi;pfw6uuwu6",
"aiaha9339rirrr73ihhhii:qri97yr7rigggi722eeie8p28ngzgle=uwfw6uu66",
"ariaq3373139993*7ryiyr%39i737rrrwiiw7272-2eee8--eeffp2#2ww6;6uww",
"97331:::%*:33:::33:379%-19:%,99,2722;-2;$;222-;;226;22=666##=4>>",
"r9993937:9ri913a773:9aqahhyqihaq7iew88e22ieee2ppew;=egplllffjls0",
"rriaaair,qdaa9qhyir:rahmxhhhxxhawpgpgpp82pggz8gppp22fbzlpfsjllu4",
"rrrraarq:9rihr3qyrr:qaihyqrdaay77iiippp72ipgg8eepg62ufffuusssju4",
"9rririrq:qrray37qq9%9irryrryria72iieipi;8eeeee2eup;2wwuuuwwwwtw=",
"3799rq93@99,73:3::*X3q973:3*@37@-8w8ee7o-287;8$;$$o$tw6<=#==#><#",
"9393:93333993:39133q9:3ayO,xhrr782e;<e6w6wtt=6ut26uew<tl0#sbcss0",
"hrar9rahxxhxr3rayryayrqrh7aCmkxdpug86gpllbll4wjjpufufuuws4jbcjcj",
"ara939rhaaaa93rayryadyq9,%5aaahieep22uuljfsj64sjuplfluu84+wjstst",
"rrr939rrrrra93ra9qyahhar*@3yrahaeeu2<eufwuwj60uu2wgflppe=#wsjsst",
"arr93rr9rrrr9:99,5qryaar9:3yyyyruee26twwwuwt<6w<66uegppe4=66ttst",
"r993:99999393%::%,9533355%*9q95726226ww6ww<<#44o;2e62=<24=66t004",
"r99339rr9933999:,9ry935qyrqyahar26860tuwt6=64tw=flVgu2pzuujfcjt4",
"93r99rr9a9:39aa35raheqqadhhiahaq2ww80wsus4=uflu=pufue2efbujujs04",
"r33r939r99::rar:30tt9,3actttjtt0286044ww0w=wsu468ewe<<wfljuwpfw<",
"r9393:::993:399%>459535yttt00t00=6tw>#<=60#<04==;;6e<=8u686<6w<=",
"3333:::&%::&::::>:%&;:&,>>444494#<664<<+=0==44<<2$#66=<=#4644646",
"hahhahhr3aaahhhahy55rr9q&ttjtttsllsjjcc0wbjclbjlze2ulfu46sjfjjsj",
"aaaarrar:aahaaart0,,909t>ttcjssssjsswts44cjjfuuue62600t40scjjssj",
"aaar9rrr%ahhaaaaat54999t>tttatsssststtt44jffuuujue2240t04tstut0t",
"ar9rr9r9%rrrrrartt534549>wtttttstt0sstt>4swtwuujjw<6ttt44tsssttt",
"a99rr333%9r9r9rrw0>&4999&>ttt004000t0=>>=0>666<66==24>04&4040000"
};
